<svg xmlns="http://www.w3.org/2000/svg" width="25" height="25" viewBox="0 0 25 25">
    <g fill="none" fill-rule="evenodd">
        <path fill="#F2F1ED" fill-rule="nonzero" d="M-277-484H43v679h-320z"/>
        <path fill="#F2F1ED" stroke="#000" stroke-width=".56" d="M-271.872-246.72c-1.584 0-2.255.13-2.95.501a3.355 3.355 0 0 0-1.397 1.397c-.371.695-.501 1.366-.501 2.95v383.744c0 1.584.13 2.255.501 2.95a3.355 3.355 0 0 0 1.397 1.397c.695.371 1.366.501 2.95.501H37.872c1.584 0 2.255-.13 2.95-.501a3.355 3.355 0 0 0 1.397-1.397c.371-.695.501-1.366.501-2.95v-383.744c0-1.584-.13-2.255-.501-2.95a3.355 3.355 0 0 0-1.397-1.397c-.695-.371-1.366-.501-2.95-.501h-309.744z"/>
        <path fill="#3B3B3B" fill-rule="nonzero" d="M5.407 5.49l1.68 5.392 3.711-3.712-5.391-1.68zm13.72 13.543L8.942 8.85l-.088-.088-.177.177.089.088L18.95 19.21l.088.089.177-.177-.088-.089z"/>
    </g>
</svg>
