<?xml version="1.0" standalone="no"?>
<!DOCTYPE svg PUBLIC "-//W3C//DTD SVG 1.1//EN" "http://www.w3.org/Graphics/SVG/1.1/DTD/svg11.dtd" >
<svg>
<metadata>
Created by FontForge 20090622 at Tue Oct 29 19:43:10 2019
 By deploy user
&#194;&#172;&#194;&#169;2012 Kai Bernau and Susana Carvalho with Christian Schwartz under exclusive license to Schwartzco Inc./Commercial Type. All rights reserved.
</metadata>
<defs>
<font id="AtlasTypewriter-Light" horiz-adv-x="640" >
  <font-face 
    font-family="Atlas Typewriter Light"
    font-weight="300"
    font-stretch="normal"
    units-per-em="1000"
    panose-1="2 0 0 0 0 0 0 0 0 0"
    ascent="812"
    descent="-188"
    x-height="524"
    cap-height="765"
    bbox="2 -217 1705 1194"
    underline-thickness="50"
    underline-position="-50"
    unicode-range="U+0020-U+FB02"
  />
<missing-glyph horiz-adv-x="500" 
 />
    <glyph glyph-name=".notdef" horiz-adv-x="500" 
 />
    <glyph glyph-name=".null" horiz-adv-x="0" 
 />
    <glyph glyph-name="nonmarkingreturn" horiz-adv-x="333" 
 />
    <glyph glyph-name="space" unicode=" " 
 />
    <glyph glyph-name="exclam" unicode="!" 
d="M292 221l-10 567h76l-10 -567h-56zM375 0h-110v115h110v-115z" />
    <glyph glyph-name="quotedbl" unicode="&#x22;" 
d="M376 504l-24 261h109l-23 -261h-62zM193 504l-24 261h109l-23 -261h-62z" />
    <glyph glyph-name="numbersign" unicode="#" 
d="M381 361l24 166h-150l-25 -166h151zM223 308l-30 -209h-58l30 209h-108v53h116l24 166h-109v54h118l27 184h57l-28 -184h151l27 184h57l-27 -184h114v-54h-122l-24 -166h115v-53h-123l-30 -209h-57l31 209h-151z" />
    <glyph glyph-name="dollar" unicode="$" 
d="M291 414v280q-68 -7 -102.5 -45t-34.5 -96q0 -117 123 -137zM345 52l7 1q76 8 111.5 48.5t35.5 103.5q0 109 -128 130l-26 4v-287zM345 -116h-54v110q-105 6 -161.5 64t-65.5 153h66q19 -146 161 -159v296l-23 4q-182 30 -182 201q0 81 56 135t149 61v90h54v-90
q97 -7 151 -61.5t59 -146.5h-67q-13 140 -143 153v-289l40 -7q183 -30 183 -190q0 -91 -57 -149t-166 -65v-110z" />
    <glyph glyph-name="percent" unicode="%" 
d="M58 0l464 774h64l-465 -774h-63zM30 602q0 79 42 124t105 45q65 0 106.5 -45t41.5 -124t-42 -124.5t-106 -45.5q-65 0 -106 45.5t-41 124.5zM177 723q-39 0 -63 -30.5t-24 -90.5q0 -59 24.5 -90t62.5 -31t63 31.5t25 89.5t-25 89.5t-63 31.5zM464 -6q-65 0 -106 45.5
t-41 124.5t42 124t105 45q64 0 105.5 -45t41.5 -124t-41.5 -124.5t-105.5 -45.5zM464 43q38 0 63 31.5t25 88.5q0 58 -24.5 90t-63.5 32t-63 -30.5t-24 -91.5q0 -58 24 -89t63 -31z" />
    <glyph glyph-name="ampersand" unicode="&#x26;" 
d="M181 621q0 -32 10 -60t23 -47.5t46 -64.5q76 56 103.5 91.5t27.5 87.5q0 46 -26.5 75t-75.5 29t-78.5 -31.5t-29.5 -79.5zM238 371l-6 -4q-67 -49 -92 -85t-25 -89q0 -76 48 -115t110 -39q103 0 158 68zM613 0h-33q-37 0 -61.5 13t-53.5 50q-72 -79 -193 -79
q-105 0 -166 56.5t-61 144.5q0 70 34.5 118.5t125.5 111.5q-35 48 -49 69t-28 57.5t-14 74.5q0 77 48.5 124t127.5 47t122.5 -44t43.5 -111q0 -66 -37.5 -115t-126.5 -113l173 -237q27 65 43 215h59q-11 -169 -64 -266q30 -40 48 -48.5t62 -8.5v-59z" />
    <glyph glyph-name="quotesingle" unicode="'" 
d="M295 504l-24 261h109l-23 -261h-62z" />
    <glyph glyph-name="parenleft" unicode="(" 
d="M495 -130h-77q-97 79 -154.5 197t-57.5 262q0 145 57.5 262t154.5 197h77q-219 -191 -219 -459q0 -271 219 -459z" />
    <glyph glyph-name="parenright" unicode=")" 
d="M145 788h77q97 -79 154.5 -197t57.5 -262q0 -145 -57.5 -262t-154.5 -197h-77q219 191 219 459q0 271 -219 459z" />
    <glyph glyph-name="asterisk" unicode="*" 
d="M322 470h-2l-124 -188l-61 44l143 172v2l-204 62l26 74l194 -91l3 1l-15 219h77l-16 -218l2 -1l194 89l25 -71l-203 -63v-3l144 -173l-62 -44z" />
    <glyph glyph-name="plus" unicode="+" 
d="M350 328v-197h-61v197h-197v59h197v196h61v-196h198v-59h-198z" />
    <glyph glyph-name="comma" unicode="," 
d="M297 -129h-64l52 246h112z" />
    <glyph glyph-name="hyphen" unicode="-" 
d="M171 299v67h298v-67h-298z" />
    <glyph glyph-name="period" unicode="." 
d="M265 0v115h110v-115h-110z" />
    <glyph glyph-name="slash" unicode="/" 
d="M40 -130l470 918h66l-471 -918h-65z" />
    <glyph glyph-name="zero" unicode="0" 
d="M66 368q0 193 66 288.5t188 95.5q121 0 187.5 -95.5t66.5 -288.5t-66 -288.5t-188 -95.5q-123 0 -188.5 95.5t-65.5 288.5zM320 42q181 0 181 325q0 326 -181 326t-181 -326q0 -325 181 -325z" />
    <glyph glyph-name="one" unicode="1" 
d="M551 0h-438v57h186v503h-175v56h63q70 0 94 25q27 27 28 103h58v-687h184v-57z" />
    <glyph glyph-name="two" unicode="2" 
d="M168 502h-67q-3 116 63.5 183t169.5 67q109 0 167 -58.5t58 -142.5q0 -72 -33 -129t-116 -136l-136 -130l-99 -93v-3h398v-60h-487v58l263 256q80 77 110 123t30 111q0 66 -42 106t-111 40q-77 0 -123 -48.5t-45 -143.5z" />
    <glyph glyph-name="three" unicode="3" 
d="M330 347h-68v60h65q72 0 110.5 42.5t38.5 104.5q0 64 -41 101.5t-111 37.5q-154 0 -160 -161h-67q-1 95 58.5 157.5t170.5 62.5q99 0 159 -52t60 -138q0 -67 -34.5 -112.5t-95.5 -66.5v-2q68 -15 109 -61t41 -122q0 -91 -67.5 -152t-176.5 -61q-120 0 -178.5 62
t-63.5 158h67q15 -162 180 -162q74 0 121.5 42.5t47.5 113.5q0 74 -45 111t-120 37z" />
    <glyph glyph-name="four" unicode="4" 
d="M129 246h277v424h-4q-18 -43 -50 -90zM576 188h-103v-188h-67v188h-347v55l331 498h83v-494h103v-59z" />
    <glyph glyph-name="five" unicode="5" 
d="M70 200h67q9 -77 54.5 -117t120.5 -40q34 0 64.5 10t57.5 31t43.5 60t16.5 91q0 92 -49 140.5t-124 48.5q-110 0 -155 -73h-66l24 390h400v-62h-341l-16 -263h2q50 66 162 66q99 0 166 -61.5t67 -181.5q0 -119 -69.5 -186.5t-182.5 -67.5q-115 0 -175 62t-67 153z" />
    <glyph glyph-name="six" unicode="6" 
d="M553 587h-67q-10 47 -46 78t-100 31q-194 0 -197 -342h3q26 54 76.5 86.5t120.5 32.5q97 0 163.5 -60t66.5 -180q0 -108 -66 -178t-178 -70q-255 0 -255 346q0 212 69 316.5t199 104.5q94 0 147 -47t64 -118zM330 42q73 0 123 49.5t50 136.5q0 91 -48 138.5t-126 47.5
q-79 0 -126 -47.5t-47 -132.5q0 -88 48.5 -140t125.5 -52z" />
    <glyph glyph-name="seven" unicode="7" 
d="M163 0l324 680h-412v61h489v-47l-329 -694h-72z" />
    <glyph glyph-name="eight" unicode="8" 
d="M94 557q0 83 61 139t164 56q104 0 164.5 -56t60.5 -139q0 -68 -36.5 -113t-89.5 -61v-4q57 -11 103 -58.5t46 -129.5q0 -94 -66 -150t-182 -57t-181 56t-65 151q0 82 46.5 129.5t102.5 58.5v4q-53 15 -90.5 60.5t-37.5 113.5zM319 697q-66 0 -110.5 -37t-44.5 -108
t45 -107.5t110 -36.5q64 0 109.5 37t45.5 107q0 71 -45 108t-110 37zM319 39q79 0 128 38.5t49 116.5t-50 117.5t-127 39.5q-75 0 -125 -39.5t-50 -117.5t49 -116.5t126 -38.5z" />
    <glyph glyph-name="nine" unicode="9" 
d="M312 693q-68 0 -117.5 -45.5t-49.5 -134.5q0 -83 47.5 -130t120.5 -47q75 0 122.5 48t47.5 129q0 84 -49 132t-122 48zM86 160h66q27 -120 154 -120q101 0 143.5 81t45.5 269h-4q-23 -53 -72.5 -82.5t-114.5 -29.5q-96 0 -162 60t-66 175q0 104 66 171t171 67
q116 0 182 -82t66 -249q0 -235 -64 -335.5t-196 -100.5q-84 0 -142.5 45t-72.5 131z" />
    <glyph glyph-name="colon" unicode=":" 
d="M375 392h-110v115h110v-115zM375 0h-110v115h110v-115z" />
    <glyph glyph-name="semicolon" unicode=";" 
d="M382 392h-110v115h110v-115zM278 -129h-65l52 246h113z" />
    <glyph glyph-name="less" unicode="&#x3c;" 
d="M545 83l-459 222v53l459 223v-68l-379 -181l379 -181v-68z" />
    <glyph glyph-name="equal" unicode="=" 
d="M92 418v60h456v-60h-456zM548 237h-456v60h456v-60z" />
    <glyph glyph-name="greater" unicode="&#x3e;" 
d="M95 570l459 -223v-51l-459 -223v67l379 181l-379 181v68z" />
    <glyph glyph-name="question" unicode="?" 
d="M473 599q0 64 -41 101.5t-113 37.5q-79 0 -124.5 -50.5t-43.5 -140.5h-65q-4 115 62 182.5t172 67.5q109 0 165.5 -55.5t56.5 -135.5q0 -69 -26.5 -111.5t-81.5 -91.5l-34 -31q-38 -34 -46 -52t-8 -67v-37h-63v43q0 64 12.5 89t64.5 70l42 37q71 59 71 144zM370 0h-110
v115h110v-115z" />
    <glyph glyph-name="at" unicode="@" 
d="M349 -124q-152 0 -219.5 90t-67.5 280v66q0 137 31 217q59 153 239 153q126 0 186 -77.5t60 -206.5v-313h-57v69h-5q-38 -80 -133 -80q-68 0 -112 49t-44 151q0 98 43.5 150t120.5 52q83 0 123 -68h6q-8 222 -189 222q-139 0 -182 -120q-28 -76 -28 -202v-40
q0 -81 9.5 -138t33.5 -105t71.5 -72t118.5 -24q52 0 116 18l-1 -51q-56 -20 -120 -20zM396 128q51 0 84.5 35t33.5 88v40q0 60 -31.5 96t-78.5 36q-108 0 -108 -146q0 -149 100 -149z" />
    <glyph glyph-name="A" unicode="A" 
d="M312 695q-11 -57 -25 -104l-83 -283h225l-83 284l-25 103h-9zM518 0l-72 250h-259l-73 -250h-71l229 765h93l229 -765h-76z" />
    <glyph glyph-name="B" unicode="B" 
d="M314 0h-221v765h248q100 0 160.5 -46.5t60.5 -136.5q0 -71 -36 -115.5t-104 -57.5v-2q76 -12 119.5 -63.5t43.5 -122.5q0 -221 -271 -221zM164 435h166q159 0 159 137q0 66 -40 100t-110 34h-175v-271zM164 59h147q100 0 150 39t50 123q0 79 -49.5 117.5t-137.5 38.5
h-160v-318z" />
    <glyph glyph-name="C" unicode="C" 
d="M580 545h-72q-8 73 -49.5 123.5t-121.5 50.5q-110 0 -155 -84.5t-45 -255.5q0 -169 48.5 -253t153.5 -84q79 0 120.5 52.5t48.5 127.5h70q-9 -108 -74.5 -173t-168.5 -65q-133 0 -203 94.5t-70 300.5q0 398 276 398q99 0 166 -60.5t76 -171.5z" />
    <glyph glyph-name="D" unicode="D" 
d="M78 0v765h178q71 0 130.5 -21t106.5 -64.5t73 -118t26 -173.5q0 -197 -91 -292.5t-238 -95.5h-185zM149 62h107q261 0 261 323q0 163 -71 241t-186 78h-111v-642z" />
    <glyph glyph-name="E" unicode="E" 
d="M106 0v765h446v-62h-375v-283h330v-60h-330v-298h379v-62h-450z" />
    <glyph glyph-name="F" unicode="F" 
d="M196 334v-334h-71v765h452v-62h-381v-309h342v-60h-342z" />
    <glyph glyph-name="G" unicode="G" 
d="M340 718q-107 0 -155 -85.5t-48 -255.5q0 -175 45 -255.5t150 -80.5q87 0 134 63.5t47 151.5v61h-187v61h254v-378h-63v113h-4q-19 -55 -68 -92t-122 -37q-129 0 -195 91t-66 304q0 200 73 298.5t205 98.5q103 0 165 -61t69 -154h-71q-6 69 -47.5 113t-115.5 44z" />
    <glyph glyph-name="H" unicode="H" 
d="M152 359v-359h-71v765h71v-345h336v345h71v-765h-71v359h-336z" />
    <glyph glyph-name="I" unicode="I" 
d="M355 707v-649h179v-58h-428v58h179v649h-179v58h428v-58h-179z" />
    <glyph glyph-name="J" unicode="J" 
d="M263 -9q-79 0 -151 19v65q72 -20 151 -20q82 0 122.5 41t40.5 128v480h-269v61h340v-549q0 -112 -63.5 -168.5t-170.5 -56.5z" />
    <glyph glyph-name="K" unicode="K" 
d="M173 268v-268h-71v765h71v-404l327 404h83l-265 -324l293 -441h-86l-256 386z" />
    <glyph glyph-name="L" unicode="L" 
d="M129 0v765h72v-703h389v-62h-461z" />
    <glyph glyph-name="M" unicode="M" 
d="M81 0v765h101l114 -399q7 -25 12.5 -51.5t7.5 -40.5l1 -13h8q4 48 20 104l113 400h101v-765h-68v675h-9q-9 -60 -27 -124l-104 -366h-65l-104 365q-8 29 -15 60t-9 48l-3 17h-8v-675h-66z" />
    <glyph glyph-name="N" unicode="N" 
d="M80 0v765h97l276 -590q11 -24 20 -47.5t13 -35.5l3 -11h6v684h65v-765h-97l-271 578q-12 25 -22.5 51.5t-15.5 40.5l-4 14h-5v-684h-65z" />
    <glyph glyph-name="O" unicode="O" 
d="M55 380q0 396 266 396q130 0 197 -92t67 -304q0 -396 -266 -396q-131 0 -197.5 92t-66.5 304zM320 41q98 0 144 80t46 259q0 184 -45 261.5t-145 77.5q-97 0 -143.5 -80t-46.5 -259q0 -178 45.5 -258.5t144.5 -80.5z" />
    <glyph glyph-name="P" unicode="P" 
d="M321 304h-151v-304h-71v765h226q120 0 188 -59t68 -168q0 -110 -69 -172t-191 -62zM170 362h153q84 0 134.5 43.5t50.5 131.5q0 84 -48 127t-135 43h-155v-345z" />
    <glyph glyph-name="Q" unicode="Q" 
d="M474 39v-5q93 -24 137 -123l-65 -32q-46 113 -129 113q-11 0 -43 -3.5t-54 -3.5q-132 0 -198.5 91.5t-66.5 303.5q0 396 266 396q130 0 197 -92t67 -304q0 -262 -111 -341zM320 719q-97 0 -143.5 -80t-46.5 -259t45 -259t145 -80q95 0 142.5 75.5t47.5 263.5
q0 184 -44.5 261.5t-145.5 77.5z" />
    <glyph glyph-name="R" unicode="R" 
d="M162 385h173q77 0 124.5 41t47.5 126q0 74 -45 113.5t-128 39.5h-172v-320zM509 0l-168 326h-179v-326h-72v765h243q89 0 151 -33q97 -54 97 -179q0 -90 -47.5 -143.5t-120.5 -71.5v-2l176 -336h-80z" />
    <glyph glyph-name="S" unicode="S" 
d="M570 561h-71q-6 70 -47 113t-123 43q-78 0 -123.5 -38t-45.5 -105q0 -62 30.5 -93t100.5 -47l108 -25q96 -22 139 -71t43 -133q0 -100 -68 -160t-193 -60q-118 0 -183.5 62.5t-74.5 164.5h69q8 -75 55 -121.5t138 -46.5q95 0 139.5 43.5t44.5 111.5q0 61 -28.5 94.5
t-99.5 49.5l-99 23q-105 24 -148 71.5t-43 134.5q0 93 67 148.5t173 55.5q112 0 172 -57.5t68 -157.5z" />
    <glyph glyph-name="T" unicode="T" 
d="M604 765v-61h-249v-704h-71v704h-249v61h569z" />
    <glyph glyph-name="U" unicode="U" 
d="M75 247v518h71v-515q0 -100 41 -151.5t135 -51.5t133.5 51.5t39.5 151.5v515h70v-519q0 -261 -245 -261t-245 262z" />
    <glyph glyph-name="V" unicode="V" 
d="M594 765l-226 -765h-96l-226 765h74l172 -594l25 -101h9q12 55 26 102l172 593h70z" />
    <glyph glyph-name="W" unicode="W" 
d="M213 0h-96l-76 765h66l66 -686h6q6 47 16 96l91 430h71l91 -431l15 -95h7l65 686h63l-75 -765h-98l-86 414l-17 107h-6q-6 -55 -17 -107z" />
    <glyph glyph-name="X" unicode="X" 
d="M42 0l235 390l-220 375h81l178 -316h4l181 316h74l-219 -370l242 -395h-81l-200 337h-2l-200 -337h-73z" />
    <glyph glyph-name="Y" unicode="Y" 
d="M285 0v337l-243 428h80l200 -365h1l202 365h74l-243 -427v-338h-71z" />
    <glyph glyph-name="Z" unicode="Z" 
d="M77 704v61h503v-55l-434 -649h440v-61h-524v55l434 649h-419z" />
    <glyph glyph-name="bracketleft" unicode="[" 
d="M215 -130v918h256v-54h-190v-810h190v-54h-256z" />
    <glyph glyph-name="backslash" unicode="\" 
d="M534 -130l-470 918h67l469 -918h-66z" />
    <glyph glyph-name="bracketright" unicode="]" 
d="M425 788v-918h-256v54h190v810h-190v54h256z" />
    <glyph glyph-name="asciicircum" unicode="^" 
d="M352 765l184 -338h-74l-140 268h-4l-146 -269h-68l187 339h61z" />
    <glyph glyph-name="underscore" unicode="_" 
d="M100 -188v58h440v-58h-440z" />
    <glyph glyph-name="grave" unicode="`" 
d="M392 609h-58l-111 179h104z" />
    <glyph glyph-name="a" unicode="a" 
d="M163 143q0 -46 29.5 -70.5t80.5 -24.5q66 0 115.5 49t49.5 139v22q-106 -6 -159.5 -14.5t-77.5 -25.5q-38 -27 -38 -75zM439 101q-23 -52 -69 -80.5t-109 -28.5q-77 0 -122.5 39.5t-45.5 108.5q0 86 74 126q64 35 272 46v22q0 75 -28 111t-101 36q-61 0 -92.5 -28
t-36.5 -70h-67q6 66 56.5 109.5t138.5 44.5q196 0 196 -199v-234q0 -27 9.5 -37.5t34.5 -10.5h19v-56h-24q-56 0 -78 23.5t-24 77.5h-3z" />
    <glyph glyph-name="b" unicode="b" 
d="M97 0v788h70v-354h1q25 49 72.5 76t109.5 27q95 0 158 -65.5t63 -206.5q0 -136 -65.5 -207t-166.5 -71q-63 0 -107.5 29.5t-67.5 73.5h-2v-90h-65zM334 43q82 0 124 58.5t42 163.5q0 98 -38.5 157t-125.5 59q-80 0 -125.5 -51t-45.5 -122v-82q0 -75 44 -129t125 -54z" />
    <glyph glyph-name="c" unicode="c" 
d="M550 378h-70q-7 42 -43.5 72.5t-97.5 30.5q-81 0 -125 -57.5t-44 -159.5q0 -221 166 -221q67 0 101.5 34t44.5 84h70q-13 -83 -71.5 -128.5t-145.5 -45.5q-117 0 -177 71.5t-61 200.5q0 125 64.5 202t178.5 77q80 0 139 -39.5t71 -120.5z" />
    <glyph glyph-name="d" unicode="d" 
d="M476 219v82q0 76 -44 128t-119 52q-85 0 -128.5 -59.5t-43.5 -158.5q0 -103 40.5 -161.5t124.5 -58.5q81 0 125.5 52t44.5 124zM544 788v-788h-66v90h-3q-22 -45 -67 -74t-108 -29q-44 0 -82.5 13.5t-73 43.5t-54.5 85t-20 130q0 132 64 205t171 73q57 0 101 -26t66 -69
h2v346h70z" />
    <glyph glyph-name="e" unicode="e" 
d="M480 300v5q0 34 -7 63t-23 56t-46.5 42.5t-73.5 15.5q-75 0 -117.5 -49t-50.5 -133h318zM541 131q-15 -64 -70.5 -104t-137.5 -40q-121 0 -181.5 72t-60.5 199q0 123 63 201t177 78q58 0 102 -21t68.5 -57t36.5 -78.5t12 -91.5v-43h-390q8 -203 175 -203q64 0 96.5 27.5
t43.5 60.5h66z" />
    <glyph glyph-name="f" unicode="f" 
d="M343 467v-467h-69v467h-195v57h195v109q0 77 46 115.5t124 38.5q58 0 111 -16v-59q-53 16 -110 16q-53 0 -77.5 -22.5t-24.5 -77.5v-104h212v-57h-212z" />
    <glyph glyph-name="g" unicode="g" 
d="M480 230v73q0 74 -44.5 126t-125.5 52q-82 0 -124.5 -57.5t-42.5 -154.5q0 -211 168 -211q77 0 123 50.5t46 121.5zM313 -199q-93 0 -151 37t-69 106h68q21 -87 153 -87q165 0 165 165v83h-2q-25 -47 -73 -75t-111 -28q-41 0 -78.5 14t-71 44t-53 83.5t-19.5 125.5
q0 128 65 198t170 70q65 0 110 -29.5t64 -72.5h2v89h66v-503q0 -110 -64 -165t-171 -55z" />
    <glyph glyph-name="h" unicode="h" 
d="M530 0h-70v335q0 74 -23 104q-29 39 -94 39q-78 0 -118 -48t-40 -121v-309h-69v788h69v-356h2q47 105 171 105q172 0 172 -186v-351z" />
    <glyph glyph-name="i" unicode="i" 
d="M267 634v114h111v-114h-111zM563 0h-464v57h196v411h-168v56h236v-467h200v-57z" />
    <glyph glyph-name="j" unicode="j" 
d="M435 634h-111v114h111v-114zM251 -197q-55 0 -110 15v61q50 -15 106 -15q55 0 80.5 25.5t25.5 81.5v496h-212v57h279v-561q0 -78 -45.5 -119t-123.5 -41z" />
    <glyph glyph-name="k" unicode="k" 
d="M206 168v-168h-67v788h67v-537l257 273h83l-191 -201l225 -323h-82l-191 275z" />
    <glyph glyph-name="l" unicode="l" 
d="M558 0h-466v57h197v674h-168v57h237v-731h200v-57z" />
    <glyph glyph-name="m" unicode="m" 
d="M65 0v524h59v-78h3q26 91 114 91q45 0 71 -25.5t33 -68.5h3q25 94 116 94q113 0 113 -144v-393h-69v378q0 50 -13.5 75.5t-51.5 25.5q-45 0 -66.5 -41t-21.5 -111v-327h-68v379q0 49 -14 74.5t-51 25.5q-89 0 -89 -151v-328h-68z" />
    <glyph glyph-name="n" unicode="n" 
d="M460 0v334q0 75 -23 105q-29 39 -94 39q-78 0 -118 -48t-40 -121v-309h-69v524h65v-93h2q50 106 175 106q172 0 172 -186v-351h-70z" />
    <glyph glyph-name="o" unicode="o" 
d="M320 -13q-116 0 -177.5 73.5t-61.5 201.5t62 201.5t177 73.5q116 0 177.5 -73.5t61.5 -201.5t-62 -201.5t-177 -73.5zM320 482q-83 0 -126 -58t-43 -162q0 -103 42.5 -161.5t126.5 -58.5t126.5 58t42.5 162t-43 162t-126 58z" />
    <glyph glyph-name="p" unicode="p" 
d="M165 228q0 -77 44 -131t125 -54t123.5 59.5t42.5 165.5q0 97 -38.5 155t-125.5 58q-80 0 -125.5 -52t-45.5 -125v-76zM97 -188v712h66v-93h2q57 106 184 106q96 0 159 -64t63 -205q0 -136 -66.5 -208.5t-166.5 -72.5q-60 0 -106.5 30t-62.5 70h-2v-275h-70z" />
    <glyph glyph-name="q" unicode="q" 
d="M544 524v-712h-70v274h-3q-21 -42 -65 -70.5t-106 -28.5q-44 0 -82.5 13.5t-73 43t-54.5 85t-20 130.5q0 132 64 205t172 73q60 0 105 -27t64 -74h2v88h67zM306 43q81 0 125.5 52t44.5 124v82q0 76 -44.5 128t-119.5 52q-84 0 -127.5 -59.5t-43.5 -158.5
q0 -103 40.5 -161.5t124.5 -58.5z" />
    <glyph glyph-name="r" unicode="r" 
d="M422 469q-88 0 -139.5 -55t-51.5 -158v-256h-70v524h65v-127h2q45 137 205 137q68 0 113 -23v-66q-58 24 -124 24z" />
    <glyph glyph-name="s" unicode="s" 
d="M522 398h-67q-18 85 -133 85q-59 0 -92.5 -24t-33.5 -69q0 -41 24 -61t71 -26l90 -12q82 -11 117.5 -45.5t35.5 -96.5q0 -75 -55.5 -118.5t-162.5 -43.5q-195 0 -212 160h67q12 -106 145 -106q72 0 111 26.5t39 76.5q0 39 -22 58.5t-79 27.5l-91 13q-70 10 -107 43.5
t-37 99.5t50 108.5t143 42.5q90 0 140.5 -36.5t58.5 -102.5z" />
    <glyph glyph-name="t" unicode="t" 
d="M254 140v327h-193v57h136q36 0 48 13t12 50v98h66v-161h218v-57h-218v-326q0 -93 102 -93q57 0 116 19v-59q-56 -20 -119 -20q-90 0 -129 39t-39 113z" />
    <glyph glyph-name="u" unicode="u" 
d="M180 524v-335q0 -77 23 -107q29 -37 95 -37q76 0 116 52.5t40 143.5v283h69v-524h-65v97h-2q-21 -48 -65 -79t-107 -31q-173 0 -173 179v358h69z" />
    <glyph glyph-name="v" unicode="v" 
d="M281 0l-210 524h71l147 -370l31 -86h5q15 48 30 86l147 370h67l-210 -524h-78z" />
    <glyph glyph-name="w" unicode="w" 
d="M148 0l-109 524h66l74 -386l9 -67h4q5 41 11 67l82 386h73l81 -386l11 -67h4q5 45 9 67l73 386h65l-109 -524h-80l-73 342l-17 97h-4q-8 -53 -17 -97l-72 -342h-81z" />
    <glyph glyph-name="x" unicode="x" 
d="M80 0l200 271l-185 253h79l146 -201h4l143 201h72l-181 -250l201 -274h-81l-160 222h-3l-162 -222h-73z" />
    <glyph glyph-name="y" unicode="y" 
d="M293 -1l-207 525h73l140 -364l29 -82h3q14 43 29 83l136 363h70l-221 -566q-35 -89 -74.5 -123t-107.5 -34q-32 0 -76 11v58q44 -11 74 -11q46 0 69 21t45 75z" />
    <glyph glyph-name="z" unicode="z" 
d="M116 466v58h414v-59l-352 -407h360v-58h-439v61l350 405h-333z" />
    <glyph glyph-name="braceleft" unicode="{" 
d="M181 298h-43v63h43q47 0 65 18t18 61v194q0 79 48 116.5t156 37.5h21v-56q-97 0 -128 -23t-31 -87v-173q0 -106 -81 -118v-4q81 -12 81 -118v-173q0 -64 31 -87t128 -23v-56h-21q-109 0 -156.5 36t-47.5 117v196q0 43 -18 61t-65 18z" />
    <glyph glyph-name="bar" unicode="|" 
d="M289 -130v918h61v-918h-61z" />
    <glyph glyph-name="braceright" unicode="}" 
d="M459 360h43v-63h-43q-47 0 -65 -18t-18 -61v-197q0 -78 -47.5 -114.5t-156.5 -36.5h-21v56q97 0 128 23t31 87v173q0 106 81 118v4q-81 12 -81 118v173q0 64 -31 87t-128 23v56h21q109 0 156.5 -36t47.5 -117v-196q0 -43 18 -61t65 -18z" />
    <glyph glyph-name="asciitilde" unicode="~" 
d="M100 297q-1 57 30 92t81 35q40 0 118.5 -34.5t100.5 -34.5q49 0 53 70h55q0 -57 -30.5 -92t-80.5 -35q-39 0 -116.5 34t-102.5 34q-51 0 -54 -69h-54z" />
    <glyph glyph-name="uni00A0" unicode="&#xa0;" 
 />
    <glyph glyph-name="exclamdown" unicode="&#xa1;" 
d="M352 379l10 -567h-76l10 567h56zM269 600h110v-115h-110v115z" />
    <glyph glyph-name="cent" unicode="&#xa2;" 
d="M479 161h67q-11 -78 -61 -122.5t-126 -50.5v-104h-54v104q-100 10 -152 81.5t-52 188.5q0 113 54 189t150 89v99h54v-98q74 -4 125.5 -43.5t60.5 -115.5h-69q-5 40 -35 69.5t-82 34.5v-439q98 11 120 118zM305 44v436q-63 -13 -98 -70t-35 -147q0 -198 133 -219z" />
    <glyph glyph-name="sterling" unicode="&#xa3;" 
d="M573 61v-61h-492v57l42 34q32 26 50 47.5t27.5 49t5.5 60.5t-20 79h-115v55h95l-16 42q-39 105 -18 178t79.5 111.5t137.5 38.5q106 0 163.5 -58t58.5 -158h-68q-3 69 -38 114t-114 45q-61 0 -101 -28.5t-51 -85.5t20 -143l20 -56h234v-55h-215q23 -90 7 -143.5
t-73 -100.5l-26 -20v-2h407z" />
    <glyph glyph-name="currency" unicode="&#xa4;" 
d="M190 346q0 -56 37 -95t92 -39t92 39t37 95q0 57 -37 96t-92 39t-92 -39t-37 -96zM502 120l-77 78q-35 -24 -76 -31v-104h-60v104q-41 7 -78 31l-78 -79l-42 41l80 79q-25 39 -32 78h-102v60h103q8 42 31 75l-77 78l42 42l76 -77q38 24 77 31v104h60v-104q41 -7 77 -32
l81 81l41 -41l-81 -81q23 -36 30 -76h105v-60h-104q-7 -39 -31 -77l77 -77z" />
    <glyph glyph-name="yen" unicode="&#xa5;" 
d="M287 0v174h-201v54h201v97h-203v55h192l-211 361h78l176 -319h2l181 319h73l-212 -361h188v-55h-198v-97h200v-54h-200v-174h-66z" />
    <glyph glyph-name="brokenbar" unicode="&#xa6;" 
d="M350 788v-404h-61v404h61zM350 -130h-61v442h61v-442z" />
    <glyph glyph-name="section" unicode="&#xa7;" 
d="M149 370q0 -39 17.5 -61t61.5 -43l132 -61q29 -13 53 -27q84 22 84 95q0 35 -18.5 58.5t-63.5 44.5l-130 59q-16 7 -51 27q-37 -8 -61 -32.5t-24 -59.5zM81 361q0 97 106 135v2q-41 38 -41 101q0 67 51 109.5t135 42.5t133.5 -42.5t51.5 -116.5h-67q-8 105 -119 105
q-56 0 -87 -25.5t-31 -67.5q0 -40 17.5 -59.5t61.5 -39.5l156 -72q65 -30 91 -64t26 -84q0 -103 -108 -141v-3q45 -38 45 -101q0 -69 -49.5 -110.5t-144.5 -41.5q-100 0 -150 46.5t-53 126.5h66q14 -117 141 -117q121 0 121 91q0 39 -19 60t-71 45l-138 63q-67 30 -95.5 64
t-28.5 94z" />
    <glyph glyph-name="dieresis" unicode="&#xa8;" 
d="M164 634v112h109v-112h-109zM473 634h-108v112h108v-112z" />
    <glyph glyph-name="copyright" unicode="&#xa9;" 
d="M50 340v82q0 164 65 259.5t205 95.5t205 -96t65 -259v-82q0 -166 -65 -261t-205 -95q-270 0 -270 356zM104 422v-81q0 -311 216 -311t216 311v81q0 308 -216 308t-216 -308zM449 302q-4 -69 -36 -105t-86 -36q-72 0 -105 50t-33 167q0 119 35 171.5t103 52.5
q52 0 85.5 -32t34.5 -101h-58q-2 82 -63 82q-77 0 -77 -170q0 -94 18 -131.5t61 -37.5q58 0 62 90h59z" />
    <glyph glyph-name="ordfeminine" unicode="&#xaa;" 
d="M275 359q61 0 100 40.5t39 110.5v10q-15 -1 -40 -2.5t-38 -2t-31.5 -2t-29 -3t-22.5 -4t-20 -6t-14 -7.5q-27 -19 -27 -57q0 -37 22 -57t61 -20zM413 386q-50 -80 -148 -80q-68 0 -104.5 33.5t-36.5 93.5q0 74 68 106q10 5 21.5 8.5t26.5 6.5t27 4.5t33.5 3.5t34 2.5
t39.5 2t40 2.5v23q0 108 -105 108q-47 0 -73 -22t-30 -57h-63q3 57 49.5 93.5t120.5 36.5q164 0 164 -164v-177q0 -25 8 -35.5t29 -10.5h16v-52h-19q-47 0 -68 17t-26 57h-4z" />
    <glyph glyph-name="guillemotleft" unicode="&#xab;" 
d="M436 464h70l-122 -205l125 -202h-72l-127 203zM243 464h69l-121 -205l124 -202h-71l-128 203z" />
    <glyph glyph-name="logicalnot" unicode="&#xac;" 
d="M548 131h-61v196h-395v61h456v-257z" />
    <glyph glyph-name="registered" unicode="&#xae;" 
d="M74 527q0 106 70 177.5t175 71.5q106 0 176.5 -71.5t70.5 -177.5q0 -105 -70.5 -176t-176.5 -71q-105 0 -175 71t-70 176zM319 318q87 0 144.5 60t57.5 149q0 90 -57.5 150.5t-144.5 60.5q-86 0 -143 -60.5t-57 -150.5q0 -89 57 -149t143 -60zM277 550h49q47 0 47 41
q0 17 -12.5 27t-32.5 10h-51v-78zM277 513v-105h-45v256h99q37 0 62.5 -18t25.5 -55q0 -61 -55 -73l58 -110h-51l-55 105h-39z" />
    <glyph glyph-name="macron" unicode="&#xaf;" 
d="M174 647v64h291v-64h-291z" />
    <glyph glyph-name="degree" unicode="&#xb0;" 
d="M113 551q0 89 58.5 148t147.5 59t148 -59t59 -148t-59 -148t-148 -59t-147.5 59t-58.5 148zM319 397q64 0 104 43.5t40 110.5q0 66 -40 110t-104 44q-63 0 -103.5 -44t-40.5 -110q0 -67 40.5 -110.5t103.5 -43.5z" />
    <glyph glyph-name="plusminus" unicode="&#xb1;" 
d="M350 341v-196h-61v196h-197v59h197v196h61v-196h198v-59h-198zM92 0v59h456v-59h-456z" />
    <glyph glyph-name="twosuperior" unicode="&#xb2;" 
d="M202 682h-61q0 84 50 132.5t128 48.5q80 0 126 -42t46 -107q0 -52 -24 -92t-85 -94l-94 -81l-71 -58v-2h283v-55h-371v47l196 173q59 51 80.5 83.5t21.5 76.5q0 45 -29.5 72t-78.5 27q-51 0 -83.5 -32t-33.5 -97z" />
    <glyph glyph-name="threesuperior" unicode="&#xb3;" 
d="M328 572h-53v52h50q47 0 73.5 27t26.5 68q0 42 -28.5 66.5t-75.5 24.5q-109 0 -110 -104h-64q0 66 46 111.5t130 45.5q76 0 121.5 -38t45.5 -99q0 -93 -94 -123v-2q108 -23 108 -128q0 -64 -51 -108t-134 -44q-90 0 -135 45.5t-48 112.5h63q4 -52 36.5 -79t87.5 -27
q50 0 83.5 28t33.5 73q0 48 -30.5 73t-81.5 25z" />
    <glyph glyph-name="acute" unicode="&#xb4;" 
d="M254 609l66 179h103l-110 -179h-59z" />
    <glyph glyph-name="paragraph" unicode="&#xb6;" 
d="M441 765h63v-765h-63v765zM291 403q-90 2 -143.5 48.5t-53.5 133.5q0 91 56 135.5t146 44.5h58v-765h-63v403z" />
    <glyph glyph-name="periodcentered" unicode="&#xb7;" 
d="M265 245v114h111v-114h-111z" />
    <glyph glyph-name="cedilla" unicode="&#xb8;" 
d="M328 -216q-42 0 -66 19t-27 50h60q8 -24 37 -24q20 0 31.5 11t11.5 31q0 19 -11 29.5t-30 10.5q-22 0 -36 -14h-55l59 136h44l-36 -79h36q40 0 63.5 -21t23.5 -59t-28 -64t-77 -26z" />
    <glyph glyph-name="onesuperior" unicode="&#xb9;" 
d="M495 332h-327v51h136v330h-129v47h39q54 0 76 21q23 20 23 75h53v-473h129v-51z" />
    <glyph glyph-name="ordmasculine" unicode="&#xba;" 
d="M318 305q-97 0 -147.5 60.5t-50.5 162.5q0 99 54 161t145 62q100 0 150.5 -60.5t50.5 -162.5q0 -100 -54 -161.5t-148 -61.5zM321 358q64 0 98 44t34 126q0 171 -135 171q-62 0 -97 -45t-35 -126q0 -170 135 -170z" />
    <glyph glyph-name="guillemotright" unicode="&#xbb;" 
d="M205 57h-71l122 205l-124 202h72l126 -203zM397 57h-69l121 205l-123 202h70l128 -203z" />
    <glyph glyph-name="onequarter" unicode="&#xbc;" horiz-adv-x="1920" 
d="M673 -40l570 820h64l-569 -820h-65zM1365 140h196v277h-4q-12 -26 -35 -59zM1705 88h-86v-128h-60v128h-257v48l247 347h70v-342h86v-53zM495 257h-327v51h136v330h-129v47h39q54 0 76 21q23 20 23 75h53v-473h129v-51z" />
    <glyph glyph-name="onehalf" unicode="&#xbd;" horiz-adv-x="1920" 
d="M643 -40l570 820h64l-569 -820h-65zM1382 310h-61q0 84 50 132.5t128 48.5q80 0 126 -42t46 -107q0 -52 -24 -92t-85 -94l-94 -81l-71 -58v-2h283v-55h-371v47l196 173q59 51 80.5 83.5t21.5 76.5q0 45 -29.5 72t-78.5 27q-51 0 -83.5 -32t-33.5 -97zM495 257h-327v51
h136v330h-129v47h39q54 0 76 21q23 20 23 75h53v-473h129v-51z" />
    <glyph glyph-name="threequarters" unicode="&#xbe;" horiz-adv-x="1920" 
d="M663 -40l570 820h64l-569 -820h-65zM1365 140h196v277h-4q-12 -26 -35 -59zM1705 88h-86v-128h-60v128h-257v48l247 347h70v-342h86v-53zM328 497h-53v52h50q47 0 73.5 27t26.5 68q0 42 -28.5 66.5t-75.5 24.5q-109 0 -110 -104h-64q0 66 46 111.5t130 45.5
q76 0 121.5 -38t45.5 -99q0 -93 -94 -123v-2q108 -23 108 -128q0 -64 -51 -108t-134 -44q-90 0 -135 45.5t-48 112.5h63q4 -52 36.5 -79t87.5 -27q50 0 83.5 28t33.5 73q0 48 -30.5 73t-81.5 25z" />
    <glyph glyph-name="questiondown" unicode="&#xbf;" 
d="M172 1q0 -64 41 -101.5t113 -37.5q79 0 124.5 50.5t43.5 140.5h65q4 -115 -62 -182.5t-172 -67.5q-109 0 -165.5 55.5t-56.5 135.5q0 69 26.5 111.5t81.5 91.5l34 31q38 34 46 52t8 67v37h63v-43q0 -64 -12.5 -89t-64.5 -70l-42 -37q-71 -59 -71 -144zM275 600h110v-115
h-110v115z" />
    <glyph glyph-name="Agrave" unicode="&#xc0;" 
d="M312 695q-11 -57 -25 -104l-83 -283h225l-83 284l-25 103h-9zM518 0l-72 250h-259l-73 -250h-71l229 765h93l229 -765h-76zM295 960l57 -133h-61l-98 133h102z" />
    <glyph glyph-name="Aacute" unicode="&#xc1;" 
d="M312 695q-11 -57 -25 -104l-83 -283h225l-83 284l-25 103h-9zM518 0l-72 250h-259l-73 -250h-71l229 765h93l229 -765h-76zM293 827l57 133h102l-98 -133h-61z" />
    <glyph glyph-name="Acircumflex" unicode="&#xc2;" 
d="M312 695q-11 -57 -25 -104l-83 -283h225l-83 284l-25 103h-9zM518 0l-72 250h-259l-73 -250h-71l229 765h93l229 -765h-76zM360 960l107 -133h-69l-80 76h-2l-78 -76h-65l104 133h83z" />
    <glyph glyph-name="Atilde" unicode="&#xc3;" 
d="M312 695q-11 -57 -25 -104l-83 -283h225l-83 284l-25 103h-9zM518 0l-72 250h-259l-73 -250h-71l229 765h93l229 -765h-76zM141 827q2 60 28 97t78 37q36 0 82.5 -34.5t65.5 -34.5q25 0 35 17t13 55h58q-2 -59 -28 -97t-78 -38q-36 0 -83 35t-65 35q-24 0 -34.5 -17.5
t-12.5 -54.5h-59z" />
    <glyph glyph-name="Adieresis" unicode="&#xc4;" 
d="M312 695q-11 -57 -25 -104l-83 -283h225l-83 284l-25 103h-9zM518 0l-72 250h-259l-73 -250h-71l229 765h93l229 -765h-76zM365 834v113h108v-113h-108zM164 834v113h109v-113h-109z" />
    <glyph glyph-name="Aring" unicode="&#xc5;" 
d="M312 695q-11 -57 -25 -104l-83 -283h225l-83 284l-25 103h-9zM518 0l-72 250h-259l-73 -250h-71l229 765h93l229 -765h-76zM318 799q-55 0 -89.5 34.5t-34.5 88.5t34.5 89t89.5 35q56 0 90.5 -35t34.5 -89t-35 -88.5t-90 -34.5zM318 1002q-32 0 -52 -23t-20 -57
q0 -35 19.5 -56.5t52.5 -21.5t53 21.5t20 56.5t-19.5 57.5t-53.5 22.5z" />
    <glyph glyph-name="AE" unicode="&#xc6;" 
d="M330 296v407h-19l-140 -407h159zM152 239l-82 -239h-68l266 765h357v-62h-229v-283h192v-60h-192v-298h233v-62h-299v239h-178z" />
    <glyph glyph-name="Ccedilla" unicode="&#xc7;" 
d="M332 -217q-42 0 -66 19t-27 50h60q8 -24 37 -24q20 0 31.5 11t11.5 31q0 19 -11 29.5t-30 10.5q-22 0 -36 -14h-55l40 91q-225 32 -225 392q0 398 276 398q99 0 166 -60.5t76 -171.5h-72q-8 73 -49.5 123.5t-121.5 50.5q-110 0 -155 -84.5t-45 -255.5q0 -169 48.5 -253
t153.5 -84q79 0 120.5 52.5t48.5 127.5h70q-9 -108 -74.5 -173t-168.5 -65h-7l-14 -31h36q40 0 63.5 -21t23.5 -59t-28 -64t-77 -26z" />
    <glyph glyph-name="Egrave" unicode="&#xc8;" 
d="M320 960l57 -133h-61l-98 133h102zM106 0v765h446v-62h-375v-283h330v-60h-330v-298h379v-62h-450z" />
    <glyph glyph-name="Eacute" unicode="&#xc9;" 
d="M295 827l57 133h102l-98 -133h-61zM106 0v765h446v-62h-375v-283h330v-60h-330v-298h379v-62h-450z" />
    <glyph glyph-name="Ecircumflex" unicode="&#xca;" 
d="M375 960l107 -133h-69l-80 76h-2l-78 -76h-65l104 133h83zM106 0v765h446v-62h-375v-283h330v-60h-330v-298h379v-62h-450z" />
    <glyph glyph-name="Edieresis" unicode="&#xcb;" 
d="M106 0v765h446v-62h-375v-283h330v-60h-330v-298h379v-62h-450zM388 834v113h108v-113h-108zM187 834v113h109v-113h-109z" />
    <glyph glyph-name="Igrave" unicode="&#xcc;" 
d="M355 707v-649h179v-58h-428v58h179v649h-179v58h428v-58h-179zM295 960l57 -133h-61l-98 133h102z" />
    <glyph glyph-name="Iacute" unicode="&#xcd;" 
d="M355 707v-649h179v-58h-428v58h179v649h-179v58h428v-58h-179zM296 827l57 133h102l-98 -133h-61z" />
    <glyph glyph-name="Icircumflex" unicode="&#xce;" 
d="M355 707v-649h179v-58h-428v58h179v649h-179v58h428v-58h-179zM360 960l107 -133h-69l-80 76h-2l-78 -76h-65l104 133h83z" />
    <glyph glyph-name="Idieresis" unicode="&#xcf;" 
d="M355 707v-649h179v-58h-428v58h179v649h-179v58h428v-58h-179zM367 834v113h108v-113h-108zM166 834v113h109v-113h-109z" />
    <glyph glyph-name="Eth" unicode="&#xd0;" 
d="M258 0h-172v360h-75v60h75v345h166q149 0 242 -92t93 -285q0 -197 -91 -292.5t-238 -95.5zM157 62h95q260 0 260 323q0 163 -70.5 241t-185.5 78h-99v-284h197v-60h-197v-298z" />
    <glyph glyph-name="Ntilde" unicode="&#xd1;" 
d="M157 827q2 60 28 97t78 37q36 0 82.5 -34.5t65.5 -34.5q25 0 35 17t13 55h58q-2 -59 -28 -97t-78 -38q-36 0 -83 35t-65 35q-24 0 -34.5 -17.5t-12.5 -54.5h-59zM80 0v765h97l276 -590q11 -24 20 -47.5t13 -35.5l3 -11h6v684h65v-765h-97l-271 578q-12 25 -22.5 51.5
t-15.5 40.5l-4 14h-5v-684h-65z" />
    <glyph glyph-name="Ograve" unicode="&#xd2;" 
d="M297 960l57 -133h-61l-98 133h102zM55 380q0 396 266 396q130 0 197 -92t67 -304q0 -396 -266 -396q-131 0 -197.5 92t-66.5 304zM320 41q98 0 144 80t46 259q0 184 -45 261.5t-145 77.5q-97 0 -143.5 -80t-46.5 -259q0 -178 45.5 -258.5t144.5 -80.5z" />
    <glyph glyph-name="Oacute" unicode="&#xd3;" 
d="M288 827l57 133h102l-98 -133h-61zM55 380q0 396 266 396q130 0 197 -92t67 -304q0 -396 -266 -396q-131 0 -197.5 92t-66.5 304zM320 41q98 0 144 80t46 259q0 184 -45 261.5t-145 77.5q-97 0 -143.5 -80t-46.5 -259q0 -178 45.5 -258.5t144.5 -80.5z" />
    <glyph glyph-name="Ocircumflex" unicode="&#xd4;" 
d="M360 960l107 -133h-69l-80 76h-2l-78 -76h-65l104 133h83zM55 380q0 396 266 396q130 0 197 -92t67 -304q0 -396 -266 -396q-131 0 -197.5 92t-66.5 304zM320 41q98 0 144 80t46 259q0 184 -45 261.5t-145 77.5q-97 0 -143.5 -80t-46.5 -259q0 -178 45.5 -258.5
t144.5 -80.5z" />
    <glyph glyph-name="Otilde" unicode="&#xd5;" 
d="M149 827q2 60 28 97t78 37q36 0 82.5 -34.5t65.5 -34.5q25 0 35 17t13 55h58q-2 -59 -28 -97t-78 -38q-36 0 -83 35t-65 35q-24 0 -34.5 -17.5t-12.5 -54.5h-59zM55 380q0 396 266 396q130 0 197 -92t67 -304q0 -396 -266 -396q-131 0 -197.5 92t-66.5 304zM320 41
q98 0 144 80t46 259q0 184 -45 261.5t-145 77.5q-97 0 -143.5 -80t-46.5 -259q0 -178 45.5 -258.5t144.5 -80.5z" />
    <glyph glyph-name="Odieresis" unicode="&#xd6;" 
d="M367 834v113h108v-113h-108zM166 834v113h109v-113h-109zM55 380q0 396 266 396q130 0 197 -92t67 -304q0 -396 -266 -396q-131 0 -197.5 92t-66.5 304zM320 41q98 0 144 80t46 259q0 184 -45 261.5t-145 77.5q-97 0 -143.5 -80t-46.5 -259q0 -178 45.5 -258.5
t144.5 -80.5z" />
    <glyph glyph-name="multiply" unicode="&#xd7;" 
d="M150 136l-43 43l170 171l-170 173l43 43l170 -173l169 172l43 -43l-170 -171l171 -174l-44 -43l-170 174z" />
    <glyph glyph-name="Oslash" unicode="&#xd8;" 
d="M320 719q-97 0 -144 -80.5t-47 -258.5q0 -133 23 -208l313 475q-44 72 -145 72zM320 41q99 0 145 80t46 259q0 138 -23 213l-313 -475q45 -77 145 -77zM585 380q0 -396 -266 -396q-119 0 -183 75l-55 -84h-59l84 128q-51 97 -51 277q0 396 266 396q116 0 180 -74l60 91
h59l-89 -134q54 -97 54 -279z" />
    <glyph glyph-name="Ugrave" unicode="&#xd9;" 
d="M303 960l57 -133h-61l-98 133h102zM75 247v518h71v-515q0 -100 41 -151.5t135 -51.5t133.5 51.5t39.5 151.5v515h70v-519q0 -261 -245 -261t-245 262z" />
    <glyph glyph-name="Uacute" unicode="&#xda;" 
d="M291 827l57 133h102l-98 -133h-61zM75 247v518h71v-515q0 -100 41 -151.5t135 -51.5t133.5 51.5t39.5 151.5v515h70v-519q0 -261 -245 -261t-245 262z" />
    <glyph glyph-name="Ucircumflex" unicode="&#xdb;" 
d="M363 960l107 -133h-69l-80 76h-2l-78 -76h-65l104 133h83zM75 247v518h71v-515q0 -100 41 -151.5t135 -51.5t133.5 51.5t39.5 151.5v515h70v-519q0 -261 -245 -261t-245 262z" />
    <glyph glyph-name="Udieresis" unicode="&#xdc;" 
d="M75 247v518h71v-515q0 -100 41 -151.5t135 -51.5t133.5 51.5t39.5 151.5v515h70v-519q0 -261 -245 -261t-245 262zM370 834v113h108v-113h-108zM169 834v113h109v-113h-109z" />
    <glyph glyph-name="Yacute" unicode="&#xdd;" 
d="M285 0v337l-243 428h80l200 -365h1l202 365h74l-243 -427v-338h-71zM300 827l57 133h102l-98 -133h-61z" />
    <glyph glyph-name="Thorn" unicode="&#xde;" 
d="M321 177h-135v-177h-70v765h70v-166h142q112 0 175.5 -50.5t63.5 -159.5q0 -105 -65 -158.5t-181 -53.5zM330 237q83 2 124 38.5t41 113.5q0 81 -41 115.5t-126 34.5h-142v-302h144z" />
    <glyph glyph-name="germandbls" unicode="&#xdf;" 
d="M119 0v566q0 112 58.5 164.5t144.5 52.5q93 0 149.5 -49t56.5 -143q0 -127 -113 -169v-2q68 -12 111.5 -60.5t43.5 -135.5q0 -109 -68 -166.5t-180 -57.5h-35v58h35q82 0 129.5 40t47.5 123q0 78 -45 121t-129 43h-20v61h19q61 0 97 38.5t36 103.5q0 68 -36.5 103
t-97.5 35q-62 0 -98.5 -40t-36.5 -128v-558h-69z" />
    <glyph glyph-name="agrave" unicode="&#xe0;" 
d="M163 143q0 -46 29.5 -70.5t80.5 -24.5q66 0 115.5 49t49.5 139v22q-106 -6 -159.5 -14.5t-77.5 -25.5q-38 -27 -38 -75zM439 101q-23 -52 -69 -80.5t-109 -28.5q-77 0 -122.5 39.5t-45.5 108.5q0 86 74 126q64 35 272 46v22q0 75 -28 111t-101 36q-61 0 -92.5 -28
t-36.5 -70h-67q6 66 56.5 109.5t138.5 44.5q196 0 196 -199v-234q0 -27 9.5 -37.5t34.5 -10.5h19v-56h-24q-56 0 -78 23.5t-24 77.5h-3zM353 609h-58l-111 179h104z" />
    <glyph glyph-name="aacute" unicode="&#xe1;" 
d="M163 143q0 -46 29.5 -70.5t80.5 -24.5q66 0 115.5 49t49.5 139v22q-106 -6 -159.5 -14.5t-77.5 -25.5q-38 -27 -38 -75zM439 101q-23 -52 -69 -80.5t-109 -28.5q-77 0 -122.5 39.5t-45.5 108.5q0 86 74 126q64 35 272 46v22q0 75 -28 111t-101 36q-61 0 -92.5 -28
t-36.5 -70h-67q6 66 56.5 109.5t138.5 44.5q196 0 196 -199v-234q0 -27 9.5 -37.5t34.5 -10.5h19v-56h-24q-56 0 -78 23.5t-24 77.5h-3zM282 609l66 179h103l-110 -179h-59z" />
    <glyph glyph-name="acircumflex" unicode="&#xe2;" 
d="M163 143q0 -46 29.5 -70.5t80.5 -24.5q66 0 115.5 49t49.5 139v22q-106 -6 -159.5 -14.5t-77.5 -25.5q-38 -27 -38 -75zM439 101q-23 -52 -69 -80.5t-109 -28.5q-77 0 -122.5 39.5t-45.5 108.5q0 86 74 126q64 35 272 46v22q0 75 -28 111t-101 36q-61 0 -92.5 -28
t-36.5 -70h-67q6 66 56.5 109.5t138.5 44.5q196 0 196 -199v-234q0 -27 9.5 -37.5t34.5 -10.5h19v-56h-24q-56 0 -78 23.5t-24 77.5h-3zM363 788l107 -179h-66l-84 122h-4l-83 -122h-59l104 179h85z" />
    <glyph glyph-name="atilde" unicode="&#xe3;" 
d="M163 143q0 -46 29.5 -70.5t80.5 -24.5q66 0 115.5 49t49.5 139v22q-106 -6 -159.5 -14.5t-77.5 -25.5q-38 -27 -38 -75zM439 101q-23 -52 -69 -80.5t-109 -28.5q-77 0 -122.5 39.5t-45.5 108.5q0 86 74 126q64 35 272 46v22q0 75 -28 111t-101 36q-61 0 -92.5 -28
t-36.5 -70h-67q6 66 56.5 109.5t138.5 44.5q196 0 196 -199v-234q0 -27 9.5 -37.5t34.5 -10.5h19v-56h-24q-56 0 -78 23.5t-24 77.5h-3zM141 623q1 59 27 97.5t77 38.5q28 0 55.5 -17.5t50.5 -35t41 -17.5q24 0 35 17.5t13 54.5h57q-1 -59 -27.5 -97t-76.5 -38q-28 0 -56 18
t-51 35.5t-39 17.5q-45 0 -48 -74h-58z" />
    <glyph glyph-name="adieresis" unicode="&#xe4;" 
d="M163 143q0 -46 29.5 -70.5t80.5 -24.5q66 0 115.5 49t49.5 139v22q-106 -6 -159.5 -14.5t-77.5 -25.5q-38 -27 -38 -75zM439 101q-23 -52 -69 -80.5t-109 -28.5q-77 0 -122.5 39.5t-45.5 108.5q0 86 74 126q64 35 272 46v22q0 75 -28 111t-101 36q-61 0 -92.5 -28
t-36.5 -70h-67q6 66 56.5 109.5t138.5 44.5q196 0 196 -199v-234q0 -27 9.5 -37.5t34.5 -10.5h19v-56h-24q-56 0 -78 23.5t-24 77.5h-3zM164 633v112h109v-112h-109zM473 633h-108v112h108v-112z" />
    <glyph glyph-name="aring" unicode="&#xe5;" 
d="M163 143q0 -46 29.5 -70.5t80.5 -24.5q66 0 115.5 49t49.5 139v22q-106 -6 -159.5 -14.5t-77.5 -25.5q-38 -27 -38 -75zM439 101q-23 -52 -69 -80.5t-109 -28.5q-77 0 -122.5 39.5t-45.5 108.5q0 86 74 126q64 35 272 46v22q0 75 -28 111t-101 36q-61 0 -92.5 -28
t-36.5 -70h-67q6 66 56.5 109.5t138.5 44.5q196 0 196 -199v-234q0 -27 9.5 -37.5t34.5 -10.5h19v-56h-24q-56 0 -78 23.5t-24 77.5h-3zM191 708q0 54 34.5 89.5t89.5 35.5q56 0 90.5 -35t34.5 -90q0 -54 -35 -88.5t-90 -34.5t-89.5 34.5t-34.5 88.5zM315 630q33 0 53 22
t20 56q0 35 -19.5 57.5t-53.5 22.5q-33 0 -52.5 -22.5t-19.5 -57.5q0 -34 19.5 -56t52.5 -22z" />
    <glyph glyph-name="ae" unicode="&#xe6;" 
d="M542 300v7q0 85 -20 129.5t-77 44.5q-56 0 -78.5 -46.5t-24.5 -134.5h200zM167 45q50 0 80.5 45t30.5 123v36q-80 1 -110.5 -4t-49.5 -20q-33 -25 -33 -81q0 -99 82 -99zM603 131q-11 -66 -51 -103.5t-104 -37.5q-112 0 -142 112h-3q-41 -112 -148 -112q-63 0 -100.5 40
t-37.5 109q0 47 19.5 82t51.5 52q31 17 67.5 22.5t122.5 5.5v66q0 115 -89 115q-44 0 -67 -27t-24 -70h-62q1 65 41 108.5t112 43.5q99 0 128 -88h4q36 88 132 88q156 0 156 -233v-56l-267 -1q1 -105 24.5 -153.5t83.5 -48.5q73 0 89 86h64z" />
    <glyph glyph-name="ccedilla" unicode="&#xe7;" 
d="M331 -216q-42 0 -66 19t-27 50h60q8 -24 37 -24q20 0 31.5 11t11.5 31q0 19 -11 29.5t-30 10.5q-22 0 -36 -14h-55l41 94q-94 14 -141.5 83.5t-48.5 184.5q0 125 64.5 202t178.5 77q80 0 139 -39.5t71 -120.5h-70q-7 42 -43.5 72.5t-97.5 30.5q-81 0 -125 -57.5
t-44 -159.5q0 -221 166 -221q67 0 101.5 34t44.5 84h70q-13 -83 -71.5 -128.5t-145.5 -45.5h-7l-15 -33h36q40 0 63.5 -21t23.5 -59t-28 -64t-77 -26z" />
    <glyph glyph-name="egrave" unicode="&#xe8;" 
d="M480 300v5q0 34 -7 63t-23 56t-46.5 42.5t-73.5 15.5q-75 0 -117.5 -49t-50.5 -133h318zM541 131q-15 -64 -70.5 -104t-137.5 -40q-121 0 -181.5 72t-60.5 199q0 123 63 201t177 78q58 0 102 -21t68.5 -57t36.5 -78.5t12 -91.5v-43h-390q8 -203 175 -203q64 0 96.5 27.5
t43.5 60.5h66zM363 609h-58l-111 179h104z" />
    <glyph glyph-name="eacute" unicode="&#xe9;" 
d="M295 609l66 179h103l-110 -179h-59zM480 300v5q0 34 -7 63t-23 56t-46.5 42.5t-73.5 15.5q-75 0 -117.5 -49t-50.5 -133h318zM541 131q-15 -64 -70.5 -104t-137.5 -40q-121 0 -181.5 72t-60.5 199q0 123 63 201t177 78q58 0 102 -21t68.5 -57t36.5 -78.5t12 -91.5v-43
h-390q8 -203 175 -203q64 0 96.5 27.5t43.5 60.5h66z" />
    <glyph glyph-name="ecircumflex" unicode="&#xea;" 
d="M376 788l107 -179h-66l-84 122h-4l-83 -122h-59l104 179h85zM480 300v5q0 34 -7 63t-23 56t-46.5 42.5t-73.5 15.5q-75 0 -117.5 -49t-50.5 -133h318zM541 131q-15 -64 -70.5 -104t-137.5 -40q-121 0 -181.5 72t-60.5 199q0 123 63 201t177 78q58 0 102 -21t68.5 -57
t36.5 -78.5t12 -91.5v-43h-390q8 -203 175 -203q64 0 96.5 27.5t43.5 60.5h66z" />
    <glyph glyph-name="edieresis" unicode="&#xeb;" 
d="M177 633v112h109v-112h-109zM486 633h-108v112h108v-112zM480 300v5q0 34 -7 63t-23 56t-46.5 42.5t-73.5 15.5q-75 0 -117.5 -49t-50.5 -133h318zM541 131q-15 -64 -70.5 -104t-137.5 -40q-121 0 -181.5 72t-60.5 199q0 123 63 201t177 78q58 0 102 -21t68.5 -57
t36.5 -78.5t12 -91.5v-43h-390q8 -203 175 -203q64 0 96.5 27.5t43.5 60.5h66z" />
    <glyph glyph-name="igrave" unicode="&#xec;" 
d="M563 0h-464v57h196v411h-168v56h236v-467h200v-57zM351 609h-58l-111 179h104z" />
    <glyph glyph-name="iacute" unicode="&#xed;" 
d="M296 609l66 179h103l-110 -179h-59zM563 0h-464v57h196v411h-168v56h236v-467h200v-57z" />
    <glyph glyph-name="icircumflex" unicode="&#xee;" 
d="M356 788l107 -179h-66l-84 122h-4l-83 -122h-59l104 179h85zM563 0h-464v57h196v411h-168v56h236v-467h200v-57z" />
    <glyph glyph-name="idieresis" unicode="&#xef;" 
d="M160 633v112h109v-112h-109zM469 633h-108v112h108v-112zM563 0h-464v57h196v411h-168v56h236v-467h200v-57z" />
    <glyph glyph-name="eth" unicode="&#xf0;" 
d="M319 -13q-118 0 -179 75t-61 200q0 124 63.5 199.5t170.5 75.5q74 0 124 -48h5q-42 82 -117 159l-149 -53l-17 49l122 43q-48 42 -110 81l63 22q55 -31 112 -80l124 44l17 -49l-100 -35q79 -83 125 -185t46 -211q0 -135 -61.5 -211t-177.5 -76zM319 483q-82 0 -125.5 -59
t-43.5 -162q0 -104 43 -162t127 -58q82 0 124 58.5t42 162.5q0 114 -41.5 167t-125.5 53z" />
    <glyph glyph-name="ntilde" unicode="&#xf1;" 
d="M460 0v334q0 75 -23 105q-29 39 -94 39q-78 0 -118 -48t-40 -121v-309h-69v524h65v-93h2q50 106 175 106q172 0 172 -186v-351h-70zM148 623q1 59 27 97.5t77 38.5q28 0 55.5 -17.5t50.5 -35t41 -17.5q24 0 35 17.5t13 54.5h57q-1 -59 -27.5 -97t-76.5 -38q-28 0 -56 18
t-51 35.5t-39 17.5q-45 0 -48 -74h-58z" />
    <glyph glyph-name="ograve" unicode="&#xf2;" 
d="M320 -13q-116 0 -177.5 73.5t-61.5 201.5t62 201.5t177 73.5q116 0 177.5 -73.5t61.5 -201.5t-62 -201.5t-177 -73.5zM320 482q-83 0 -126 -58t-43 -162q0 -103 42.5 -161.5t126.5 -58.5t126.5 58t42.5 162t-43 162t-126 58zM350 609h-58l-111 179h104z" />
    <glyph glyph-name="oacute" unicode="&#xf3;" 
d="M283 609l66 179h103l-110 -179h-59zM320 -13q-116 0 -177.5 73.5t-61.5 201.5t62 201.5t177 73.5q116 0 177.5 -73.5t61.5 -201.5t-62 -201.5t-177 -73.5zM320 482q-83 0 -126 -58t-43 -162q0 -103 42.5 -161.5t126.5 -58.5t126.5 58t42.5 162t-43 162t-126 58z" />
    <glyph glyph-name="ocircumflex" unicode="&#xf4;" 
d="M365 788l107 -179h-66l-84 122h-4l-83 -122h-59l104 179h85zM320 -13q-116 0 -177.5 73.5t-61.5 201.5t62 201.5t177 73.5q116 0 177.5 -73.5t61.5 -201.5t-62 -201.5t-177 -73.5zM320 482q-83 0 -126 -58t-43 -162q0 -103 42.5 -161.5t126.5 -58.5t126.5 58t42.5 162
t-43 162t-126 58z" />
    <glyph glyph-name="otilde" unicode="&#xf5;" 
d="M320 -13q-116 0 -177.5 73.5t-61.5 201.5t62 201.5t177 73.5q116 0 177.5 -73.5t61.5 -201.5t-62 -201.5t-177 -73.5zM320 482q-83 0 -126 -58t-43 -162q0 -103 42.5 -161.5t126.5 -58.5t126.5 58t42.5 162t-43 162t-126 58zM146 623q1 59 27 97.5t77 38.5
q28 0 55.5 -17.5t50.5 -35t41 -17.5q24 0 35 17.5t13 54.5h57q-1 -59 -27.5 -97t-76.5 -38q-28 0 -56 18t-51 35.5t-39 17.5q-45 0 -48 -74h-58z" />
    <glyph glyph-name="odieresis" unicode="&#xf6;" 
d="M166 633v112h109v-112h-109zM475 633h-108v112h108v-112zM320 -13q-116 0 -177.5 73.5t-61.5 201.5t62 201.5t177 73.5q116 0 177.5 -73.5t61.5 -201.5t-62 -201.5t-177 -73.5zM320 482q-83 0 -126 -58t-43 -162q0 -103 42.5 -161.5t126.5 -58.5t126.5 58t42.5 162
t-43 162t-126 58z" />
    <glyph glyph-name="divide" unicode="&#xf7;" 
d="M264 484v111h111v-111h-111zM92 328v59h456v-59h-456zM375 119h-111v112h111v-112z" />
    <glyph glyph-name="oslash" unicode="&#xf8;" 
d="M320 483q-82 0 -125.5 -59t-43.5 -162q0 -89 26 -141l257 321q-41 41 -114 41zM320 42q83 0 125.5 58t42.5 162q0 85 -25 138l-255 -320q40 -38 112 -38zM559 262q0 -125 -63 -200t-177 -75q-89 0 -148 48l-44 -56h-63l73 91q-57 72 -57 192q0 125 63.5 200t176.5 75
q88 0 150 -49l43 54h64l-73 -91q55 -73 55 -189z" />
    <glyph glyph-name="ugrave" unicode="&#xf9;" 
d="M180 524v-335q0 -77 23 -107q29 -37 95 -37q76 0 116 52.5t40 143.5v283h69v-524h-65v97h-2q-21 -48 -65 -79t-107 -31q-173 0 -173 179v358h69zM354 609h-58l-111 179h104z" />
    <glyph glyph-name="uacute" unicode="&#xfa;" 
d="M288 609l66 179h103l-110 -179h-59zM180 524v-335q0 -77 23 -107q29 -37 95 -37q76 0 116 52.5t40 143.5v283h69v-524h-65v97h-2q-21 -48 -65 -79t-107 -31q-173 0 -173 179v358h69z" />
    <glyph glyph-name="ucircumflex" unicode="&#xfb;" 
d="M367 788l107 -179h-66l-84 122h-4l-83 -122h-59l104 179h85zM180 524v-335q0 -77 23 -107q29 -37 95 -37q76 0 116 52.5t40 143.5v283h69v-524h-65v97h-2q-21 -48 -65 -79t-107 -31q-173 0 -173 179v358h69z" />
    <glyph glyph-name="udieresis" unicode="&#xfc;" 
d="M168 633v112h109v-112h-109zM477 633h-108v112h108v-112zM180 524v-335q0 -77 23 -107q29 -37 95 -37q76 0 116 52.5t40 143.5v283h69v-524h-65v97h-2q-21 -48 -65 -79t-107 -31q-173 0 -173 179v358h69z" />
    <glyph glyph-name="yacute" unicode="&#xfd;" 
d="M293 -1l-207 525h73l140 -364l29 -82h3q14 43 29 83l136 363h70l-221 -566q-35 -89 -74.5 -123t-107.5 -34q-32 0 -76 11v58q44 -11 74 -11q46 0 69 21t45 75zM299 609l66 179h103l-110 -179h-59z" />
    <glyph glyph-name="thorn" unicode="&#xfe;" 
d="M165 226q0 -75 44 -129t124 -54q83 0 125 58.5t42 165.5q0 96 -39 155t-124 59q-81 0 -126.5 -51.5t-45.5 -125.5v-78zM98 -188v976h69v-355h2q22 48 70.5 76t110.5 28q94 0 157.5 -65t63.5 -204q0 -138 -65.5 -209.5t-166.5 -71.5q-62 0 -108 29.5t-62 70.5h-2v-275h-69
z" />
    <glyph glyph-name="ydieresis" unicode="&#xff;" 
d="M293 -1l-207 525h73l140 -364l29 -82h3q14 43 29 83l136 363h70l-221 -566q-35 -89 -74.5 -123t-107.5 -34q-32 0 -76 11v58q44 -11 74 -11q46 0 69 21t45 75zM179 633v112h109v-112h-109zM488 633h-108v112h108v-112z" />
    <glyph glyph-name="Amacron" unicode="&#x100;" 
d="M312 695q-11 -57 -25 -104l-83 -283h225l-83 284l-25 103h-9zM518 0l-72 250h-259l-73 -250h-71l229 765h93l229 -765h-76zM174 855v64h291v-64h-291z" />
    <glyph glyph-name="amacron" unicode="&#x101;" 
d="M163 143q0 -46 29.5 -70.5t80.5 -24.5q66 0 115.5 49t49.5 139v22q-106 -6 -159.5 -14.5t-77.5 -25.5q-38 -27 -38 -75zM439 101q-23 -52 -69 -80.5t-109 -28.5q-77 0 -122.5 39.5t-45.5 108.5q0 86 74 126q64 35 272 46v22q0 75 -28 111t-101 36q-61 0 -92.5 -28
t-36.5 -70h-67q6 66 56.5 109.5t138.5 44.5q196 0 196 -199v-234q0 -27 9.5 -37.5t34.5 -10.5h19v-56h-24q-56 0 -78 23.5t-24 77.5h-3zM170 647v64h291v-64h-291z" />
    <glyph glyph-name="Abreve" unicode="&#x102;" 
d="M312 695q-11 -57 -25 -104l-83 -283h225l-83 284l-25 103h-9zM518 0l-72 250h-259l-73 -250h-71l229 765h93l229 -765h-76zM173 970h63q12 -81 88 -81q77 0 89 81h58q-6 -71 -46 -105.5t-104 -34.5t-103 34.5t-45 105.5z" />
    <glyph glyph-name="abreve" unicode="&#x103;" 
d="M163 143q0 -46 29.5 -70.5t80.5 -24.5q66 0 115.5 49t49.5 139v22q-106 -6 -159.5 -14.5t-77.5 -25.5q-38 -27 -38 -75zM439 101q-23 -52 -69 -80.5t-109 -28.5q-77 0 -122.5 39.5t-45.5 108.5q0 86 74 126q64 35 272 46v22q0 75 -28 111t-101 36q-61 0 -92.5 -28
t-36.5 -70h-67q6 66 56.5 109.5t138.5 44.5q196 0 196 -199v-234q0 -27 9.5 -37.5t34.5 -10.5h19v-56h-24q-56 0 -78 23.5t-24 77.5h-3zM177 785h61q0 -53 24.5 -79t66.5 -26t66.5 26t24.5 79h57q0 -82 -41.5 -123t-109.5 -41t-108.5 40.5t-40.5 123.5z" />
    <glyph glyph-name="Aogonek" unicode="&#x104;" 
d="M312 695q-11 -57 -25 -104l-83 -283h225l-83 284l-25 103h-9zM594 -188h-15q-127 0 -127 92q0 56 67 93l-73 253h-259l-73 -250h-71l229 765h93l229 -765q-78 -35 -78 -81q0 -28 18.5 -40t59.5 -13v-54z" />
    <glyph glyph-name="aogonek" unicode="&#x105;" 
d="M569 -134v-54h-16q-126 0 -126 92q0 65 79 97v3q-34 8 -48 30t-16 67h-3q-23 -52 -69 -80.5t-108 -28.5q-78 0 -123.5 39.5t-45.5 108.5q0 86 74 126q64 35 272 46v22q0 75 -28 111t-101 36q-61 0 -92.5 -28t-36.5 -70h-67q6 66 56.5 109.5t138.5 44.5q196 0 196 -199
v-233q0 -28 9.5 -38.5t34.5 -10.5h19v-56q-77 -36 -77 -83q0 -27 18.5 -38.5t59.5 -12.5zM163 143q0 -46 29.5 -70.5t80.5 -24.5q66 0 115.5 49t49.5 139v22q-106 -6 -159.5 -14.5t-77.5 -25.5q-38 -27 -38 -75z" />
    <glyph glyph-name="Cacute" unicode="&#x106;" 
d="M580 545h-72q-8 73 -49.5 123.5t-121.5 50.5q-110 0 -155 -84.5t-45 -255.5q0 -169 48.5 -253t153.5 -84q79 0 120.5 52.5t48.5 127.5h70q-9 -108 -74.5 -173t-168.5 -65q-133 0 -203 94.5t-70 300.5q0 398 276 398q99 0 166 -60.5t76 -171.5zM308 827l57 133h102
l-98 -133h-61z" />
    <glyph glyph-name="cacute" unicode="&#x107;" 
d="M303 609l66 179h103l-110 -179h-59zM550 378h-70q-7 42 -43.5 72.5t-97.5 30.5q-81 0 -125 -57.5t-44 -159.5q0 -221 166 -221q67 0 101.5 34t44.5 84h70q-13 -83 -71.5 -128.5t-145.5 -45.5q-117 0 -177 71.5t-61 200.5q0 125 64.5 202t178.5 77q80 0 139 -39.5
t71 -120.5z" />
    <glyph glyph-name="Ccircumflex" unicode="&#x108;" 
d="M377 960l107 -133h-69l-80 76h-2l-78 -76h-65l104 133h83zM580 545h-72q-8 73 -49.5 123.5t-121.5 50.5q-110 0 -155 -84.5t-45 -255.5q0 -169 48.5 -253t153.5 -84q79 0 120.5 52.5t48.5 127.5h70q-9 -108 -74.5 -173t-168.5 -65q-133 0 -203 94.5t-70 300.5
q0 398 276 398q99 0 166 -60.5t76 -171.5z" />
    <glyph glyph-name="ccircumflex" unicode="&#x109;" 
d="M377 788l107 -179h-66l-84 122h-4l-83 -122h-59l104 179h85zM550 378h-70q-7 42 -43.5 72.5t-97.5 30.5q-81 0 -125 -57.5t-44 -159.5q0 -221 166 -221q67 0 101.5 34t44.5 84h70q-13 -83 -71.5 -128.5t-145.5 -45.5q-117 0 -177 71.5t-61 200.5q0 125 64.5 202t178.5 77
q80 0 139 -39.5t71 -120.5z" />
    <glyph glyph-name="Cdotaccent" unicode="&#x10a;" 
d="M580 545h-72q-8 73 -49.5 123.5t-121.5 50.5q-110 0 -155 -84.5t-45 -255.5q0 -169 48.5 -253t153.5 -84q79 0 120.5 52.5t48.5 127.5h70q-9 -108 -74.5 -173t-168.5 -65q-133 0 -203 94.5t-70 300.5q0 398 276 398q99 0 166 -60.5t76 -171.5zM283 834v113h108v-113h-108
z" />
    <glyph glyph-name="cdotaccent" unicode="&#x10b;" 
d="M550 378h-70q-7 42 -43.5 72.5t-97.5 30.5q-81 0 -125 -57.5t-44 -159.5q0 -221 166 -221q67 0 101.5 34t44.5 84h70q-13 -83 -71.5 -128.5t-145.5 -45.5q-117 0 -177 71.5t-61 200.5q0 125 64.5 202t178.5 77q80 0 139 -39.5t71 -120.5zM280 634v114h111v-114h-111z" />
    <glyph glyph-name="Ccaron" unicode="&#x10c;" 
d="M298 827l-107 133h69l80 -76h2l78 76h65l-104 -133h-83zM580 545h-72q-8 73 -49.5 123.5t-121.5 50.5q-110 0 -155 -84.5t-45 -255.5q0 -169 48.5 -253t153.5 -84q79 0 120.5 52.5t48.5 127.5h70q-9 -108 -74.5 -173t-168.5 -65q-133 0 -203 94.5t-70 300.5
q0 398 276 398q99 0 166 -60.5t76 -171.5z" />
    <glyph glyph-name="ccaron" unicode="&#x10d;" 
d="M293 609l-107 179h65l84 -122h4l83 122h60l-104 -179h-85zM550 378h-70q-7 42 -43.5 72.5t-97.5 30.5q-81 0 -125 -57.5t-44 -159.5q0 -221 166 -221q67 0 101.5 34t44.5 84h70q-13 -83 -71.5 -128.5t-145.5 -45.5q-117 0 -177 71.5t-61 200.5q0 125 64.5 202t178.5 77
q80 0 139 -39.5t71 -120.5z" />
    <glyph glyph-name="Dcaron" unicode="&#x10e;" 
d="M253 827l-107 133h69l80 -76h2l78 76h65l-104 -133h-83zM78 0v765h178q71 0 130.5 -21t106.5 -64.5t73 -118t26 -173.5q0 -197 -91 -292.5t-238 -95.5h-185zM149 62h107q261 0 261 323q0 163 -71 241t-186 78h-111v-642z" />
    <glyph glyph-name="dcaron" unicode="&#x10f;" 
d="M456 219v82q0 76 -42 128t-112 52q-80 0 -121 -59.5t-41 -158.5q0 -102 38.5 -161t116.5 -59q77 0 119 52t42 124zM524 788v-788h-65v90h-4q-49 -103 -166 -103q-41 0 -78 13.5t-70 43.5t-52.5 85t-19.5 130q0 131 62.5 204.5t164.5 73.5q55 0 95 -24.5t61 -64.5h2v340
h70zM582 587l26 201h91l-68 -201h-49z" />
    <glyph glyph-name="Dcroat" unicode="&#x110;" 
d="M258 0h-172v360h-75v60h75v345h166q149 0 242 -92t93 -285q0 -197 -91 -292.5t-238 -95.5zM157 62h95q260 0 260 323q0 163 -70.5 241t-185.5 78h-99v-284h197v-60h-197v-298z" />
    <glyph glyph-name="dcroat" unicode="&#x111;" 
d="M476 218v82q0 76 -44 128t-119 52q-85 0 -128.5 -59.5t-43.5 -158.5q0 -103 40.5 -161.5t124.5 -58.5q81 0 125.5 52t44.5 124zM475 89q-22 -45 -67 -74t-108 -29q-44 0 -82.5 13.5t-73 43.5t-54.5 85t-20 130q0 132 64 205t171 73q57 0 101 -26t66 -69h2v188h-175v53
h175v105h70v-105h76v-53h-76v-630h-66v90h-3z" />
    <glyph glyph-name="Emacron" unicode="&#x112;" 
d="M106 0v765h446v-62h-375v-283h330v-60h-330v-298h379v-62h-450zM196 855v64h291v-64h-291z" />
    <glyph glyph-name="emacron" unicode="&#x113;" 
d="M480 300v5q0 34 -7 63t-23 56t-46.5 42.5t-73.5 15.5q-75 0 -117.5 -49t-50.5 -133h318zM541 131q-15 -64 -70.5 -104t-137.5 -40q-121 0 -181.5 72t-60.5 199q0 123 63 201t177 78q58 0 102 -21t68.5 -57t36.5 -78.5t12 -91.5v-43h-390q8 -203 175 -203q64 0 96.5 27.5
t43.5 60.5h66zM186 647v64h291v-64h-291z" />
    <glyph glyph-name="Ebreve" unicode="&#x114;" 
d="M106 0v765h446v-62h-375v-283h330v-60h-330v-298h379v-62h-450zM195 970h63q12 -81 88 -81q77 0 89 81h58q-6 -71 -46 -105.5t-104 -34.5t-103 34.5t-45 105.5z" />
    <glyph glyph-name="ebreve" unicode="&#x115;" 
d="M480 300v5q0 34 -7 63t-23 56t-46.5 42.5t-73.5 15.5q-75 0 -117.5 -49t-50.5 -133h318zM541 131q-15 -64 -70.5 -104t-137.5 -40q-121 0 -181.5 72t-60.5 199q0 123 63 201t177 78q58 0 102 -21t68.5 -57t36.5 -78.5t12 -91.5v-43h-390q8 -203 175 -203q64 0 96.5 27.5
t43.5 60.5h66zM181 785h61q0 -53 24.5 -79t66.5 -26t66.5 26t24.5 79h57q0 -82 -41.5 -123t-109.5 -41t-108.5 40.5t-40.5 123.5z" />
    <glyph glyph-name="Edotaccent" unicode="&#x116;" 
d="M289 834v113h108v-113h-108zM106 0v765h446v-62h-375v-283h330v-60h-330v-298h379v-62h-450z" />
    <glyph glyph-name="edotaccent" unicode="&#x117;" 
d="M480 300v5q0 34 -7 63t-23 56t-46.5 42.5t-73.5 15.5q-75 0 -117.5 -49t-50.5 -133h318zM541 131q-15 -64 -70.5 -104t-137.5 -40q-121 0 -181.5 72t-60.5 199q0 123 63 201t177 78q58 0 102 -21t68.5 -57t36.5 -78.5t12 -91.5v-43h-390q8 -203 175 -203q64 0 96.5 27.5
t43.5 60.5h66zM277 634v114h111v-114h-111z" />
    <glyph glyph-name="Eogonek" unicode="&#x118;" 
d="M527 -134v-54h-15q-127 0 -127 92q0 59 73 96h-352v765h446v-62h-375v-283h330v-60h-330v-298h379v-62h-29q-78 -35 -78 -81q0 -28 18.5 -40t59.5 -13z" />
    <glyph glyph-name="eogonek" unicode="&#x119;" 
d="M480 300v5q0 34 -7 63t-23 56t-46.5 42.5t-73.5 15.5q-75 0 -117.5 -49t-50.5 -133h318zM446 -134v-54h-15q-58 0 -91.5 23t-33.5 66q0 51 64 86v3q-21 -3 -37 -3q-121 0 -181.5 72t-60.5 199q0 123 63 201t177 78q58 0 102 -21t68.5 -57t36.5 -78.5t12 -91.5v-43h-390
q8 -203 175 -203q64 0 96.5 27.5t43.5 60.5h66q-19 -69 -83 -111q-44 -30 -65.5 -52.5t-21.5 -48.5q0 -28 18 -40.5t57 -12.5z" />
    <glyph glyph-name="Ecaron" unicode="&#x11a;" 
d="M292 827l-107 133h69l80 -76h2l78 76h65l-104 -133h-83zM106 0v765h446v-62h-375v-283h330v-60h-330v-298h379v-62h-450z" />
    <glyph glyph-name="ecaron" unicode="&#x11b;" 
d="M288 609l-107 179h65l84 -122h4l83 122h60l-104 -179h-85zM480 300v5q0 34 -7 63t-23 56t-46.5 42.5t-73.5 15.5q-75 0 -117.5 -49t-50.5 -133h318zM541 131q-15 -64 -70.5 -104t-137.5 -40q-121 0 -181.5 72t-60.5 199q0 123 63 201t177 78q58 0 102 -21t68.5 -57
t36.5 -78.5t12 -91.5v-43h-390q8 -203 175 -203q64 0 96.5 27.5t43.5 60.5h66z" />
    <glyph glyph-name="Gcircumflex" unicode="&#x11c;" 
d="M372 960l107 -133h-69l-80 76h-2l-78 -76h-65l104 133h83zM340 718q-107 0 -155 -85.5t-48 -255.5q0 -175 45 -255.5t150 -80.5q87 0 134 63.5t47 151.5v61h-187v61h254v-378h-63v113h-4q-19 -55 -68 -92t-122 -37q-129 0 -195 91t-66 304q0 200 73 298.5t205 98.5
q103 0 165 -61t69 -154h-71q-6 69 -47.5 113t-115.5 44z" />
    <glyph glyph-name="gcircumflex" unicode="&#x11d;" 
d="M362 788l107 -179h-66l-84 122h-4l-83 -122h-59l104 179h85zM480 230v73q0 74 -44.5 126t-125.5 52q-82 0 -124.5 -57.5t-42.5 -154.5q0 -211 168 -211q77 0 123 50.5t46 121.5zM313 -199q-93 0 -151 37t-69 106h68q21 -87 153 -87q165 0 165 165v83h-2q-25 -47 -73 -75
t-111 -28q-41 0 -78.5 14t-71 44t-53 83.5t-19.5 125.5q0 128 65 198t170 70q65 0 110 -29.5t64 -72.5h2v89h66v-503q0 -110 -64 -165t-171 -55z" />
    <glyph glyph-name="Gbreve" unicode="&#x11e;" 
d="M185 970h63q12 -81 88 -81q77 0 89 81h58q-6 -71 -46 -105.5t-104 -34.5t-103 34.5t-45 105.5zM340 718q-107 0 -155 -85.5t-48 -255.5q0 -175 45 -255.5t150 -80.5q87 0 134 63.5t47 151.5v61h-187v61h254v-378h-63v113h-4q-19 -55 -68 -92t-122 -37q-129 0 -195 91
t-66 304q0 200 73 298.5t205 98.5q103 0 165 -61t69 -154h-71q-6 69 -47.5 113t-115.5 44z" />
    <glyph glyph-name="gbreve" unicode="&#x11f;" 
d="M480 230v73q0 74 -44.5 126t-125.5 52q-82 0 -124.5 -57.5t-42.5 -154.5q0 -211 168 -211q77 0 123 50.5t46 121.5zM313 -199q-93 0 -151 37t-69 106h68q21 -87 153 -87q165 0 165 165v83h-2q-25 -47 -73 -75t-111 -28q-41 0 -78.5 14t-71 44t-53 83.5t-19.5 125.5
q0 128 65 198t170 70q65 0 110 -29.5t64 -72.5h2v89h66v-503q0 -110 -64 -165t-171 -55zM177 785h61q0 -53 24.5 -79t66.5 -26t66.5 26t24.5 79h57q0 -82 -41.5 -123t-109.5 -41t-108.5 40.5t-40.5 123.5z" />
    <glyph glyph-name="Gdotaccent" unicode="&#x120;" 
d="M278 834v113h108v-113h-108zM340 718q-107 0 -155 -85.5t-48 -255.5q0 -175 45 -255.5t150 -80.5q87 0 134 63.5t47 151.5v61h-187v61h254v-378h-63v113h-4q-19 -55 -68 -92t-122 -37q-129 0 -195 91t-66 304q0 200 73 298.5t205 98.5q103 0 165 -61t69 -154h-71
q-6 69 -47.5 113t-115.5 44z" />
    <glyph glyph-name="gdotaccent" unicode="&#x121;" 
d="M480 230v73q0 74 -44.5 126t-125.5 52q-82 0 -124.5 -57.5t-42.5 -154.5q0 -211 168 -211q77 0 123 50.5t46 121.5zM313 -199q-93 0 -151 37t-69 106h68q21 -87 153 -87q165 0 165 165v83h-2q-25 -47 -73 -75t-111 -28q-41 0 -78.5 14t-71 44t-53 83.5t-19.5 125.5
q0 128 65 198t170 70q65 0 110 -29.5t64 -72.5h2v89h66v-503q0 -110 -64 -165t-171 -55zM270 634v114h111v-114h-111z" />
    <glyph glyph-name="Gcommaaccent" unicode="&#x122;" 
d="M237 -202l36 149h107l-84 -149h-59zM340 718q-107 0 -155 -85.5t-48 -255.5q0 -175 45 -255.5t150 -80.5q87 0 134 63.5t47 151.5v61h-187v61h254v-378h-63v113h-4q-19 -55 -68 -92t-122 -37q-129 0 -195 91t-66 304q0 200 73 298.5t205 98.5q103 0 165 -61t69 -154h-71
q-6 69 -47.5 113t-115.5 44z" />
    <glyph glyph-name="gcommaaccent" unicode="&#x123;" 
d="M429 782l-41 -162h-106l88 162h59zM480 230v73q0 74 -44.5 126t-125.5 52q-82 0 -124.5 -57.5t-42.5 -154.5q0 -211 168 -211q77 0 123 50.5t46 121.5zM313 -199q-93 0 -151 37t-69 106h68q21 -87 153 -87q165 0 165 165v83h-2q-25 -47 -73 -75t-111 -28q-41 0 -78.5 14
t-71 44t-53 83.5t-19.5 125.5q0 128 65 198t170 70q65 0 110 -29.5t64 -72.5h2v89h66v-503q0 -110 -64 -165t-171 -55z" />
    <glyph glyph-name="Hcircumflex" unicode="&#x124;" 
d="M152 359v-359h-71v765h71v-345h336v345h71v-765h-71v359h-336zM360 960l107 -133h-69l-80 76h-2l-78 -76h-65l104 133h83z" />
    <glyph glyph-name="hcircumflex" unicode="&#x125;" 
d="M530 0h-70v335q0 74 -23 104q-29 39 -94 39q-78 0 -118 -48t-40 -121v-309h-69v788h69v-356h2q47 105 171 105q172 0 172 -186v-351zM377 960l107 -133h-69l-80 76h-2l-78 -76h-65l104 133h83z" />
    <glyph glyph-name="Hbar" unicode="&#x126;" 
d="M152 420h336v154h-336v-154zM152 359v-359h-71v574h-61v54h61v137h71v-137h336v137h71v-137h61v-54h-61v-574h-71v359h-336z" />
    <glyph glyph-name="hbar" unicode="&#x127;" 
d="M185 309v-309h-69v629h-77v53h77v106h69v-106h176v-53h-176v-197h2q47 105 171 105q172 0 172 -186v-351h-70v335q0 74 -23 104q-29 39 -94 39q-78 0 -118 -48t-40 -121z" />
    <glyph glyph-name="Itilde" unicode="&#x128;" 
d="M355 707v-649h179v-58h-428v58h179v649h-179v58h428v-58h-179zM149 827q2 60 28 97t78 37q36 0 82.5 -34.5t65.5 -34.5q25 0 35 17t13 55h58q-2 -59 -28 -97t-78 -38q-36 0 -83 35t-65 35q-24 0 -34.5 -17.5t-12.5 -54.5h-59z" />
    <glyph glyph-name="itilde" unicode="&#x129;" 
d="M563 0h-464v57h196v411h-168v56h236v-467h200v-57zM140 623q1 59 27 97.5t77 38.5q28 0 55.5 -17.5t50.5 -35t41 -17.5q24 0 35 17.5t13 54.5h57q-1 -59 -27.5 -97t-76.5 -38q-28 0 -56 18t-51 35.5t-39 17.5q-45 0 -48 -74h-58z" />
    <glyph glyph-name="Imacron" unicode="&#x12a;" 
d="M355 707v-649h179v-58h-428v58h179v649h-179v58h428v-58h-179zM175 855v64h291v-64h-291z" />
    <glyph glyph-name="imacron" unicode="&#x12b;" 
d="M563 0h-464v57h196v411h-168v56h236v-467h200v-57zM165 647v64h291v-64h-291z" />
    <glyph glyph-name="Ibreve" unicode="&#x12c;" 
d="M355 707v-649h179v-58h-428v58h179v649h-179v58h428v-58h-179zM173 970h63q12 -81 88 -81q77 0 89 81h58q-6 -71 -46 -105.5t-104 -34.5t-103 34.5t-45 105.5z" />
    <glyph glyph-name="ibreve" unicode="&#x12d;" 
d="M563 0h-464v57h196v411h-168v56h236v-467h200v-57zM169 785h61q0 -53 24.5 -79t66.5 -26t66.5 26t24.5 79h57q0 -82 -41.5 -123t-109.5 -41t-108.5 40.5t-40.5 123.5z" />
    <glyph glyph-name="Iogonek" unicode="&#x12e;" 
d="M500 -134v-54h-15q-127 0 -127 92q0 59 73 96h-325v58h179v649h-179v58h428v-58h-179v-649h179v-58h-34q-78 -35 -78 -81q0 -28 18.5 -40t59.5 -13z" />
    <glyph glyph-name="iogonek" unicode="&#x12f;" 
d="M267 634v114h111v-114h-111zM528 -134v-54h-15q-127 0 -127 92q0 59 73 96h-360v57h196v411h-168v56h236v-467h200v-57h-35q-78 -35 -78 -81q0 -28 18.5 -40t59.5 -13z" />
    <glyph glyph-name="Idotaccent" unicode="&#x130;" 
d="M355 707v-649h179v-58h-428v58h179v649h-179v58h428v-58h-179zM266 834v113h108v-113h-108z" />
    <glyph glyph-name="dotlessi" unicode="&#x131;" 
d="M563 0h-464v57h196v411h-168v56h236v-467h200v-57z" />
    <glyph glyph-name="IJ" unicode="&#x132;" horiz-adv-x="1280" 
d="M355 707v-649h179v-58h-428v58h179v649h-179v58h428v-58h-179zM903 -10q-79 0 -151 19v65q72 -20 151 -20q82 0 122.5 41t40.5 128v480h-269v61h340v-549q0 -112 -63.5 -168.5t-170.5 -56.5z" />
    <glyph glyph-name="ij" unicode="&#x133;" horiz-adv-x="1280" 
d="M267 634v114h111v-114h-111zM563 0h-464v57h196v411h-168v56h236v-467h200v-57zM1075 634h-111v114h111v-114zM891 -197q-55 0 -110 15v61q50 -15 106 -15q55 0 80.5 25.5t25.5 81.5v496h-212v57h279v-561q0 -78 -45.5 -119t-123.5 -41z" />
    <glyph glyph-name="Jcircumflex" unicode="&#x134;" 
d="M377 960l107 -133h-69l-80 76h-2l-78 -76h-65l104 133h83zM263 -10q-79 0 -151 19v65q72 -20 151 -20q82 0 122.5 41t40.5 128v480h-269v61h340v-549q0 -112 -63.5 -168.5t-170.5 -56.5z" />
    <glyph glyph-name="jcircumflex" unicode="&#x135;" 
d="M260 -197q-53 0 -113 18v61q68 -19 107 -19q51 0 74.5 26.5t23.5 84.5v492h-187v58h255v-562q0 -77 -42.5 -118t-117.5 -41zM413 788l107 -179h-66l-84 122h-4l-83 -122h-59l104 179h85z" />
    <glyph glyph-name="Kcommaaccent" unicode="&#x136;" 
d="M250 -202l36 149h107l-84 -149h-59zM173 268v-268h-71v765h71v-404l327 404h83l-265 -324l293 -441h-86l-256 386z" />
    <glyph glyph-name="kcommaaccent" unicode="&#x137;" 
d="M258 -202l36 149h107l-84 -149h-59zM206 168v-168h-67v788h67v-537l257 273h83l-191 -201l225 -323h-82l-191 275z" />
    <glyph glyph-name="kgreenlandic" unicode="&#x138;" 
d="M208 168v-168h-69v524h69v-271l255 271h83l-191 -201l225 -323h-82l-190 273z" />
    <glyph glyph-name="Lacute" unicode="&#x139;" 
d="M136 827l57 133h102l-98 -133h-61zM129 0v765h72v-703h389v-62h-461z" />
    <glyph glyph-name="lacute" unicode="&#x13a;" 
d="M298 827l57 133h102l-98 -133h-61zM558 0h-466v57h197v674h-168v57h237v-731h200v-57z" />
    <glyph glyph-name="Lcommaaccent" unicode="&#x13b;" 
d="M271 -202l36 149h107l-84 -149h-59zM129 0v765h72v-703h389v-62h-461z" />
    <glyph glyph-name="lcommaaccent" unicode="&#x13c;" 
d="M233 -202l36 149h107l-84 -149h-59zM558 0h-466v57h197v674h-168v57h237v-731h200v-57z" />
    <glyph glyph-name="Lcaron" unicode="&#x13d;" 
d="M306 587l26 201h91l-68 -201h-49zM129 0v765h72v-703h389v-62h-461z" />
    <glyph glyph-name="lcaron" unicode="&#x13e;" 
d="M451 587l26 201h91l-68 -201h-49zM558 0h-466v57h197v674h-168v57h237v-731h200v-57z" />
    <glyph glyph-name="Ldot" unicode="&#x13f;" 
d="M429 335v114h111v-114h-111zM129 0v765h72v-703h389v-62h-461z" />
    <glyph glyph-name="ldot" unicode="&#x140;" 
d="M558 0h-466v57h197v674h-168v57h237v-731h200v-57zM592 336v106h102v-106h-102z" />
    <glyph glyph-name="Lslash" unicode="&#x141;" 
d="M595 0h-461v296l-88 -40v66l88 39v404h72v-372l261 117v-65l-261 -117v-266h389v-62z" />
    <glyph glyph-name="lslash" unicode="&#x142;" 
d="M558 0h-466v57h197v279l-157 -82v63l157 83v331h-168v57h237v-352l163 86v-64l-163 -85v-316h200v-57z" />
    <glyph glyph-name="Nacute" unicode="&#x143;" 
d="M302 827l57 133h102l-98 -133h-61zM80 0v765h97l276 -590q11 -24 20 -47.5t13 -35.5l3 -11h6v684h65v-765h-97l-271 578q-12 25 -22.5 51.5t-15.5 40.5l-4 14h-5v-684h-65z" />
    <glyph glyph-name="nacute" unicode="&#x144;" 
d="M304 609l66 179h103l-110 -179h-59zM460 0v334q0 75 -23 105q-29 39 -94 39q-78 0 -118 -48t-40 -121v-309h-69v524h65v-93h2q50 106 175 106q172 0 172 -186v-351h-70z" />
    <glyph glyph-name="Ncommaaccent" unicode="&#x145;" 
d="M235 -202l36 149h107l-84 -149h-59zM80 0v765h97l276 -590q11 -24 20 -47.5t13 -35.5l3 -11h6v684h65v-765h-97l-271 578q-12 25 -22.5 51.5t-15.5 40.5l-4 14h-5v-684h-65z" />
    <glyph glyph-name="ncommaaccent" unicode="&#x146;" 
d="M239 -202l36 149h107l-84 -149h-59zM460 0v334q0 75 -23 105q-29 39 -94 39q-78 0 -118 -48t-40 -121v-309h-69v524h65v-93h2q50 106 175 106q172 0 172 -186v-351h-70z" />
    <glyph glyph-name="Ncaron" unicode="&#x147;" 
d="M287 827l-107 133h69l80 -76h2l78 76h65l-104 -133h-83zM80 0v765h97l276 -590q11 -24 20 -47.5t13 -35.5l3 -11h6v684h65v-765h-97l-271 578q-12 25 -22.5 51.5t-15.5 40.5l-4 14h-5v-684h-65z" />
    <glyph glyph-name="ncaron" unicode="&#x148;" 
d="M294 609l-107 179h65l84 -122h4l83 122h60l-104 -179h-85zM460 0v334q0 75 -23 105q-29 39 -94 39q-78 0 -118 -48t-40 -121v-309h-69v524h65v-93h2q50 106 175 106q172 0 172 -186v-351h-70z" />
    <glyph glyph-name="napostrophe" unicode="&#x149;" 
d="M182 766l-97 -217h-60l51 217h106zM460 0v334q0 75 -23 105q-29 39 -94 39q-78 0 -118 -48t-40 -121v-309h-69v524h65v-93h2q50 106 175 106q172 0 172 -186v-351h-70z" />
    <glyph glyph-name="Eng" unicode="&#x14a;" 
d="M331 -188h-26v61h12q101 0 138 30t39 97h-31l-271 578q-12 25 -22 51.5t-14 40.5l-5 14h-6v-684h-65v765h97l277 -591q11 -24 19.5 -47t12.5 -35l3 -11h6v684h65v-748q0 -102 -51 -153.5t-178 -51.5z" />
    <glyph glyph-name="eng" unicode="&#x14b;" 
d="M391 -197q-23 0 -50 6v58q22 -5 46 -5q38 0 55.5 20.5t17.5 67.5v384q0 75 -23 105q-29 39 -94 39q-78 0 -118 -48t-40 -121v-309h-69v524h65v-93h2q50 106 175 106q172 0 172 -186v-411q0 -68 -37.5 -102.5t-101.5 -34.5z" />
    <glyph glyph-name="Omacron" unicode="&#x14c;" 
d="M175 855v64h291v-64h-291zM55 380q0 396 266 396q130 0 197 -92t67 -304q0 -396 -266 -396q-131 0 -197.5 92t-66.5 304zM320 41q98 0 144 80t46 259q0 184 -45 261.5t-145 77.5q-97 0 -143.5 -80t-46.5 -259q0 -178 45.5 -258.5t144.5 -80.5z" />
    <glyph glyph-name="omacron" unicode="&#x14d;" 
d="M175 647v64h291v-64h-291zM320 -13q-116 0 -177.5 73.5t-61.5 201.5t62 201.5t177 73.5q116 0 177.5 -73.5t61.5 -201.5t-62 -201.5t-177 -73.5zM320 482q-83 0 -126 -58t-43 -162q0 -103 42.5 -161.5t126.5 -58.5t126.5 58t42.5 162t-43 162t-126 58z" />
    <glyph glyph-name="Obreve" unicode="&#x14e;" 
d="M173 970h63q12 -81 88 -81q77 0 89 81h58q-6 -71 -46 -105.5t-104 -34.5t-103 34.5t-45 105.5zM55 380q0 396 266 396q130 0 197 -92t67 -304q0 -396 -266 -396q-131 0 -197.5 92t-66.5 304zM320 41q98 0 144 80t46 259q0 184 -45 261.5t-145 77.5q-97 0 -143.5 -80
t-46.5 -259q0 -178 45.5 -258.5t144.5 -80.5z" />
    <glyph glyph-name="obreve" unicode="&#x14f;" 
d="M320 -13q-116 0 -177.5 73.5t-61.5 201.5t62 201.5t177 73.5q116 0 177.5 -73.5t61.5 -201.5t-62 -201.5t-177 -73.5zM320 482q-83 0 -126 -58t-43 -162q0 -103 42.5 -161.5t126.5 -58.5t126.5 58t42.5 162t-43 162t-126 58zM172 785h61q0 -53 24.5 -79t66.5 -26t66.5 26
t24.5 79h57q0 -82 -41.5 -123t-109.5 -41q-67 0 -108 40.5t-41 123.5z" />
    <glyph glyph-name="Ohungarumlaut" unicode="&#x150;" 
d="M367 827l36 143h90l-72 -143h-54zM214 827l36 143h90l-71 -143h-55zM55 380q0 396 266 396q130 0 197 -92t67 -304q0 -396 -266 -396q-131 0 -197.5 92t-66.5 304zM320 41q98 0 144 80t46 259q0 184 -45 261.5t-145 77.5q-97 0 -143.5 -80t-46.5 -259q0 -178 45.5 -258.5
t144.5 -80.5z" />
    <glyph glyph-name="ohungarumlaut" unicode="&#x151;" 
d="M373 609l59 179h90l-92 -179h-57zM218 609l60 179h89l-92 -179h-57zM320 -13q-116 0 -177.5 73.5t-61.5 201.5t62 201.5t177 73.5q116 0 177.5 -73.5t61.5 -201.5t-62 -201.5t-177 -73.5zM320 482q-83 0 -126 -58t-43 -162q0 -103 42.5 -161.5t126.5 -58.5t126.5 58
t42.5 162t-43 162t-126 58z" />
    <glyph glyph-name="OE" unicode="&#x152;" 
d="M324 706q-111 0 -165.5 -77t-54.5 -248q0 -170 52.5 -246.5t167.5 -76.5v648zM324 0q-143 0 -218.5 87.5t-75.5 294.5q0 383 294 383h295v-62h-227v-283h191v-60h-191v-298h231v-62h-299z" />
    <glyph glyph-name="oe" unicode="&#x153;" 
d="M188 42q98 0 98 220q0 221 -96 221q-52 0 -76.5 -51.5t-24.5 -169.5q0 -117 23.5 -168.5t75.5 -51.5zM548 301v8q0 90 -21.5 131t-74.5 41q-49 0 -73.5 -44t-27.5 -136h197zM313 94q-33 -107 -130 -107q-163 0 -163 275t168 275q98 0 132 -104h2q35 104 136 104
q158 0 158 -232v-57h-266q3 -204 108 -204q41 0 61.5 27.5t25.5 59.5h64q-10 -65 -50 -104t-102 -39q-105 0 -141 106h-3z" />
    <glyph glyph-name="Racute" unicode="&#x154;" 
d="M275 827l57 133h102l-98 -133h-61zM162 385h173q77 0 124.5 41t47.5 126q0 74 -45 113.5t-128 39.5h-172v-320zM509 0l-168 326h-179v-326h-72v765h243q89 0 151 -33q97 -54 97 -179q0 -90 -47.5 -143.5t-120.5 -71.5v-2l176 -336h-80z" />
    <glyph glyph-name="racute" unicode="&#x155;" 
d="M320 609l66 179h103l-110 -179h-59zM422 469q-88 0 -139.5 -55t-51.5 -158v-256h-70v524h65v-127h2q45 137 205 137q68 0 113 -23v-66q-58 24 -124 24z" />
    <glyph glyph-name="Rcommaaccent" unicode="&#x156;" 
d="M238 -202l36 149h107l-84 -149h-59zM162 385h173q77 0 124.5 41t47.5 126q0 74 -45 113.5t-128 39.5h-172v-320zM509 0l-168 326h-179v-326h-72v765h243q89 0 151 -33q97 -54 97 -179q0 -90 -47.5 -143.5t-120.5 -71.5v-2l176 -336h-80z" />
    <glyph glyph-name="rcommaaccent" unicode="&#x157;" 
d="M105 -202l36 149h107l-84 -149h-59zM422 469q-88 0 -139.5 -55t-51.5 -158v-256h-70v524h65v-127h2q45 137 205 137q68 0 113 -23v-66q-58 24 -124 24z" />
    <glyph glyph-name="Rcaron" unicode="&#x158;" 
d="M274 827l-107 133h69l80 -76h2l78 76h65l-104 -133h-83zM162 385h173q77 0 124.5 41t47.5 126q0 74 -45 113.5t-128 39.5h-172v-320zM509 0l-168 326h-179v-326h-72v765h243q89 0 151 -33q97 -54 97 -179q0 -90 -47.5 -143.5t-120.5 -71.5v-2l176 -336h-80z" />
    <glyph glyph-name="rcaron" unicode="&#x159;" 
d="M308 609l-107 179h65l84 -122h4l83 122h60l-104 -179h-85zM422 469q-88 0 -139.5 -55t-51.5 -158v-256h-70v524h65v-127h2q45 137 205 137q68 0 113 -23v-66q-58 24 -124 24z" />
    <glyph glyph-name="Sacute" unicode="&#x15a;" 
d="M570 561h-71q-6 70 -47 113t-123 43q-78 0 -123.5 -38t-45.5 -105q0 -62 30.5 -93t100.5 -47l108 -25q96 -22 139 -71t43 -133q0 -100 -68 -160t-193 -60q-118 0 -183.5 62.5t-74.5 164.5h69q8 -75 55 -121.5t138 -46.5q95 0 139.5 43.5t44.5 111.5q0 61 -28.5 94.5
t-99.5 49.5l-99 23q-105 24 -148 71.5t-43 134.5q0 93 67 148.5t173 55.5q112 0 172 -57.5t68 -157.5zM293 827l57 133h102l-98 -133h-61z" />
    <glyph glyph-name="sacute" unicode="&#x15b;" 
d="M294 609l66 179h103l-110 -179h-59zM522 398h-67q-18 85 -133 85q-59 0 -92.5 -24t-33.5 -69q0 -41 24 -61t71 -26l90 -12q82 -11 117.5 -45.5t35.5 -96.5q0 -75 -55.5 -118.5t-162.5 -43.5q-195 0 -212 160h67q12 -106 145 -106q72 0 111 26.5t39 76.5q0 39 -22 58.5
t-79 27.5l-91 13q-70 10 -107 43.5t-37 99.5t50 108.5t143 42.5q90 0 140.5 -36.5t58.5 -102.5z" />
    <glyph glyph-name="Scircumflex" unicode="&#x15c;" 
d="M366 960l107 -133h-69l-80 76h-2l-78 -76h-65l104 133h83zM570 561h-71q-6 70 -47 113t-123 43q-78 0 -123.5 -38t-45.5 -105q0 -62 30.5 -93t100.5 -47l108 -25q96 -22 139 -71t43 -133q0 -100 -68 -160t-193 -60q-118 0 -183.5 62.5t-74.5 164.5h69q8 -75 55 -121.5
t138 -46.5q95 0 139.5 43.5t44.5 111.5q0 61 -28.5 94.5t-99.5 49.5l-99 23q-105 24 -148 71.5t-43 134.5q0 93 67 148.5t173 55.5q112 0 172 -57.5t68 -157.5z" />
    <glyph glyph-name="scircumflex" unicode="&#x15d;" 
d="M367 788l107 -179h-66l-84 122h-4l-83 -122h-59l104 179h85zM522 398h-67q-18 85 -133 85q-59 0 -92.5 -24t-33.5 -69q0 -41 24 -61t71 -26l90 -12q82 -11 117.5 -45.5t35.5 -96.5q0 -75 -55.5 -118.5t-162.5 -43.5q-195 0 -212 160h67q12 -106 145 -106q72 0 111 26.5
t39 76.5q0 39 -22 58.5t-79 27.5l-91 13q-70 10 -107 43.5t-37 99.5t50 108.5t143 42.5q90 0 140.5 -36.5t58.5 -102.5z" />
    <glyph glyph-name="Scedilla" unicode="&#x15e;" 
d="M328 -216q-42 0 -66 19t-27 50h60q8 -24 37 -24q20 0 31.5 11t11.5 31q0 19 -11 29.5t-30 10.5q-22 0 -36 -14h-55l39 90q-101 10 -156.5 70.5t-63.5 154.5h69q8 -75 55 -121.5t138 -46.5q95 0 139.5 43.5t44.5 111.5q0 61 -28.5 94.5t-99.5 49.5l-99 23
q-105 24 -148 71.5t-43 134.5q0 93 67 148.5t173 55.5q112 0 172 -57.5t68 -157.5h-71q-6 70 -47 113t-123 43q-78 0 -123.5 -38t-45.5 -105q0 -62 30.5 -93t100.5 -47l108 -25q96 -22 139 -71t43 -133q0 -100 -67.5 -160t-189.5 -60l-14 -31h36q40 0 63.5 -21t23.5 -59
t-28 -64t-77 -26z" />
    <glyph glyph-name="scedilla" unicode="&#x15f;" 
d="M318 -216q-42 0 -66 19t-27 50h60q8 -24 37 -24q20 0 31.5 11t11.5 31q0 19 -11 29.5t-30 10.5q-22 0 -36 -14h-55l40 92q-154 17 -169 158h67q12 -106 145 -106q72 0 111 26.5t39 76.5q0 39 -22 58.5t-79 27.5l-91 13q-70 10 -107 43.5t-37 99.5t50 108.5t143 42.5
q90 0 140.5 -36.5t58.5 -102.5h-67q-18 85 -133 85q-59 0 -92.5 -24t-33.5 -69q0 -41 24 -61t71 -26l90 -12q82 -11 117.5 -45.5t35.5 -96.5q0 -75 -55.5 -118.5t-162.5 -43.5h-1l-15 -33h36q40 0 63.5 -21t23.5 -59t-28 -64t-77 -26z" />
    <glyph glyph-name="Scaron" unicode="&#x160;" 
d="M284 827l-107 133h69l80 -76h2l78 76h65l-104 -133h-83zM570 561h-71q-6 70 -47 113t-123 43q-78 0 -123.5 -38t-45.5 -105q0 -62 30.5 -93t100.5 -47l108 -25q96 -22 139 -71t43 -133q0 -100 -68 -160t-193 -60q-118 0 -183.5 62.5t-74.5 164.5h69q8 -75 55 -121.5
t138 -46.5q95 0 139.5 43.5t44.5 111.5q0 61 -28.5 94.5t-99.5 49.5l-99 23q-105 24 -148 71.5t-43 134.5q0 93 67 148.5t173 55.5q112 0 172 -57.5t68 -157.5z" />
    <glyph glyph-name="scaron" unicode="&#x161;" 
d="M281 609l-107 179h65l84 -122h4l83 122h60l-104 -179h-85zM522 398h-67q-18 85 -133 85q-59 0 -92.5 -24t-33.5 -69q0 -41 24 -61t71 -26l90 -12q82 -11 117.5 -45.5t35.5 -96.5q0 -75 -55.5 -118.5t-162.5 -43.5q-195 0 -212 160h67q12 -106 145 -106q72 0 111 26.5
t39 76.5q0 39 -22 58.5t-79 27.5l-91 13q-70 10 -107 43.5t-37 99.5t50 108.5t143 42.5q90 0 140.5 -36.5t58.5 -102.5z" />
    <glyph glyph-name="Tcommaaccent" unicode="&#x162;" 
d="M228 -202l36 149h107l-84 -149h-59zM604 765v-61h-249v-704h-71v704h-249v61h569z" />
    <glyph glyph-name="tcommaaccent" unicode="&#x163;" 
d="M307 -202l36 149h107l-84 -149h-59zM254 140v327h-193v57h136q36 0 48 13t12 50v98h66v-161h218v-57h-218v-326q0 -93 102 -93q57 0 116 19v-59q-56 -20 -119 -20q-90 0 -129 39t-39 113z" />
    <glyph glyph-name="Tcaron" unicode="&#x164;" 
d="M280 827l-107 133h69l80 -76h2l78 76h65l-104 -133h-83zM604 765v-61h-249v-704h-71v704h-249v61h569z" />
    <glyph glyph-name="tcaron" unicode="&#x165;" 
d="M402 587l26 201h91l-68 -201h-49zM254 140v327h-193v57h136q36 0 48 13t12 50v98h66v-161h218v-57h-218v-326q0 -93 102 -93q57 0 116 19v-59q-56 -20 -119 -20q-90 0 -129 39t-39 113z" />
    <glyph glyph-name="Tbar" unicode="&#x166;" 
d="M355 438v-438h-71v438h-177v57h177v209h-249v61h569v-61h-249v-209h177v-57h-177z" />
    <glyph glyph-name="tbar" unicode="&#x167;" 
d="M541 8q-56 -20 -119 -20q-90 0 -129 39t-39 113v120h-193v56h193v151h-193v57h136q36 0 48 13t12 50v98h66v-161h218v-57h-218v-151h218v-56h-218v-119q0 -93 102 -93q57 0 116 19v-59z" />
    <glyph glyph-name="Utilde" unicode="&#x168;" 
d="M75 247v518h71v-515q0 -100 41 -151.5t135 -51.5t133.5 51.5t39.5 151.5v515h70v-519q0 -261 -245 -261t-245 262zM152 827q2 60 28 97t78 37q36 0 82.5 -34.5t65.5 -34.5q25 0 35 17t13 55h58q-2 -59 -28 -97t-78 -38q-36 0 -83 35t-65 35q-24 0 -34.5 -17.5
t-12.5 -54.5h-59z" />
    <glyph glyph-name="utilde" unicode="&#x169;" 
d="M180 524v-335q0 -77 23 -107q29 -37 95 -37q76 0 116 52.5t40 143.5v283h69v-524h-65v97h-2q-21 -48 -65 -79t-107 -31q-173 0 -173 179v358h69zM144 623q1 59 27 97.5t77 38.5q28 0 55.5 -17.5t50.5 -35t41 -17.5q24 0 35 17.5t13 54.5h57q-1 -59 -27.5 -97t-76.5 -38
q-28 0 -56 18t-51 35.5t-39 17.5q-45 0 -48 -74h-58z" />
    <glyph glyph-name="Umacron" unicode="&#x16a;" 
d="M75 247v518h71v-515q0 -100 41 -151.5t135 -51.5t133.5 51.5t39.5 151.5v515h70v-519q0 -261 -245 -261t-245 262zM178 855v64h291v-64h-291z" />
    <glyph glyph-name="umacron" unicode="&#x16b;" 
d="M180 524v-335q0 -77 23 -107q29 -37 95 -37q76 0 116 52.5t40 143.5v283h69v-524h-65v97h-2q-21 -48 -65 -79t-107 -31q-173 0 -173 179v358h69zM177 647v64h291v-64h-291z" />
    <glyph glyph-name="Ubreve" unicode="&#x16c;" 
d="M75 247v518h71v-515q0 -100 41 -151.5t135 -51.5t133.5 51.5t39.5 151.5v515h70v-519q0 -261 -245 -261t-245 262zM176 970h63q12 -81 88 -81q77 0 89 81h58q-6 -71 -46 -105.5t-104 -34.5t-103 34.5t-45 105.5z" />
    <glyph glyph-name="ubreve" unicode="&#x16d;" 
d="M180 524v-335q0 -77 23 -107q29 -37 95 -37q76 0 116 52.5t40 143.5v283h69v-524h-65v97h-2q-21 -48 -65 -79t-107 -31q-173 0 -173 179v358h69zM174 785h61q0 -53 24.5 -79t66.5 -26t66.5 26t24.5 79h57q0 -82 -41.5 -123t-109.5 -41q-67 0 -108 40.5t-41 123.5z" />
    <glyph glyph-name="Uring" unicode="&#x16e;" 
d="M75 247v518h71v-515q0 -100 41 -151.5t135 -51.5t133.5 51.5t39.5 151.5v515h70v-519q0 -261 -245 -261t-245 262zM322 786q-55 0 -89.5 34.5t-34.5 88.5t34.5 89t89.5 35q56 0 90.5 -35t34.5 -89t-35 -88.5t-90 -34.5zM322 989q-32 0 -52 -23t-20 -57q0 -35 19.5 -56.5
t52.5 -21.5t53 21.5t20 56.5t-19.5 57.5t-53.5 22.5z" />
    <glyph glyph-name="uring" unicode="&#x16f;" 
d="M197 701q0 54 34.5 89.5t89.5 35.5q56 0 90.5 -35t34.5 -90q0 -54 -35 -88.5t-90 -34.5t-89.5 34.5t-34.5 88.5zM321 623q33 0 53 22t20 56q0 35 -19.5 57.5t-53.5 22.5q-33 0 -52.5 -22.5t-19.5 -57.5q0 -34 19.5 -56t52.5 -22zM180 524v-335q0 -77 23 -107
q29 -37 95 -37q76 0 116 52.5t40 143.5v283h69v-524h-65v97h-2q-21 -48 -65 -79t-107 -31q-173 0 -173 179v358h69z" />
    <glyph glyph-name="Uhungarumlaut" unicode="&#x170;" 
d="M369 827l36 143h90l-72 -143h-54zM216 827l36 143h90l-71 -143h-55zM75 247v518h71v-515q0 -100 41 -151.5t135 -51.5t133.5 51.5t39.5 151.5v515h70v-519q0 -261 -245 -261t-245 262z" />
    <glyph glyph-name="uhungarumlaut" unicode="&#x171;" 
d="M180 524v-335q0 -77 23 -107q29 -37 95 -37q76 0 116 52.5t40 143.5v283h69v-524h-65v97h-2q-21 -48 -65 -79t-107 -31q-173 0 -173 179v358h69zM369 609l59 179h90l-92 -179h-57zM214 609l60 179h89l-92 -179h-57z" />
    <glyph glyph-name="Uogonek" unicode="&#x172;" 
d="M405 -188h-15q-127 0 -127 92q0 50 54 80v3q-119 0 -180.5 62t-61.5 198v518h71v-515q0 -100 41 -151.5t135 -51.5t133.5 51.5t39.5 151.5v515h70v-519q0 -206 -150 -249q-88 -26 -88 -76q0 -29 18.5 -41.5t59.5 -13.5v-54z" />
    <glyph glyph-name="uogonek" unicode="&#x173;" 
d="M523 -188h-15q-127 0 -127 92q0 63 82 98l-5 -2v97h-2q-21 -48 -65 -79t-107 -31q-173 0 -173 179v358h69v-335q0 -77 23 -107q29 -37 95 -37q76 0 116 52.5t40 143.5v283h69v-524q-78 -35 -78 -81q0 -28 18.5 -40t59.5 -13v-54z" />
    <glyph glyph-name="Wcircumflex" unicode="&#x174;" 
d="M361 960l107 -133h-69l-80 76h-2l-78 -76h-65l104 133h83zM213 0h-96l-76 765h66l66 -686h6q6 47 16 96l91 430h71l91 -431l15 -95h7l65 686h63l-75 -765h-98l-86 414l-17 107h-6q-6 -55 -17 -107z" />
    <glyph glyph-name="wcircumflex" unicode="&#x175;" 
d="M366 788l107 -179h-66l-84 122h-4l-83 -122h-59l104 179h85zM148 0l-109 524h66l74 -386l9 -67h4q5 41 11 67l82 386h73l81 -386l11 -67h4q5 45 9 67l73 386h65l-109 -524h-80l-73 342l-17 97h-4q-8 -53 -17 -97l-72 -342h-81z" />
    <glyph glyph-name="Ycircumflex" unicode="&#x176;" 
d="M285 0v337l-243 428h80l200 -365h1l202 365h74l-243 -427v-338h-71zM364 960l107 -133h-69l-80 76h-2l-78 -76h-65l104 133h83z" />
    <glyph glyph-name="ycircumflex" unicode="&#x177;" 
d="M293 -1l-207 525h73l140 -364l29 -82h3q14 43 29 83l136 363h70l-221 -566q-35 -89 -74.5 -123t-107.5 -34q-32 0 -76 11v58q44 -11 74 -11q46 0 69 21t45 75zM378 788l107 -179h-66l-84 122h-4l-83 -122h-59l104 179h85z" />
    <glyph glyph-name="Ydieresis" unicode="&#x178;" 
d="M285 0v337l-243 428h80l200 -365h1l202 365h74l-243 -427v-338h-71zM371 834v113h108v-113h-108zM170 834v113h109v-113h-109z" />
    <glyph glyph-name="Zacute" unicode="&#x179;" 
d="M297 827l57 133h102l-98 -133h-61zM77 704v61h503v-55l-434 -649h440v-61h-524v55l434 649h-419z" />
    <glyph glyph-name="zacute" unicode="&#x17a;" 
d="M291 609l66 179h103l-110 -179h-59zM116 466v58h414v-59l-352 -407h360v-58h-439v61l350 405h-333z" />
    <glyph glyph-name="Zdotaccent" unicode="&#x17b;" 
d="M77 704v61h503v-55l-434 -649h440v-61h-524v55l434 649h-419zM271 834v113h108v-113h-108z" />
    <glyph glyph-name="zdotaccent" unicode="&#x17c;" 
d="M116 466v58h414v-59l-352 -407h360v-58h-439v61l350 405h-333zM269 634v114h111v-114h-111z" />
    <glyph glyph-name="Zcaron" unicode="&#x17d;" 
d="M286 827l-107 133h69l80 -76h2l78 76h65l-104 -133h-83zM77 704v61h503v-55l-434 -649h440v-61h-524v55l434 649h-419z" />
    <glyph glyph-name="zcaron" unicode="&#x17e;" 
d="M284 609l-107 179h65l84 -122h4l83 122h60l-104 -179h-85zM116 466v58h414v-59l-352 -407h360v-58h-439v61l350 405h-333z" />
    <glyph glyph-name="florin" unicode="&#x192;" 
d="M335 373l-77 -561h-68l77 561h-206v58h214l28 206q11 79 59 117t119 38q53 0 94 -13v-59q-49 13 -90 13q-48 0 -77 -22.5t-37 -80.5l-27 -199h231v-58h-240z" />
    <glyph glyph-name="Aringacute" unicode="&#x1fa;" 
d="M312 695q-11 -57 -25 -104l-83 -283h225l-83 284l-25 103h-9zM518 0l-72 250h-259l-73 -250h-71l229 765h93l229 -765h-76zM294 1061l57 133h102l-98 -133h-61zM320 791q-55 0 -89.5 34.5t-34.5 88.5t34.5 89t89.5 35q56 0 90.5 -35t34.5 -89t-35 -88.5t-90 -34.5z
M320 994q-32 0 -52 -23t-20 -57q0 -35 19.5 -56.5t52.5 -21.5t53 21.5t20 56.5t-19.5 57.5t-53.5 22.5z" />
    <glyph glyph-name="aringacute" unicode="&#x1fb;" 
d="M163 143q0 -46 29.5 -70.5t80.5 -24.5q66 0 115.5 49t49.5 139v22q-106 -6 -159.5 -14.5t-77.5 -25.5q-38 -27 -38 -75zM439 101q-23 -52 -69 -80.5t-109 -28.5q-77 0 -122.5 39.5t-45.5 108.5q0 86 74 126q64 35 272 46v22q0 75 -28 111t-101 36q-61 0 -92.5 -28
t-36.5 -70h-67q6 66 56.5 109.5t138.5 44.5q196 0 196 -199v-234q0 -27 9.5 -37.5t34.5 -10.5h19v-56h-24q-56 0 -78 23.5t-24 77.5h-3zM195 699q0 54 34.5 89.5t89.5 35.5q56 0 90.5 -35t34.5 -90q0 -54 -35 -88.5t-90 -34.5t-89.5 34.5t-34.5 88.5zM319 621q33 0 53 22
t20 56q0 35 -19.5 57.5t-53.5 22.5q-33 0 -52.5 -22.5t-19.5 -57.5q0 -34 19.5 -56t52.5 -22zM292 858l57 133h102l-98 -133h-61z" />
    <glyph glyph-name="AEacute" unicode="&#x1fc;" 
d="M382 827l57 133h102l-98 -133h-61zM330 296v407h-19l-140 -407h159zM152 239l-82 -239h-68l266 765h357v-62h-229v-283h192v-60h-192v-298h233v-62h-299v239h-178z" />
    <glyph glyph-name="aeacute" unicode="&#x1fd;" 
d="M297 609l66 179h103l-110 -179h-59zM542 300v7q0 85 -20 129.5t-77 44.5q-56 0 -78.5 -46.5t-24.5 -134.5h200zM167 45q50 0 80.5 45t30.5 123v36q-80 1 -110.5 -4t-49.5 -20q-33 -25 -33 -81q0 -99 82 -99zM603 131q-11 -66 -51 -103.5t-104 -37.5q-112 0 -142 112h-3
q-41 -112 -148 -112q-63 0 -100.5 40t-37.5 109q0 47 19.5 82t51.5 52q31 17 67.5 22.5t122.5 5.5v66q0 115 -89 115q-44 0 -67 -27t-24 -70h-62q1 65 41 108.5t112 43.5q99 0 128 -88h4q36 88 132 88q156 0 156 -233v-56l-267 -1q1 -105 24.5 -153.5t83.5 -48.5q73 0 89 86
h64z" />
    <glyph glyph-name="Oslashacute" unicode="&#x1fe;" 
d="M320 719q-97 0 -144 -80.5t-47 -258.5q0 -133 23 -208l313 475q-44 72 -145 72zM320 41q99 0 145 80t46 259q0 138 -23 213l-313 -475q45 -77 145 -77zM585 380q0 -396 -266 -396q-119 0 -183 75l-55 -84h-59l84 128q-51 97 -51 277q0 396 266 396q116 0 180 -74l60 91
h59l-89 -134q54 -97 54 -279zM295 827l57 133h102l-98 -133h-61z" />
    <glyph glyph-name="oslashacute" unicode="&#x1ff;" 
d="M320 483q-82 0 -125.5 -59t-43.5 -162q0 -89 26 -141l257 321q-41 41 -114 41zM320 42q83 0 125.5 58t42.5 162q0 85 -25 138l-255 -320q40 -38 112 -38zM559 262q0 -125 -63 -200t-177 -75q-89 0 -148 48l-44 -56h-63l73 91q-57 72 -57 192q0 125 63.5 200t176.5 75
q88 0 150 -49l43 54h64l-73 -91q55 -73 55 -189zM292 609l66 179h103l-110 -179h-59z" />
    <glyph glyph-name="Scommaaccent" unicode="&#x218;" 
d="M237 -202l36 149h107l-84 -149h-59zM570 561h-71q-6 70 -47 113t-123 43q-78 0 -123.5 -38t-45.5 -105q0 -62 30.5 -93t100.5 -47l108 -25q96 -22 139 -71t43 -133q0 -100 -68 -160t-193 -60q-118 0 -183.5 62.5t-74.5 164.5h69q8 -75 55 -121.5t138 -46.5
q95 0 139.5 43.5t44.5 111.5q0 61 -28.5 94.5t-99.5 49.5l-99 23q-105 24 -148 71.5t-43 134.5q0 93 67 148.5t173 55.5q112 0 172 -57.5t68 -157.5z" />
    <glyph glyph-name="scommaaccent" unicode="&#x219;" 
d="M232 -201l36 149h107l-84 -149h-59zM522 398h-67q-18 85 -133 85q-59 0 -92.5 -24t-33.5 -69q0 -41 24 -61t71 -26l90 -12q82 -11 117.5 -45.5t35.5 -96.5q0 -75 -55.5 -118.5t-162.5 -43.5q-195 0 -212 160h67q12 -106 145 -106q72 0 111 26.5t39 76.5q0 39 -22 58.5
t-79 27.5l-91 13q-70 10 -107 43.5t-37 99.5t50 108.5t143 42.5q90 0 140.5 -36.5t58.5 -102.5z" />
    <glyph glyph-name="uni021A" unicode="&#x21a;" 
d="M228 -202l36 149h107l-84 -149h-59zM604 765v-61h-249v-704h-71v704h-249v61h569z" />
    <glyph glyph-name="uni021B" unicode="&#x21b;" 
d="M307 -202l36 149h107l-84 -149h-59zM254 140v327h-193v57h136q36 0 48 13t12 50v98h66v-161h218v-57h-218v-326q0 -93 102 -93q57 0 116 19v-59q-56 -20 -119 -20q-90 0 -129 39t-39 113z" />
    <glyph glyph-name="uni0237" unicode="&#x237;" 
d="M260 -197q-53 0 -113 18v61q68 -19 107 -19q51 0 74.5 26.5t23.5 84.5v492h-187v58h255v-562q0 -77 -42.5 -118t-117.5 -41z" />
    <glyph glyph-name="circumflex" unicode="&#x2c6;" 
d="M361 788l107 -179h-66l-84 122h-4l-83 -122h-59l104 179h85z" />
    <glyph glyph-name="caron" unicode="&#x2c7;" 
d="M279 609l-107 179h65l84 -122h4l83 122h60l-104 -179h-85z" />
    <glyph glyph-name="breve" unicode="&#x2d8;" 
d="M171 785h61q0 -53 24.5 -79t66.5 -26t66.5 26t24.5 79h57q0 -82 -41.5 -123t-109.5 -41t-108.5 40.5t-40.5 123.5z" />
    <glyph glyph-name="dotaccent" unicode="&#x2d9;" 
d="M266 634v114h111v-114h-111z" />
    <glyph glyph-name="ring" unicode="&#x2da;" 
d="M194 712q0 54 34.5 89.5t89.5 35.5q56 0 90.5 -35t34.5 -90q0 -54 -35 -88.5t-90 -34.5t-89.5 34.5t-34.5 88.5zM318 634q33 0 53 22t20 56q0 35 -19.5 57.5t-53.5 22.5q-33 0 -52.5 -22.5t-19.5 -57.5q0 -34 19.5 -56t52.5 -22z" />
    <glyph glyph-name="ogonek" unicode="&#x2db;" 
d="M387 23l14 -23q-78 -35 -78 -81q0 -28 18.5 -40t59.5 -13v-54h-15q-127 0 -127 92q0 39 30 67t98 52z" />
    <glyph glyph-name="tilde" unicode="&#x2dc;" 
d="M143 623q1 59 27 97.5t77 38.5q28 0 55.5 -17.5t50.5 -35t41 -17.5q24 0 35 17.5t13 54.5h57q-1 -59 -27.5 -97t-76.5 -38q-28 0 -56 18t-51 35.5t-39 17.5q-45 0 -48 -74h-58z" />
    <glyph glyph-name="hungarumlaut" unicode="&#x2dd;" 
d="M326 609l59 179h90l-92 -179h-57zM171 609l60 179h89l-92 -179h-57z" />
    <glyph glyph-name="Wgrave" unicode="&#x1e80;" 
d="M290 960l57 -133h-61l-98 133h102zM213 0h-96l-76 765h66l66 -686h6q6 47 16 96l91 430h71l91 -431l15 -95h7l65 686h63l-75 -765h-98l-86 414l-17 107h-6q-6 -55 -17 -107z" />
    <glyph glyph-name="wgrave" unicode="&#x1e81;" 
d="M148 0l-109 524h66l74 -386l9 -67h4q5 41 11 67l82 386h73l81 -386l11 -67h4q5 45 9 67l73 386h65l-109 -524h-80l-73 342l-17 97h-4q-8 -53 -17 -97l-72 -342h-81zM349 609h-58l-111 179h104z" />
    <glyph glyph-name="Wacute" unicode="&#x1e82;" 
d="M301 827l57 133h102l-98 -133h-61zM213 0h-96l-76 765h66l66 -686h6q6 47 16 96l91 430h71l91 -431l15 -95h7l65 686h63l-75 -765h-98l-86 414l-17 107h-6q-6 -55 -17 -107z" />
    <glyph glyph-name="wacute" unicode="&#x1e83;" 
d="M294 609l66 179h103l-110 -179h-59zM148 0l-109 524h66l74 -386l9 -67h4q5 41 11 67l82 386h73l81 -386l11 -67h4q5 45 9 67l73 386h65l-109 -524h-80l-73 342l-17 97h-4q-8 -53 -17 -97l-72 -342h-81z" />
    <glyph glyph-name="Wdieresis" unicode="&#x1e84;" 
d="M368 834v113h108v-113h-108zM167 834v113h109v-113h-109zM213 0h-96l-76 765h66l66 -686h6q6 47 16 96l91 430h71l91 -431l15 -95h7l65 686h63l-75 -765h-98l-86 414l-17 107h-6q-6 -55 -17 -107z" />
    <glyph glyph-name="wdieresis" unicode="&#x1e85;" 
d="M167 633v112h109v-112h-109zM476 633h-108v112h108v-112zM148 0l-109 524h66l74 -386l9 -67h4q5 41 11 67l82 386h73l81 -386l11 -67h4q5 45 9 67l73 386h65l-109 -524h-80l-73 342l-17 97h-4q-8 -53 -17 -97l-72 -342h-81z" />
    <glyph glyph-name="Ygrave" unicode="&#x1ef2;" 
d="M285 0v337l-243 428h80l200 -365h1l202 365h74l-243 -427v-338h-71zM301 960l57 -133h-61l-98 133h102z" />
    <glyph glyph-name="ygrave" unicode="&#x1ef3;" 
d="M293 -1l-207 525h73l140 -364l29 -82h3q14 43 29 83l136 363h70l-221 -566q-35 -89 -74.5 -123t-107.5 -34q-32 0 -76 11v58q44 -11 74 -11q46 0 69 21t45 75zM365 609h-58l-111 179h104z" />
    <glyph glyph-name="uni2009" unicode="&#x2009;" horiz-adv-x="0" 
 />
    <glyph glyph-name="endash" unicode="&#x2013;" 
d="M140 302v60h360v-60h-360z" />
    <glyph glyph-name="emdash" unicode="&#x2014;" 
d="M10 302v60h620v-60h-620z" />
    <glyph glyph-name="quoteleft" unicode="&#x2018;" 
d="M234 514l104 251h64l-54 -251h-114z" />
    <glyph glyph-name="quoteright" unicode="&#x2019;" 
d="M408 765l-104 -251h-64l54 251h114z" />
    <glyph glyph-name="quotesinglbase" unicode="&#x201a;" 
d="M310 -129h-65l49 246h114z" />
    <glyph glyph-name="quotedblleft" unicode="&#x201c;" 
d="M320 514l104 251h64l-54 -251h-114zM136 514l104 251h64l-54 -251h-114z" />
    <glyph glyph-name="quotedblright" unicode="&#x201d;" 
d="M489 765l-104 -251h-64l54 251h114zM306 765l-104 -251h-64l54 251h114z" />
    <glyph glyph-name="quotedblbase" unicode="&#x201e;" 
d="M393 -129h-65l49 246h114zM210 -129h-65l49 246h114z" />
    <glyph glyph-name="dagger" unicode="&#x2020;" 
d="M351 453v-534h-63v534h-208v56h208v256h63v-256h209v-56h-209z" />
    <glyph glyph-name="daggerdbl" unicode="&#x2021;" 
d="M351 178v-259h-63v259h-208v56h208v232h-208v56h208v243h63v-243h209v-56h-209v-232h209v-56h-209z" />
    <glyph glyph-name="bullet" unicode="&#x2022;" 
d="M319 192q-50 0 -82 32t-32 84q0 50 33.5 83t81.5 33q51 0 83 -32.5t32 -83.5t-33.5 -83.5t-82.5 -32.5z" />
    <glyph glyph-name="ellipsis" unicode="&#x2026;" 
d="M265 0v115h110v-115h-110zM479 0v115h111v-115h-111zM50 0v115h111v-115h-111z" />
    <glyph glyph-name="perthousand" unicode="&#x2030;" 
d="M24 611q0 79 31 120t84 41q55 0 85.5 -41t30.5 -120t-31.5 -120.5t-86.5 -41.5q-53 0 -83 41.5t-30 120.5zM138 497q62 0 62 114q0 115 -62 115q-60 0 -60 -115q0 -114 60 -114zM17 261v56l470 265v-56zM509 -7q-53 0 -83.5 41.5t-30.5 120.5t31 120t84 41q55 0 85.5 -41
t30.5 -120t-31 -120.5t-86 -41.5zM239 -7q-53 0 -83 41.5t-30 120.5t31 120t84 41q55 0 85.5 -41t30.5 -120t-31.5 -120.5t-86.5 -41.5zM509 41q62 0 62 114q0 115 -62 115q-60 0 -60 -115q0 -114 60 -114zM240 41q62 0 62 114q0 115 -62 115q-60 0 -60 -115q0 -114 60 -114
z" />
    <glyph glyph-name="uni2032" unicode="&#x2032;" 
d="M252 479l33 286h92l-69 -286h-56z" />
    <glyph glyph-name="uni2033" unicode="&#x2033;" 
d="M340 479l33 286h92l-69 -286h-56zM165 479l33 286h92l-69 -286h-56z" />
    <glyph glyph-name="guilsinglleft" unicode="&#x2039;" 
d="M443 464l-185 -202l187 -205h-85l-191 203l191 204h83z" />
    <glyph glyph-name="guilsinglright" unicode="&#x203a;" 
d="M197 57l185 202l-187 205h85l191 -203l-191 -204h-83z" />
    <glyph glyph-name="fraction" unicode="&#x2044;" 
d="M3 -40l570 820h64l-569 -820h-65z" />
    <glyph glyph-name="Euro" unicode="&#x20ac;" 
d="M591 204q-8 -102 -66 -161t-154 -59q-219 0 -251 279h-95v57h90q-1 15 -1 48q0 32 1 47h-91v56h96q16 133 79 207t172 74q84 0 147.5 -56t70.5 -164h-67q-5 69 -44.5 116t-106.5 47q-156 0 -182 -224h243v-56h-247q-1 -15 -1 -47t1 -48h249v-57h-244q27 -222 181 -222
q70 0 108.5 44t45.5 119h66z" />
    <glyph glyph-name="trademark" unicode="&#x2122;" 
d="M248 765v-41h-89v-285h-49v285h-89v41h227zM288 439v326h72l63 -204l12 -61h3q6 33 15 61l61 204h71v-326h-46v269h-5q-6 -28 -17 -67l-60 -202h-41l-64 205l-15 64h-5v-269h-44z" />
    <glyph glyph-name="onethird" unicode="&#x2153;" horiz-adv-x="1920" 
d="M1508 200h-53v52h50q47 0 73.5 27t26.5 68q0 42 -28.5 66.5t-75.5 24.5q-109 0 -110 -104h-64q0 66 46 111.5t130 45.5q76 0 121.5 -38t45.5 -99q0 -93 -94 -123v-2q108 -23 108 -128q0 -64 -51 -108t-134 -44q-90 0 -135 45.5t-48 112.5h63q4 -52 36.5 -79t87.5 -27
q50 0 83.5 28t33.5 73q0 48 -30.5 73t-81.5 25zM643 -40l570 820h64l-569 -820h-65zM495 257h-327v51h136v330h-129v47h39q54 0 76 21q23 20 23 75h53v-473h129v-51z" />
    <glyph glyph-name="twothirds" unicode="&#x2154;" horiz-adv-x="1920" 
d="M1508 200h-53v52h50q47 0 73.5 27t26.5 68q0 42 -28.5 66.5t-75.5 24.5q-109 0 -110 -104h-64q0 66 46 111.5t130 45.5q76 0 121.5 -38t45.5 -99q0 -93 -94 -123v-2q108 -23 108 -128q0 -64 -51 -108t-134 -44q-90 0 -135 45.5t-48 112.5h63q4 -52 36.5 -79t87.5 -27
q50 0 83.5 28t33.5 73q0 48 -30.5 73t-81.5 25zM643 -40l570 820h64l-569 -820h-65zM202 607h-61q0 84 50 132.5t128 48.5q80 0 126 -42t46 -107q0 -52 -24 -92t-85 -94l-94 -81l-71 -58v-2h283v-55h-371v47l196 173q59 51 80.5 83.5t21.5 76.5q0 45 -29.5 72t-78.5 27
q-51 0 -83.5 -32t-33.5 -97z" />
    <glyph glyph-name="oneeighth" unicode="&#x215b;" horiz-adv-x="1920" 
d="M1327 350q0 62 46 101.5t126 39.5t126 -39.5t46 -101.5q0 -48 -25.5 -78.5t-62.5 -42.5v-2q43 -10 73.5 -42t30.5 -87q0 -67 -50 -108t-138 -41t-137.5 40.5t-49.5 108.5q0 56 32 88t73 41v2q-38 12 -64 42.5t-26 78.5zM643 -40l570 820h64l-569 -820h-65zM495 257h-327
v51h136v330h-129v47h39q54 0 76 21q23 20 23 75h53v-473h129v-51zM1499 -3q57 0 90.5 25.5t33.5 77.5q0 51 -34.5 76.5t-89.5 25.5q-54 0 -88.5 -25.5t-34.5 -76.5q0 -52 34 -77.5t89 -25.5zM1499 442q-48 0 -78 -24t-30 -72q0 -47 30.5 -71t77.5 -24t78 24t31 71
q0 48 -30.5 72t-78.5 24z" />
    <glyph glyph-name="threeeighths" unicode="&#x215c;" horiz-adv-x="1920" 
d="M1327 350q0 62 46 101.5t126 39.5t126 -39.5t46 -101.5q0 -48 -25.5 -78.5t-62.5 -42.5v-2q43 -10 73.5 -42t30.5 -87q0 -67 -50 -108t-138 -41t-137.5 40.5t-49.5 108.5q0 56 32 88t73 41v2q-38 12 -64 42.5t-26 78.5zM328 497h-53v52h50q47 0 73.5 27t26.5 68
q0 42 -28.5 66.5t-75.5 24.5q-109 0 -110 -104h-64q0 66 46 111.5t130 45.5q76 0 121.5 -38t45.5 -99q0 -93 -94 -123v-2q108 -23 108 -128q0 -64 -51 -108t-134 -44q-90 0 -135 45.5t-48 112.5h63q4 -52 36.5 -79t87.5 -27q50 0 83.5 28t33.5 73q0 48 -30.5 73t-81.5 25z
M643 -40l570 820h64l-569 -820h-65zM1499 -3q57 0 90.5 25.5t33.5 77.5q0 51 -34.5 76.5t-89.5 25.5q-54 0 -88.5 -25.5t-34.5 -76.5q0 -52 34 -77.5t89 -25.5zM1499 442q-48 0 -78 -24t-30 -72q0 -47 30.5 -71t77.5 -24t78 24t31 71q0 48 -30.5 72t-78.5 24z" />
    <glyph glyph-name="fiveeighths" unicode="&#x215d;" horiz-adv-x="1920" 
d="M1327 350q0 62 46 101.5t126 39.5t126 -39.5t46 -101.5q0 -48 -25.5 -78.5t-62.5 -42.5v-2q43 -10 73.5 -42t30.5 -87q0 -67 -50 -108t-138 -41t-137.5 40.5t-49.5 108.5q0 56 32 88t73 41v2q-38 12 -64 42.5t-26 78.5zM441 424q0 60 -33 92t-86 32q-76 0 -111 -47h-54
l14 279h308v-56h-256l-9 -170h3q41 47 117 47q71 0 120.5 -44.5t49.5 -130.5q0 -83 -52 -131.5t-138 -48.5t-130.5 44t-48.5 107h62q5 -49 37 -74t83 -25q52 0 88 31t36 95zM643 -40l570 820h64l-569 -820h-65zM1499 -3q57 0 90.5 25.5t33.5 77.5q0 51 -34.5 76.5
t-89.5 25.5q-54 0 -88.5 -25.5t-34.5 -76.5q0 -52 34 -77.5t89 -25.5zM1499 442q-48 0 -78 -24t-30 -72q0 -47 30.5 -71t77.5 -24t78 24t31 71q0 48 -30.5 72t-78.5 24z" />
    <glyph glyph-name="seveneighths" unicode="&#x215e;" horiz-adv-x="1920" 
d="M1327 350q0 62 46 101.5t126 39.5t126 -39.5t46 -101.5q0 -48 -25.5 -78.5t-62.5 -42.5v-2q43 -10 73.5 -42t30.5 -87q0 -67 -50 -108t-138 -41t-137.5 40.5t-49.5 108.5q0 56 32 88t73 41v2q-38 12 -64 42.5t-26 78.5zM623 -40l570 820h64l-569 -820h-65zM195 257
l239 466h-300v57h372v-40l-247 -483h-64zM1499 -3q57 0 90.5 25.5t33.5 77.5q0 51 -34.5 76.5t-89.5 25.5q-54 0 -88.5 -25.5t-34.5 -76.5q0 -52 34 -77.5t89 -25.5zM1499 442q-48 0 -78 -24t-30 -72q0 -47 30.5 -71t77.5 -24t78 24t31 71q0 48 -30.5 72t-78.5 24z" />
    <glyph glyph-name="minus" unicode="&#x2212;" 
d="M92 327v61h456v-61h-456z" />
    <glyph glyph-name="approxequal" unicode="&#x2248;" 
d="M94 396q2 55 33.5 88.5t83.5 33.5q39 0 116.5 -31.5t102.5 -31.5q23 0 39.5 16.5t18.5 48.5h57q-2 -55 -33 -88.5t-83 -33.5q-40 0 -117 31.5t-103 31.5q-23 0 -39 -16.5t-18 -48.5h-58zM209 281q-23 0 -39 -16.5t-18 -47.5h-58q2 55 33.5 88.5t83.5 33.5q40 0 117.5 -32
t101.5 -32q23 0 39.5 16.5t18.5 48.5h57q-2 -55 -32.5 -88t-83.5 -33q-38 0 -116 31t-104 31z" />
    <glyph glyph-name="notequal" unicode="&#x2260;" 
d="M287 237l-61 -120h-60l61 120h-135v59h166l63 123h-229v59h259l62 121h60l-62 -121h137v-59h-167l-63 -123h230v-59h-261z" />
    <glyph glyph-name="lessequal" unicode="&#x2264;" 
d="M547 132l-459 197v56l459 196v-68l-376 -156l376 -157v-68zM547 0h-459v59h459v-59z" />
    <glyph glyph-name="greaterequal" unicode="&#x2265;" 
d="M92 581l459 -196v-56l-459 -197v68l376 156l-376 157v68zM551 0h-459v59h459v-59z" />
    <glyph glyph-name="uni24C5" unicode="&#x24c5;" 
d="M50 340v82q0 163 65 259t205 96t205 -96.5t65 -258.5v-82q0 -165 -65 -260.5t-205 -95.5t-205 95t-65 261zM320 30q216 0 216 311v81q0 308 -216 308t-216 -308v-81q0 -311 216 -311zM328 333h-57v-168h-58v430h117q137 0 137 -130q0 -67 -37 -99.5t-102 -32.5zM271 382
h57q80 0 80 83q0 82 -76 82h-61v-165z" />
    <glyph glyph-name="fi" unicode="&#xfb01;" horiz-adv-x="1280" 
d="M908 634v114h111v-114h-111zM1204 0h-464v57h196v411h-168v56h236v-467h200v-57zM343 467v-467h-69v467h-195v57h195v109q0 77 46 115.5t124 38.5q58 0 111 -16v-59q-53 16 -110 16q-53 0 -77.5 -22.5t-24.5 -77.5v-104h212v-57h-212z" />
    <glyph glyph-name="fl" unicode="&#xfb02;" horiz-adv-x="1280" 
d="M1198 0h-466v57h197v674h-168v57h237v-731h200v-57zM343 467v-467h-69v467h-195v57h195v109q0 77 46 115.5t124 38.5q58 0 111 -16v-59q-53 16 -110 16q-53 0 -77.5 -22.5t-24.5 -77.5v-104h212v-57h-212z" />
    <glyph glyph-name="quotedblright.sc" 
d="M489 664l-104 -251h-64l54 251h114zM306 664l-104 -251h-64l54 251h114z" />
    <glyph glyph-name="Ibreve.sc" 
d="M354 590v-536h153v-54h-374v54h153v536h-153v54h374v-54h-153zM172 900h61q0 -53 24.5 -79t66.5 -26t66.5 26t24.5 79h57q0 -82 -41.5 -123t-109.5 -41q-67 0 -108 41t-41 123z" />
    <glyph glyph-name="exclamdown.uc" 
d="M358 544l10 -567h-76l10 567h56zM275 765h110v-115h-110v115z" />
    <glyph glyph-name="hyphen.uc" 
d="M171 344v67h298v-67h-298z" />
    <glyph glyph-name="endash.uc" 
d="M140 347v60h360v-60h-360z" />
    <glyph glyph-name="emdash.uc" 
d="M10 347v60h620v-60h-620z" />
    <glyph glyph-name="guilsinglleft.uc" 
d="M443 524l-185 -202l187 -205h-85l-191 203l191 204h83z" />
    <glyph glyph-name="guilsinglright.uc" 
d="M197 116l185 202l-187 205h85l191 -203l-191 -204h-83z" />
    <glyph glyph-name="guillemotleft.uc" 
d="M436 524h70l-122 -205l125 -202h-72l-127 203zM243 524h69l-121 -205l124 -202h-71l-128 203z" />
    <glyph glyph-name="guillemotright.uc" 
d="M205 117h-71l122 205l-124 202h72l126 -203zM397 117h-69l121 205l-123 202h70l128 -203z" />
    <glyph glyph-name="parenleft.uc" 
d="M495 -85h-77q-97 79 -154.5 197t-57.5 262q0 145 57.5 262t154.5 197h77q-219 -191 -219 -459q0 -271 219 -459z" />
    <glyph glyph-name="parenright.uc" 
d="M145 833h77q97 -79 154.5 -197t57.5 -262q0 -145 -57.5 -262t-154.5 -197h-77q219 191 219 459q0 271 -219 459z" />
    <glyph glyph-name="grave.uc" 
d="M324 960l57 -133h-61l-98 133h102z" />
    <glyph glyph-name="bracketleft.uc" 
d="M215 -85v918h256v-54h-190v-810h190v-54h-256z" />
    <glyph glyph-name="bracketright.uc" 
d="M425 833v-918h-256v54h190v810h-190v54h256z" />
    <glyph glyph-name="braceleft.uc" 
d="M181 343h-43v63h43q47 0 65 18t18 61v194q0 79 48 116.5t156 37.5h21v-56q-97 0 -128 -23t-31 -87v-173q0 -106 -81 -118v-4q81 -12 81 -118v-173q0 -64 31 -87t128 -23v-56h-21q-109 0 -156.5 36t-47.5 117v196q0 43 -18 61t-65 18z" />
    <glyph glyph-name="braceright.uc" 
d="M459 405h43v-63h-43q-47 0 -65 -18t-18 -61v-197q0 -78 -47.5 -114.5t-156.5 -36.5h-21v56q97 0 128 23t31 87v173q0 106 81 118v4q-81 12 -81 118v173q0 64 -31 87t-128 23v56h21q109 0 156.5 -36t47.5 -117v-196q0 -43 18 -61t65 -18z" />
    <glyph glyph-name="slash.uc" 
d="M53 -80l470 918h66l-471 -918h-65z" />
    <glyph glyph-name="backslash.uc" 
d="M518 -80l-470 918h67l469 -918h-66z" />
    <glyph glyph-name="bar.uc" 
d="M289 -80v918h61v-918h-61z" />
    <glyph glyph-name="acute.uc" 
d="M236 827l57 133h102l-98 -133h-61z" />
    <glyph glyph-name="at.uc" 
d="M349 -18q-152 0 -219.5 90t-67.5 280v66q0 137 31 217q59 153 239 153q126 0 186 -77.5t60 -206.5v-313h-57v69h-5q-38 -80 -133 -80q-68 0 -112 49t-44 151q0 98 43.5 150t120.5 52q83 0 123 -68h6q-8 222 -189 222q-139 0 -182 -120q-28 -76 -28 -202v-40
q0 -81 9.5 -138t33.5 -105t71.5 -72t118.5 -24q52 0 116 18l-1 -51q-56 -20 -120 -20zM396 234q51 0 84.5 35t33.5 88v40q0 60 -31.5 96t-78.5 36q-108 0 -108 -146q0 -149 100 -149z" />
    <glyph glyph-name="macron.uc" 
d="M174 855v64h291v-64h-291z" />
    <glyph glyph-name="circumflex.uc" 
d="M360 960l107 -133h-69l-80 76h-2l-78 -76h-65l104 133h83z" />
    <glyph glyph-name="caron.uc" 
d="M280 827l-107 133h69l80 -76h2l78 76h65l-104 -133h-83z" />
    <glyph glyph-name="breve.uc" 
d="M172 970h63q12 -81 88 -81q77 0 89 81h58q-6 -71 -46 -105.5t-104 -34.5t-103 34.5t-45 105.5z" />
    <glyph glyph-name="caron.alt" 
d="M263 587l26 201h91l-68 -201h-49z" />
    <glyph glyph-name="dotaccent.uc" 
d="M266 834v113h108v-113h-108z" />
    <glyph glyph-name="ring.uc" 
d="M318 799q-55 0 -89.5 34.5t-34.5 88.5t34.5 89t89.5 35q56 0 90.5 -35t34.5 -89t-35 -88.5t-90 -34.5zM318 1002q-32 0 -52 -23t-20 -57q0 -35 19.5 -56.5t52.5 -21.5t53 21.5t20 56.5t-19.5 57.5t-53.5 22.5z" />
    <glyph glyph-name="tilde.uc" 
d="M141 827q2 60 28 97t78 37q36 0 82.5 -34.5t65.5 -34.5q25 0 35 17t13 55h58q-2 -59 -28 -97t-78 -38q-36 0 -83 35t-65 35q-24 0 -34.5 -17.5t-12.5 -54.5h-59z" />
    <glyph glyph-name="hungarumlaut.uc" 
d="M330 827l36 143h90l-72 -143h-54zM177 827l36 143h90l-71 -143h-55z" />
    <glyph glyph-name="idotaccent" 
d="M267 634v114h111v-114h-111zM563 0h-464v57h196v411h-168v56h236v-467h200v-57z" />
    <glyph glyph-name="A.sc" 
d="M312 578q-6 -29 -24 -92l-71 -229h200l-71 230l-24 91h-10zM498 0l-64 202h-234l-64 -202h-67l205 644h90l206 -644h-72z" />
    <glyph glyph-name="AE.sc" 
d="M326 250v336h-18l-115 -336h133zM174 196l-67 -196h-64l225 644h316v-58h-195v-230h165v-57h-165v-241h199v-58h-262v196h-152z" />
    <glyph glyph-name="B.sc" 
d="M315 0h-193v644h215q87 0 140 -39.5t53 -114.5q0 -59 -31 -96t-89 -48v-2q65 -10 102.5 -53.5t37.5 -104.5q0 -186 -235 -186zM190 369h141q130 0 130 111q0 54 -33 81t-91 27h-147v-219zM190 56h126q82 0 123 31.5t41 100.5q0 63 -40.5 94t-111.5 31h-138v-257z" />
    <glyph glyph-name="C.sc" 
d="M551 455h-67q-7 61 -42.5 102t-106.5 41q-96 0 -135.5 -69t-39.5 -210q0 -139 42.5 -207.5t134.5 -68.5q70 0 105.5 42.5t41.5 105.5h66q-8 -93 -66 -148.5t-151 -55.5q-243 0 -243 332q0 335 245 335q90 0 149.5 -52t66.5 -147z" />
    <glyph glyph-name="D.sc" 
d="M109 0v644h154q132 0 212 -77t80 -241q0 -165 -78 -245.5t-208 -80.5h-160zM177 59h87q221 0 221 265q0 135 -59.5 198.5t-158.5 63.5h-90v-527z" />
    <glyph glyph-name="Dcroat.sc" 
d="M266 0h-160v300h-61v56h61v288h154q132 0 212 -77t80 -241q0 -165 -78 -245.5t-208 -80.5zM174 59h87q221 0 221 265q0 135 -59.5 198.5t-158.5 63.5h-90v-230h175v-56h-175v-241z" />
    <glyph glyph-name="E.sc" 
d="M134 0v644h398v-58h-330v-229h291v-58h-291v-241h333v-58h-401z" />
    <glyph glyph-name="Eng.sc" 
d="M333 -158h-24v55h11q84 0 115 24.5t33 78.5h-37l-221 487l-31 81h-7v-568h-63v644h100l225 -496l26 -72h8v568h62v-627q0 -89 -44 -132t-153 -43z" />
    <glyph glyph-name="Eth.sc" 
d="M266 0h-160v300h-61v56h61v288h154q132 0 212 -77t80 -241q0 -165 -78 -245.5t-208 -80.5zM174 59h87q221 0 221 265q0 135 -59.5 198.5t-158.5 63.5h-90v-230h175v-56h-175v-241z" />
    <glyph glyph-name="F.sc" 
d="M218 278v-278h-68v644h403v-58h-335v-250h301v-58h-301z" />
    <glyph glyph-name="G.sc" 
d="M336 598q-93 0 -134.5 -70t-41.5 -210q0 -143 39.5 -209.5t132.5 -66.5q76 0 116 50.5t40 123.5v48h-164v57h227v-321h-58v90h-3q-43 -103 -166 -103q-117 0 -175.5 76.5t-58.5 253.5q0 169 64 252.5t182 83.5q92 0 146 -51.5t60 -130.5h-67q-7 57 -41.5 92t-97.5 35z
" />
    <glyph glyph-name="H.sc" 
d="M177 299v-299h-67v644h67v-288h286v288h67v-644h-67v299h-286z" />
    <glyph glyph-name="I.sc" 
d="M354 590v-536h153v-54h-374v54h153v536h-153v54h374v-54h-153z" />
    <glyph glyph-name="IJ.sc" horiz-adv-x="1280" 
d="M354 590v-536h153v-54h-374v54h153v536h-153v54h374v-54h-153zM906 -10q-71 0 -129 18v61q66 -18 129 -18q140 0 140 137v399h-230v57h297v-461q0 -96 -56 -144.5t-151 -48.5z" />
    <glyph glyph-name="J.sc" 
d="M266 -10q-71 0 -129 18v61q66 -18 129 -18q140 0 140 137v399h-230v57h297v-461q0 -96 -56 -144.5t-151 -48.5z" />
    <glyph glyph-name="K.sc" 
d="M194 220v-220h-68v644h68v-338l281 338h78l-230 -276l251 -368h-81l-215 320z" />
    <glyph glyph-name="L.sc" 
d="M153 0v644h68v-585h333v-59h-401z" />
    <glyph glyph-name="M.sc" 
d="M110 0v644h95l95 -329q6 -20 10 -43t6 -36l1 -12h8q4 46 17 91l93 329h95v-644h-63v558h-9q-9 -57 -21 -98l-87 -303h-63l-86 300q-6 20 -11 45t-7 40l-2 16h-9v-558h-62z" />
    <glyph glyph-name="N.sc" 
d="M109 0v644h100l225 -496l26 -72h8v568h62v-644h-99l-221 487l-30 81h-8v-568h-63z" />
    <glyph glyph-name="O.sc" 
d="M84 320q0 333 238 333q116 0 175.5 -77.5t59.5 -255.5q0 -333 -238 -333q-117 0 -176 77.5t-59 255.5zM319 43q87 0 127 65t40 212q0 151 -39.5 214.5t-127.5 63.5q-83 0 -124 -65.5t-41 -212.5t39.5 -212t125.5 -65z" />
    <glyph glyph-name="OE.sc" 
d="M323 587q-93 0 -138.5 -62.5t-45.5 -203.5t43.5 -203t140.5 -62v531zM323 0q-123 0 -189 74.5t-66 246.5q0 323 255 323h257v-58h-194v-230h163v-57h-163v-241h198v-58h-261z" />
    <glyph glyph-name="Oslash.sc" 
d="M320 598q-84 0 -125.5 -65.5t-41.5 -212.5q0 -114 22 -177l267 403q-38 52 -122 52zM319 42q87 0 127.5 65.5t40.5 212.5q0 118 -22 181l-268 -404q38 -55 122 -55zM557 320q0 -333 -238 -333q-100 0 -157 57l-43 -65h-53l68 102q-50 80 -50 239q0 333 238 333
q98 0 154 -56l47 71h53l-71 -107q52 -81 52 -241z" />
    <glyph glyph-name="P.sc" 
d="M328 250h-131v-250h-68v644h203q106 0 164 -49.5t58 -144.5q0 -97 -59 -148.5t-167 -51.5zM197 306h132q73 0 114.5 35t41.5 107q0 69 -40.5 104t-114.5 35h-133v-281z" />
    <glyph glyph-name="Q.sc" 
d="M456 37v-4q79 -20 118 -107l-58 -29q-41 96 -114 96q-9 0 -36 -2.5t-46 -2.5q-117 0 -176.5 77t-59.5 255q0 333 238 333q115 0 174.5 -77.5t59.5 -255.5q0 -219 -100 -283zM320 598q-85 0 -125.5 -65.5t-40.5 -213.5q0 -147 39 -212.5t126 -65.5q85 0 126 60.5t41 217.5
q0 152 -38.5 215.5t-127.5 63.5z" />
    <glyph glyph-name="R.sc" 
d="M191 328h144q65 0 105 33.5t40 101.5q0 61 -38 92.5t-107 31.5h-144v-259zM481 0l-143 271h-147v-271h-67v644h210q79 0 131 -28q84 -45 84 -152q0 -76 -40.5 -120.5t-102.5 -59.5v-3l151 -281h-76z" />
    <glyph glyph-name="S.sc" 
d="M536 472h-66q-6 56 -41 90.5t-103 34.5q-64 0 -102 -31t-38 -84q0 -50 25 -75t79 -37l97 -22q84 -19 122 -59.5t38 -112.5q0 -86 -58.5 -137.5t-164.5 -51.5q-105 0 -164 53t-65 139h66q7 -60 47 -98.5t117 -38.5q79 0 116.5 36t37.5 91q0 49 -24.5 76t-85.5 41l-94 21
q-82 19 -118.5 60t-36.5 112q0 77 57 125.5t149 48.5q96 0 149.5 -48.5t60.5 -132.5z" />
    <glyph glyph-name="T.sc" 
d="M571 644v-57h-217v-587h-68v587h-218v57h503z" />
    <glyph glyph-name="Tbar.sc" 
d="M354 364v-364h-68v364h-151v52h151v171h-218v57h503v-57h-217v-171h150v-52h-150z" />
    <glyph glyph-name="Thorn.sc" 
d="M320 147h-112v-147h-68v644h68v-137h119q97 0 152.5 -43.5t55.5 -135.5q0 -90 -57 -135.5t-158 -45.5zM329 204q70 2 103.5 32t33.5 92q0 66 -34 93.5t-106 27.5h-118v-245h121z" />
    <glyph glyph-name="U.sc" 
d="M106 207v437h69v-433q0 -82 34 -123.5t113 -41.5t112 41t33 124v433h66v-437q0 -220 -213 -220q-214 0 -214 220z" />
    <glyph glyph-name="V.sc" 
d="M569 644l-204 -644h-90l-204 644h72l147 -474l28 -102h7q12 48 29 102l147 474h68z" />
    <glyph glyph-name="W.sc" 
d="M235 0h-92l-66 644h62l56 -576h6q6 53 15 96l72 344h65l73 -343l15 -97h5l56 576h60l-66 -644h-92l-65 316l-17 118h-5q-8 -68 -18 -117z" />
    <glyph glyph-name="X.sc" 
d="M77 0l203 330l-189 314h77l149 -259h2l153 259h70l-188 -310l209 -334h-77l-169 277h-1l-169 -277h-70z" />
    <glyph glyph-name="Y.sc" 
d="M287 0v286l-209 358h74l170 -300h1l171 300h69l-209 -356v-288h-67z" />
    <glyph glyph-name="Z.sc" 
d="M109 587v57h436v-52l-371 -534h376v-58h-453v52l370 535h-358z" />
    <glyph glyph-name="ampersand.sc" 
d="M201 521q0 -35 14 -62t54 -80q63 45 86.5 75t23.5 73q0 38 -23 61.5t-63 23.5q-42 0 -67 -26t-25 -65zM249 307l-5 -3q-52 -35 -75 -64.5t-23 -73.5q0 -59 36 -92.5t98 -33.5q86 0 130 54zM574 0h-30q-32 0 -53.5 11t-47.5 41q-62 -64 -166 -64q-92 0 -143.5 47
t-51.5 123q0 44 17 78t42.5 57t75.5 57q-32 43 -42.5 58.5t-23 46.5t-12.5 63q0 65 42.5 105t112.5 40q68 0 108 -38t40 -95q0 -55 -33.5 -96.5t-109.5 -94.5l144 -190q22 53 36 176h56q-7 -141 -55 -225q23 -28 40 -35.5t54 -7.5v-57z" />
    <glyph glyph-name="exclam.sc" 
d="M294 191l-10 472h72l-10 -472h-52zM371 0h-102v104h102v-104z" />
    <glyph glyph-name="exclamdown.sc" 
d="M346 473l10 -472h-72l10 472h52zM269 664h102v-104h-102v104z" />
    <glyph glyph-name="germandbls.sc" horiz-adv-x="1280" 
d="M536 472h-66q-6 56 -41 90.5t-103 34.5q-64 0 -102 -31t-38 -84q0 -50 25 -75t79 -37l97 -22q84 -19 122 -59.5t38 -112.5q0 -86 -58.5 -137.5t-164.5 -51.5q-105 0 -164 53t-65 139h66q7 -60 47 -98.5t117 -38.5q79 0 116.5 36t37.5 91q0 49 -24.5 76t-85.5 41l-94 21
q-82 19 -118.5 60t-36.5 112q0 77 57 125.5t149 48.5q96 0 149.5 -48.5t60.5 -132.5zM1176 472h-66q-6 56 -41 90.5t-103 34.5q-64 0 -102 -31t-38 -84q0 -50 25 -75t79 -37l97 -22q84 -19 122 -59.5t38 -112.5q0 -86 -58.5 -137.5t-164.5 -51.5q-105 0 -164 53t-65 139h66
q7 -60 47 -98.5t117 -38.5q79 0 116.5 36t37.5 91q0 49 -24.5 76t-85.5 41l-94 21q-82 19 -118.5 60t-36.5 112q0 77 57 125.5t149 48.5q96 0 149.5 -48.5t60.5 -132.5z" />
    <glyph glyph-name="question.sc" 
d="M449 502q0 51 -34 81.5t-95 30.5q-66 0 -104.5 -40.5t-37.5 -114.5h-62q-3 97 55 154.5t152 57.5q93 0 142.5 -47.5t49.5 -115.5q0 -40 -14.5 -73t-30 -49.5t-48.5 -46.5l-32 -29q-30 -27 -37 -41t-7 -52v-30h-61v37q0 52 11 72t55 57l37 32q61 50 61 117zM367 0h-102
v104h102v-104z" />
    <glyph glyph-name="questiondown.sc" 
d="M191 162q0 -51 34 -81.5t95 -30.5q66 0 104.5 40.5t37.5 114.5h62q3 -97 -55 -154.5t-152 -57.5q-93 0 -142.5 47.5t-49.5 115.5q0 40 14.5 73t30 49.5t48.5 46.5l32 29q30 27 37 41t7 52v30h61v-37q0 -52 -11 -72t-55 -57l-37 -32q-61 -50 -61 -117zM273 664h102v-104
h-102v104z" />
    <glyph glyph-name="quotedblleft.sc" 
d="M320 413l104 251h64l-54 -251h-114zM136 413l104 251h64l-54 -251h-114z" />
    <glyph glyph-name="quoteleft.sc" 
d="M234 413l104 251h64l-54 -251h-114z" />
    <glyph glyph-name="quoteright.sc" 
d="M408 664l-104 -251h-64l54 251h114z" />
    <glyph glyph-name="Lslash.sc" 
d="M558 0h-401v245l-75 -29v58l75 29v341h68v-315l223 87v-59l-223 -86v-212h333v-59z" />
    <glyph glyph-name="AEacute.sc" 
d="M378 724l66 179h103l-110 -179h-59zM326 250v336h-18l-115 -336h133zM174 196l-67 -196h-64l225 644h316v-58h-195v-230h165v-57h-165v-241h199v-58h-262v196h-152z" />
    <glyph glyph-name="Aacute.sc" 
d="M295 723l66 179h103l-110 -179h-59zM312 578q-6 -29 -24 -92l-71 -229h200l-71 230l-24 91h-10zM498 0l-64 202h-234l-64 -202h-67l205 644h90l206 -644h-72z" />
    <glyph glyph-name="Abreve.sc" 
d="M312 578q-6 -29 -24 -92l-71 -229h200l-71 230l-24 91h-10zM498 0l-64 202h-234l-64 -202h-67l205 644h90l206 -644h-72zM172 900h61q0 -53 24.5 -79t66.5 -26t66.5 26t24.5 79h57q0 -82 -41.5 -123t-109.5 -41q-67 0 -108 41t-41 123z" />
    <glyph glyph-name="Acircumflex.sc" 
d="M365 903l107 -179h-66l-84 122h-4l-83 -122h-59l104 179h85zM312 578q-6 -29 -24 -92l-71 -229h200l-71 230l-24 91h-10zM498 0l-64 202h-234l-64 -202h-67l205 644h90l206 -644h-72z" />
    <glyph glyph-name="Adieresis.sc" 
d="M166 749v112h109v-112h-109zM475 749h-108v112h108v-112zM312 578q-6 -29 -24 -92l-71 -229h200l-71 230l-24 91h-10zM498 0l-64 202h-234l-64 -202h-67l205 644h90l206 -644h-72z" />
    <glyph glyph-name="Agrave.sc" 
d="M312 578q-6 -29 -24 -92l-71 -229h200l-71 230l-24 91h-10zM498 0l-64 202h-234l-64 -202h-67l205 644h90l206 -644h-72zM348 724h-58l-111 179h104z" />
    <glyph glyph-name="Amacron.sc" 
d="M312 578q-6 -29 -24 -92l-71 -229h200l-71 230l-24 91h-10zM498 0l-64 202h-234l-64 -202h-67l205 644h90l206 -644h-72zM175 762v64h291v-64h-291z" />
    <glyph glyph-name="Aogonek.sc" 
d="M312 578q-6 -29 -24 -92l-71 -229h200l-71 230l-24 91h-10zM570 -134v-54h-15q-127 0 -127 92q0 59 73 96h-3l-64 202h-234l-64 -202h-67l205 644h90l206 -644q-78 -35 -78 -81q0 -28 18.5 -40t59.5 -13z" />
    <glyph glyph-name="Aring.sc" 
d="M196 823q0 54 34.5 89.5t89.5 35.5q56 0 90.5 -35t34.5 -90q0 -54 -35 -88.5t-90 -34.5t-89.5 34.5t-34.5 88.5zM320 745q33 0 53 22t20 56q0 35 -19.5 57.5t-53.5 22.5q-33 0 -52.5 -22.5t-19.5 -57.5q0 -34 19.5 -56t52.5 -22zM312 578q-6 -29 -24 -92l-71 -229h200
l-71 230l-24 91h-10zM498 0l-64 202h-234l-64 -202h-67l205 644h90l206 -644h-72z" />
    <glyph glyph-name="Atilde.sc" 
d="M312 578q-6 -29 -24 -92l-71 -229h200l-71 230l-24 91h-10zM498 0l-64 202h-234l-64 -202h-67l205 644h90l206 -644h-72zM142 738q1 59 27 97.5t77 38.5q28 0 55.5 -17.5t50.5 -35t41 -17.5q24 0 35 17.5t13 54.5h57q-1 -59 -27.5 -97t-76.5 -38q-22 0 -44.5 11t-38 24.5
t-33 24.5t-30.5 11q-45 0 -48 -74h-58z" />
    <glyph glyph-name="Cacute.sc" 
d="M301 724l66 179h103l-110 -179h-59zM551 455h-67q-7 61 -42.5 102t-106.5 41q-96 0 -135.5 -69t-39.5 -210q0 -139 42.5 -207.5t134.5 -68.5q70 0 105.5 42.5t41.5 105.5h66q-8 -93 -66 -148.5t-151 -55.5q-243 0 -243 332q0 335 245 335q90 0 149.5 -52t66.5 -147z" />
    <glyph glyph-name="Ccaron.sc" 
d="M292 724l-107 179h65l84 -122h4l83 122h60l-104 -179h-85zM551 455h-67q-7 61 -42.5 102t-106.5 41q-96 0 -135.5 -69t-39.5 -210q0 -139 42.5 -207.5t134.5 -68.5q70 0 105.5 42.5t41.5 105.5h66q-8 -93 -66 -148.5t-151 -55.5q-243 0 -243 332q0 335 245 335
q90 0 149.5 -52t66.5 -147z" />
    <glyph glyph-name="Ccedilla.sc" 
d="M330 -216q-42 0 -66 19t-27 50h60q8 -24 37 -24q20 0 31.5 11t11.5 31q0 19 -11 29.5t-30 10.5q-22 0 -36 -14h-55l41 93q-196 30 -196 329q0 335 245 335q90 0 149.5 -52t66.5 -147h-67q-7 61 -42.5 102t-106.5 41q-96 0 -135.5 -69t-39.5 -210q0 -139 42.5 -207.5
t134.5 -68.5q70 0 105.5 42.5t41.5 105.5h66q-8 -93 -66 -148.5t-151 -55.5h-6l-15 -33h36q40 0 63.5 -21t23.5 -59t-28 -64t-77 -26z" />
    <glyph glyph-name="Ccircumflex.sc" 
d="M376 903l107 -179h-66l-84 122h-4l-83 -122h-59l104 179h85zM551 455h-67q-7 61 -42.5 102t-106.5 41q-96 0 -135.5 -69t-39.5 -210q0 -139 42.5 -207.5t134.5 -68.5q70 0 105.5 42.5t41.5 105.5h66q-8 -93 -66 -148.5t-151 -55.5q-243 0 -243 332q0 335 245 335
q90 0 149.5 -52t66.5 -147z" />
    <glyph glyph-name="Cdotaccent.sc" 
d="M551 455h-67q-7 61 -42.5 102t-106.5 41q-96 0 -135.5 -69t-39.5 -210q0 -139 42.5 -207.5t134.5 -68.5q70 0 105.5 42.5t41.5 105.5h66q-8 -93 -66 -148.5t-151 -55.5q-243 0 -243 332q0 335 245 335q90 0 149.5 -52t66.5 -147zM276 749v114h111v-114h-111z" />
    <glyph glyph-name="Dcaron.sc" 
d="M109 0v644h154q132 0 212 -77t80 -241q0 -165 -78 -245.5t-208 -80.5h-160zM177 59h87q221 0 221 265q0 135 -59.5 198.5t-158.5 63.5h-90v-527zM259 724l-107 179h65l84 -122h4l83 122h60l-104 -179h-85z" />
    <glyph glyph-name="Eacute.sc" 
d="M303 724l66 179h103l-110 -179h-59zM134 0v644h398v-58h-330v-229h291v-58h-291v-241h333v-58h-401z" />
    <glyph glyph-name="Ecaron.sc" 
d="M297 724l-107 179h65l84 -122h4l83 122h60l-104 -179h-85zM134 0v644h398v-58h-330v-229h291v-58h-291v-241h333v-58h-401z" />
    <glyph glyph-name="Ecircumflex.sc" 
d="M381 903l107 -179h-66l-84 122h-4l-83 -122h-59l104 179h85zM134 0v644h398v-58h-330v-229h291v-58h-291v-241h333v-58h-401z" />
    <glyph glyph-name="Edieresis.sc" 
d="M184 749v112h109v-112h-109zM493 749h-108v112h108v-112zM134 0v644h398v-58h-330v-229h291v-58h-291v-241h333v-58h-401z" />
    <glyph glyph-name="Edotaccent.sc" 
d="M283 749v114h111v-114h-111zM134 0v644h398v-58h-330v-229h291v-58h-291v-241h333v-58h-401z" />
    <glyph glyph-name="Egrave.sc" 
d="M371 724h-58l-111 179h104zM134 0v644h398v-58h-330v-229h291v-58h-291v-241h333v-58h-401z" />
    <glyph glyph-name="Emacron.sc" 
d="M190 762v64h291v-64h-291zM134 0v644h398v-58h-330v-229h291v-58h-291v-241h333v-58h-401z" />
    <glyph glyph-name="Eogonek.sc" 
d="M500 -134v-54h-15q-127 0 -127 92q0 59 73 96h-297v644h398v-58h-330v-229h291v-58h-291v-241h333v-58h-35q-78 -35 -78 -81q0 -28 18.5 -40t59.5 -13z" />
    <glyph glyph-name="Gbreve.sc" 
d="M336 598q-93 0 -134.5 -70t-41.5 -210q0 -143 39.5 -209.5t132.5 -66.5q76 0 116 50.5t40 123.5v48h-164v57h227v-321h-58v90h-3q-43 -103 -166 -103q-117 0 -175.5 76.5t-58.5 253.5q0 169 64 252.5t182 83.5q92 0 146 -51.5t60 -130.5h-67q-7 57 -41.5 92t-97.5 35z
M185 900h61q0 -53 24.5 -79t66.5 -26t66.5 26t24.5 79h57q0 -82 -41.5 -123t-109.5 -41t-108.5 41t-40.5 123z" />
    <glyph glyph-name="Gcircumflex.sc" 
d="M378 903l107 -179h-66l-84 122h-4l-83 -122h-59l104 179h85zM336 598q-93 0 -134.5 -70t-41.5 -210q0 -143 39.5 -209.5t132.5 -66.5q76 0 116 50.5t40 123.5v48h-164v57h227v-321h-58v90h-3q-43 -103 -166 -103q-117 0 -175.5 76.5t-58.5 253.5q0 169 64 252.5t182 83.5
q92 0 146 -51.5t60 -130.5h-67q-7 57 -41.5 92t-97.5 35z" />
    <glyph glyph-name="Gcommaaccent.sc" 
d="M231 -202l36 149h107l-84 -149h-59zM336 598q-93 0 -134.5 -70t-41.5 -210q0 -143 39.5 -209.5t132.5 -66.5q76 0 116 50.5t40 123.5v48h-164v57h227v-321h-58v90h-3q-43 -103 -166 -103q-117 0 -175.5 76.5t-58.5 253.5q0 169 64 252.5t182 83.5q92 0 146 -51.5
t60 -130.5h-67q-7 57 -41.5 92t-97.5 35z" />
    <glyph glyph-name="Gdotaccent.sc" 
d="M336 598q-93 0 -134.5 -70t-41.5 -210q0 -143 39.5 -209.5t132.5 -66.5q76 0 116 50.5t40 123.5v48h-164v57h227v-321h-58v90h-3q-43 -103 -166 -103q-117 0 -175.5 76.5t-58.5 253.5q0 169 64 252.5t182 83.5q92 0 146 -51.5t60 -130.5h-67q-7 57 -41.5 92t-97.5 35z
M278 749v114h111v-114h-111z" />
    <glyph glyph-name="Hcircumflex.sc" 
d="M365 903l107 -179h-66l-84 122h-4l-83 -122h-59l104 179h85zM177 299v-299h-67v644h67v-288h286v288h67v-644h-67v299h-286z" />
    <glyph glyph-name="Iacute.sc" 
d="M293 724l66 179h103l-110 -179h-59zM354 590v-536h153v-54h-374v54h153v536h-153v54h374v-54h-153z" />
    <glyph glyph-name="questiondown.uc" 
d="M161 166q0 -64 41 -101.5t113 -37.5q79 0 124.5 50.5t43.5 140.5h65q4 -115 -62 -182.5t-172 -67.5q-109 0 -165.5 55.5t-56.5 135.5q0 69 26.5 111.5t81.5 91.5l34 31q38 34 46 52t8 67v37h63v-43q0 -64 -12.5 -89t-64.5 -70l-42 -37q-71 -59 -71 -144zM264 765h110
v-115h-110v115z" />
    <glyph glyph-name="Icircumflex.sc" 
d="M365 903l107 -179h-66l-84 122h-4l-83 -122h-59l104 179h85zM354 590v-536h153v-54h-374v54h153v536h-153v54h374v-54h-153z" />
    <glyph glyph-name="Idieresis.sc" 
d="M166 749v112h109v-112h-109zM475 749h-108v112h108v-112zM354 590v-536h153v-54h-374v54h153v536h-153v54h374v-54h-153z" />
    <glyph glyph-name="Igrave.sc" 
d="M354 590v-536h153v-54h-374v54h153v536h-153v54h374v-54h-153zM348 724h-58l-111 179h104z" />
    <glyph glyph-name="Imacron.sc" 
d="M354 590v-536h153v-54h-374v54h153v536h-153v54h374v-54h-153zM175 762v64h291v-64h-291z" />
    <glyph glyph-name="Iogonek.sc" 
d="M473 -134v-54h-15q-127 0 -127 92q0 59 73 96h-271v54h153v536h-153v54h374v-54h-153v-536h153v-54h-34q-78 -35 -78 -81q0 -28 18.5 -40t59.5 -13z" />
    <glyph glyph-name="Itilde.sc" 
d="M354 590v-536h153v-54h-374v54h153v536h-153v54h374v-54h-153zM142 738q1 59 27 97.5t77 38.5q28 0 55.5 -17.5t50.5 -35t41 -17.5q24 0 35 17.5t13 54.5h57q-1 -59 -27.5 -97t-76.5 -38q-22 0 -44.5 11t-38 24.5t-33 24.5t-30.5 11q-45 0 -48 -74h-58z" />
    <glyph glyph-name="Jcircumflex.sc" 
d="M373 903l107 -179h-66l-84 122h-4l-83 -122h-59l104 179h85zM266 -10q-71 0 -129 18v61q66 -18 129 -18q140 0 140 137v399h-230v57h297v-461q0 -96 -56 -144.5t-151 -48.5z" />
    <glyph glyph-name="Kcommaaccent.sc" 
d="M248 -202l36 149h107l-84 -149h-59zM194 220v-220h-68v644h68v-338l281 338h78l-230 -276l251 -368h-81l-215 320z" />
    <glyph glyph-name="Lacute.sc" 
d="M153 0v644h68v-585h333v-59h-401zM162 724l66 179h103l-110 -179h-59z" />
    <glyph glyph-name="Lcaron.sc" 
d="M153 0v644h68v-585h333v-59h-401zM319 443l26 201h91l-68 -201h-49z" />
    <glyph glyph-name="Lcommaaccent.sc" 
d="M153 0v644h68v-585h333v-59h-401zM266 -202l36 149h107l-84 -149h-59z" />
    <glyph glyph-name="Nacute.sc" 
d="M298 724l66 179h103l-110 -179h-59zM109 0v644h100l225 -496l26 -72h8v568h62v-644h-99l-221 487l-30 81h-8v-568h-63z" />
    <glyph glyph-name="Ncaron.sc" 
d="M286 724l-107 179h65l84 -122h4l83 122h60l-104 -179h-85zM109 0v644h100l225 -496l26 -72h8v568h62v-644h-99l-221 487l-30 81h-8v-568h-63z" />
    <glyph glyph-name="Ncommaaccent.sc" 
d="M230 -202l36 149h107l-84 -149h-59zM109 0v644h100l225 -496l26 -72h8v568h62v-644h-99l-221 487l-30 81h-8v-568h-63z" />
    <glyph glyph-name="Ntilde.sc" 
d="M109 0v644h100l225 -496l26 -72h8v568h62v-644h-99l-221 487l-30 81h-8v-568h-63zM147 738q1 59 27 97.5t77 38.5q28 0 55.5 -17.5t50.5 -35t41 -17.5q24 0 35 17.5t13 54.5h57q-1 -59 -27.5 -97t-76.5 -38q-22 0 -44.5 11t-38 24.5t-33 24.5t-30.5 11q-45 0 -48 -74h-58
z" />
    <glyph glyph-name="Oacute.sc" 
d="M84 320q0 333 238 333q116 0 175.5 -77.5t59.5 -255.5q0 -333 -238 -333q-117 0 -176 77.5t-59 255.5zM319 43q87 0 127 65t40 212q0 151 -39.5 214.5t-127.5 63.5q-83 0 -124 -65.5t-41 -212.5t39.5 -212t125.5 -65zM291 724l66 179h103l-110 -179h-59z" />
    <glyph glyph-name="Obreve.sc" 
d="M84 320q0 333 238 333q116 0 175.5 -77.5t59.5 -255.5q0 -333 -238 -333q-117 0 -176 77.5t-59 255.5zM319 43q87 0 127 65t40 212q0 151 -39.5 214.5t-127.5 63.5q-83 0 -124 -65.5t-41 -212.5t39.5 -212t125.5 -65zM172 900h61q0 -53 24.5 -79t66.5 -26t66.5 26
t24.5 79h57q0 -82 -41.5 -123t-109.5 -41q-67 0 -108 41t-41 123z" />
    <glyph glyph-name="Ocircumflex.sc" 
d="M365 903l107 -179h-66l-84 122h-4l-83 -122h-59l104 179h85zM84 320q0 333 238 333q116 0 175.5 -77.5t59.5 -255.5q0 -333 -238 -333q-117 0 -176 77.5t-59 255.5zM319 43q87 0 127 65t40 212q0 151 -39.5 214.5t-127.5 63.5q-83 0 -124 -65.5t-41 -212.5t39.5 -212
t125.5 -65z" />
    <glyph glyph-name="Odieresis.sc" 
d="M166 749v112h109v-112h-109zM475 749h-108v112h108v-112zM84 320q0 333 238 333q116 0 175.5 -77.5t59.5 -255.5q0 -333 -238 -333q-117 0 -176 77.5t-59 255.5zM319 43q87 0 127 65t40 212q0 151 -39.5 214.5t-127.5 63.5q-83 0 -124 -65.5t-41 -212.5t39.5 -212
t125.5 -65z" />
    <glyph glyph-name="Ograve.sc" 
d="M84 320q0 333 238 333q116 0 175.5 -77.5t59.5 -255.5q0 -333 -238 -333q-117 0 -176 77.5t-59 255.5zM319 43q87 0 127 65t40 212q0 151 -39.5 214.5t-127.5 63.5q-83 0 -124 -65.5t-41 -212.5t39.5 -212t125.5 -65zM351 724h-58l-111 179h104z" />
    <glyph glyph-name="Ohungarumlaut.sc" 
d="M84 320q0 333 238 333q116 0 175.5 -77.5t59.5 -255.5q0 -333 -238 -333q-117 0 -176 77.5t-59 255.5zM319 43q87 0 127 65t40 212q0 151 -39.5 214.5t-127.5 63.5q-83 0 -124 -65.5t-41 -212.5t39.5 -212t125.5 -65zM373 724l59 179h90l-92 -179h-57zM218 724l60 179h89
l-92 -179h-57z" />
    <glyph glyph-name="Omacron.sc" 
d="M84 320q0 333 238 333q116 0 175.5 -77.5t59.5 -255.5q0 -333 -238 -333q-117 0 -176 77.5t-59 255.5zM319 43q87 0 127 65t40 212q0 151 -39.5 214.5t-127.5 63.5q-83 0 -124 -65.5t-41 -212.5t39.5 -212t125.5 -65zM175 762v64h291v-64h-291z" />
    <glyph glyph-name="Oslashacute.sc" 
d="M292 724l66 179h103l-110 -179h-59zM320 598q-84 0 -125.5 -65.5t-41.5 -212.5q0 -114 22 -177l267 403q-38 52 -122 52zM319 42q87 0 127.5 65.5t40.5 212.5q0 118 -22 181l-268 -404q38 -55 122 -55zM557 320q0 -333 -238 -333q-100 0 -157 57l-43 -65h-53l68 102
q-50 80 -50 239q0 333 238 333q98 0 154 -56l47 71h53l-71 -107q52 -81 52 -241z" />
    <glyph glyph-name="Otilde.sc" 
d="M84 320q0 333 238 333q116 0 175.5 -77.5t59.5 -255.5q0 -333 -238 -333q-117 0 -176 77.5t-59 255.5zM319 43q87 0 127 65t40 212q0 151 -39.5 214.5t-127.5 63.5q-83 0 -124 -65.5t-41 -212.5t39.5 -212t125.5 -65zM142 738q1 59 27 97.5t77 38.5q28 0 55.5 -17.5
t50.5 -35t41 -17.5q24 0 35 17.5t13 54.5h57q-1 -59 -27.5 -97t-76.5 -38q-22 0 -44.5 11t-38 24.5t-33 24.5t-30.5 11q-45 0 -48 -74h-58z" />
    <glyph glyph-name="Racute.sc" 
d="M282 724l66 179h103l-110 -179h-59zM191 328h144q65 0 105 33.5t40 101.5q0 61 -38 92.5t-107 31.5h-144v-259zM481 0l-143 271h-147v-271h-67v644h210q79 0 131 -28q84 -45 84 -152q0 -76 -40.5 -120.5t-102.5 -59.5v-3l151 -281h-76z" />
    <glyph glyph-name="Rcaron.sc" 
d="M288 724l-107 179h65l84 -122h4l83 122h60l-104 -179h-85zM191 328h144q65 0 105 33.5t40 101.5q0 61 -38 92.5t-107 31.5h-144v-259zM481 0l-143 271h-147v-271h-67v644h210q79 0 131 -28q84 -45 84 -152q0 -76 -40.5 -120.5t-102.5 -59.5v-3l151 -281h-76z" />
    <glyph glyph-name="Rcommaaccent.sc" 
d="M240 -202l36 149h107l-84 -149h-59zM191 328h144q65 0 105 33.5t40 101.5q0 61 -38 92.5t-107 31.5h-144v-259zM481 0l-143 271h-147v-271h-67v644h210q79 0 131 -28q84 -45 84 -152q0 -76 -40.5 -120.5t-102.5 -59.5v-3l151 -281h-76z" />
    <glyph glyph-name="Sacute.sc" 
d="M297 724l66 179h103l-110 -179h-59zM536 472h-66q-6 56 -41 90.5t-103 34.5q-64 0 -102 -31t-38 -84q0 -50 25 -75t79 -37l97 -22q84 -19 122 -59.5t38 -112.5q0 -86 -58.5 -137.5t-164.5 -51.5q-105 0 -164 53t-65 139h66q7 -60 47 -98.5t117 -38.5q79 0 116.5 36
t37.5 91q0 49 -24.5 76t-85.5 41l-94 21q-82 19 -118.5 60t-36.5 112q0 77 57 125.5t149 48.5q96 0 149.5 -48.5t60.5 -132.5z" />
    <glyph glyph-name="Scaron.sc" 
d="M281 724l-107 179h65l84 -122h4l83 122h60l-104 -179h-85zM536 472h-66q-6 56 -41 90.5t-103 34.5q-64 0 -102 -31t-38 -84q0 -50 25 -75t79 -37l97 -22q84 -19 122 -59.5t38 -112.5q0 -86 -58.5 -137.5t-164.5 -51.5q-105 0 -164 53t-65 139h66q7 -60 47 -98.5
t117 -38.5q79 0 116.5 36t37.5 91q0 49 -24.5 76t-85.5 41l-94 21q-82 19 -118.5 60t-36.5 112q0 77 57 125.5t149 48.5q96 0 149.5 -48.5t60.5 -132.5z" />
    <glyph glyph-name="Scedilla.sc" 
d="M319 -216q-42 0 -66 19t-27 50h60q8 -24 37 -24q20 0 31.5 11t11.5 31q0 19 -11 29.5t-30 10.5q-22 0 -36 -14h-55l41 93q-83 12 -129 63t-51 126h66q7 -60 47 -98.5t117 -38.5q79 0 116.5 36t37.5 91q0 49 -24.5 76t-85.5 41l-94 21q-82 19 -118.5 60t-36.5 112
q0 77 57 125.5t149 48.5q96 0 149.5 -48.5t60.5 -132.5h-66q-6 56 -41 90.5t-103 34.5q-64 0 -102 -31t-38 -84q0 -50 25 -75t79 -37l97 -22q84 -19 122 -59.5t38 -112.5q0 -86 -58.5 -137.5t-164.5 -51.5h-8l-15 -33h36q40 0 63.5 -21t23.5 -59t-28 -64t-77 -26z" />
    <glyph glyph-name="Scircumflex.sc" 
d="M365 903l107 -179h-66l-84 122h-4l-83 -122h-59l104 179h85zM536 472h-66q-6 56 -41 90.5t-103 34.5q-64 0 -102 -31t-38 -84q0 -50 25 -75t79 -37l97 -22q84 -19 122 -59.5t38 -112.5q0 -86 -58.5 -137.5t-164.5 -51.5q-105 0 -164 53t-65 139h66q7 -60 47 -98.5
t117 -38.5q79 0 116.5 36t37.5 91q0 49 -24.5 76t-85.5 41l-94 21q-82 19 -118.5 60t-36.5 112q0 77 57 125.5t149 48.5q96 0 149.5 -48.5t60.5 -132.5z" />
    <glyph glyph-name="Scommaaccent.sc" 
d="M229 -202l36 149h107l-84 -149h-59zM536 472h-66q-6 56 -41 90.5t-103 34.5q-64 0 -102 -31t-38 -84q0 -50 25 -75t79 -37l97 -22q84 -19 122 -59.5t38 -112.5q0 -86 -58.5 -137.5t-164.5 -51.5q-105 0 -164 53t-65 139h66q7 -60 47 -98.5t117 -38.5q79 0 116.5 36
t37.5 91q0 49 -24.5 76t-85.5 41l-94 21q-82 19 -118.5 60t-36.5 112q0 77 57 125.5t149 48.5q96 0 149.5 -48.5t60.5 -132.5z" />
    <glyph glyph-name="Tcaron.sc" 
d="M571 644v-57h-217v-587h-68v587h-218v57h503zM281 724l-107 179h65l84 -122h4l83 122h60l-104 -179h-85z" />
    <glyph glyph-name="Tcommaaccent.sc" 
d="M571 644v-57h-217v-587h-68v587h-218v57h503zM229 -202l36 149h107l-84 -149h-59z" />
    <glyph glyph-name="Uacute.sc" 
d="M288 724l66 179h103l-110 -179h-59zM106 207v437h69v-433q0 -82 34 -123.5t113 -41.5t112 41t33 124v433h66v-437q0 -220 -213 -220q-214 0 -214 220z" />
    <glyph glyph-name="Ubreve.sc" 
d="M106 207v437h69v-433q0 -82 34 -123.5t113 -41.5t112 41t33 124v433h66v-437q0 -220 -213 -220q-214 0 -214 220zM175 900h61q0 -53 24.5 -79t66.5 -26t66.5 26t24.5 79h57q0 -82 -41.5 -123t-109.5 -41t-108.5 41t-40.5 123z" />
    <glyph glyph-name="Ucircumflex.sc" 
d="M368 903l107 -179h-66l-84 122h-4l-83 -122h-59l104 179h85zM106 207v437h69v-433q0 -82 34 -123.5t113 -41.5t112 41t33 124v433h66v-437q0 -220 -213 -220q-214 0 -214 220z" />
    <glyph glyph-name="Udieresis.sc" 
d="M169 749v112h109v-112h-109zM478 749h-108v112h108v-112zM106 207v437h69v-433q0 -82 34 -123.5t113 -41.5t112 41t33 124v433h66v-437q0 -220 -213 -220q-214 0 -214 220z" />
    <glyph glyph-name="Ugrave.sc" 
d="M358 724h-58l-111 179h104zM106 207v437h69v-433q0 -82 34 -123.5t113 -41.5t112 41t33 124v433h66v-437q0 -220 -213 -220q-214 0 -214 220z" />
    <glyph glyph-name="Uhungarumlaut.sc" 
d="M376 724l59 179h90l-92 -179h-57zM221 724l60 179h89l-92 -179h-57zM106 207v437h69v-433q0 -82 34 -123.5t113 -41.5t112 41t33 124v433h66v-437q0 -220 -213 -220q-214 0 -214 220z" />
    <glyph glyph-name="Umacron.sc" 
d="M178 762v64h291v-64h-291zM106 207v437h69v-433q0 -82 34 -123.5t113 -41.5t112 41t33 124v433h66v-437q0 -220 -213 -220q-214 0 -214 220z" />
    <glyph glyph-name="Uogonek.sc" 
d="M401 -188h-16q-126 0 -126 92q0 53 52 83v2q-205 0 -205 218v437h69v-433q0 -82 34 -123.5t113 -41.5t112 41t33 124v433h66v-437q0 -169 -127 -208q-83 -27 -83 -78q0 -29 18.5 -41.5t59.5 -13.5v-54z" />
    <glyph glyph-name="Uring.sc" 
d="M198 804q0 54 34.5 89.5t89.5 35.5q56 0 90.5 -35t34.5 -90q0 -54 -35 -88.5t-90 -34.5t-89.5 34.5t-34.5 88.5zM322 726q33 0 53 22t20 56q0 35 -19.5 57.5t-53.5 22.5q-33 0 -52.5 -22.5t-19.5 -57.5q0 -34 19.5 -56t52.5 -22zM106 207v437h69v-433q0 -82 34 -123.5
t113 -41.5t112 41t33 124v433h66v-437q0 -220 -213 -220q-214 0 -214 220z" />
    <glyph glyph-name="Utilde.sc" 
d="M106 207v437h69v-433q0 -82 34 -123.5t113 -41.5t112 41t33 124v433h66v-437q0 -220 -213 -220q-214 0 -214 220zM145 738q1 59 27 97.5t77 38.5q28 0 55.5 -17.5t50.5 -35t41 -17.5q24 0 35 17.5t13 54.5h57q-1 -59 -27.5 -97t-76.5 -38q-22 0 -44.5 11t-38 24.5
t-33 24.5t-30.5 11q-45 0 -48 -74h-58z" />
    <glyph glyph-name="Wacute.sc" 
d="M235 0h-92l-66 644h62l56 -576h6q6 53 15 96l72 344h65l73 -343l15 -97h5l56 576h60l-66 -644h-92l-65 316l-17 118h-5q-8 -68 -18 -117zM297 724l66 179h103l-110 -179h-59z" />
    <glyph glyph-name="Wcircumflex.sc" 
d="M367 903l107 -179h-66l-84 122h-4l-83 -122h-59l104 179h85zM235 0h-92l-66 644h62l56 -576h6q6 53 15 96l72 344h65l73 -343l15 -97h5l56 576h60l-66 -644h-92l-65 316l-17 118h-5q-8 -68 -18 -117z" />
    <glyph glyph-name="Wdieresis.sc" 
d="M168 749v112h109v-112h-109zM477 749h-108v112h108v-112zM235 0h-92l-66 644h62l56 -576h6q6 53 15 96l72 344h65l73 -343l15 -97h5l56 576h60l-66 -644h-92l-65 316l-17 118h-5q-8 -68 -18 -117z" />
    <glyph glyph-name="Wgrave.sc" 
d="M235 0h-92l-66 644h62l56 -576h6q6 53 15 96l72 344h65l73 -343l15 -97h5l56 576h60l-66 -644h-92l-65 316l-17 118h-5q-8 -68 -18 -117zM350 724h-58l-111 179h104z" />
    <glyph glyph-name="Yacute.sc" 
d="M294 724l66 179h103l-110 -179h-59zM287 0v286l-209 358h74l170 -300h1l171 300h69l-209 -356v-288h-67z" />
    <glyph glyph-name="Ycircumflex.sc" 
d="M369 903l107 -179h-66l-84 122h-4l-83 -122h-59l104 179h85zM287 0v286l-209 358h74l170 -300h1l171 300h69l-209 -356v-288h-67z" />
    <glyph glyph-name="Ydieresis.sc" 
d="M170 749v112h109v-112h-109zM479 749h-108v112h108v-112zM287 0v286l-209 358h74l170 -300h1l171 300h69l-209 -356v-288h-67z" />
    <glyph glyph-name="Ygrave.sc" 
d="M287 0v286l-209 358h74l170 -300h1l171 300h69l-209 -356v-288h-67zM357 724h-58l-111 179h104z" />
    <glyph glyph-name="Zacute.sc" 
d="M290 724l66 179h103l-110 -179h-59zM109 587v57h436v-52l-371 -534h376v-58h-453v52l370 535h-358z" />
    <glyph glyph-name="Zcaron.sc" 
d="M284 724l-107 179h65l84 -122h4l83 122h60l-104 -179h-85zM109 587v57h436v-52l-371 -534h376v-58h-453v52l370 535h-358z" />
    <glyph glyph-name="Zdotaccent.sc" 
d="M109 587v57h436v-52l-371 -534h376v-58h-453v52l370 535h-358zM268 749v114h111v-114h-111z" />
    <glyph glyph-name="Ldot.sc" 
d="M153 0v644h68v-585h333v-59h-401zM456 297v104h102v-104h-102z" />
    <glyph glyph-name="Hbar.sc" 
d="M177 356h286v126h-286v-126zM177 299v-299h-67v482h-51v50h51v112h67v-112h286v112h67v-112h51v-50h-51v-482h-67v299h-286z" />
    <glyph glyph-name="Idotaccent.sc" 
d="M354 590v-536h153v-54h-374v54h153v536h-153v54h374v-54h-153zM265 749v114h111v-114h-111z" />
    <glyph glyph-name="Ebreve.sc" 
d="M180 900h61q0 -53 24.5 -79t66.5 -26t66.5 26t24.5 79h57q0 -82 -41.5 -123t-109.5 -41q-67 0 -108 41t-41 123zM134 0v644h398v-58h-330v-229h291v-58h-291v-241h333v-58h-401z" />
    <glyph glyph-name="eight.den" 
d="M147 350q0 62 46 101.5t126 39.5t126 -39.5t46 -101.5q0 -48 -25.5 -78.5t-62.5 -42.5v-2q43 -10 73.5 -42t30.5 -87q0 -67 -50 -108t-138 -41t-137.5 40.5t-49.5 108.5q0 56 32 88t73 41v2q-38 12 -64 42.5t-26 78.5zM319 -3q57 0 90.5 25.5t33.5 77.5q0 51 -34.5 76.5
t-89.5 25.5q-54 0 -88.5 -25.5t-34.5 -76.5q0 -52 34 -77.5t89 -25.5zM319 442q-48 0 -78 -24t-30 -72q0 -47 30.5 -71t77.5 -24t78 24t31 71q0 48 -30.5 72t-78.5 24z" />
    <glyph glyph-name="five.den" 
d="M441 127q0 60 -33 92t-86 32q-76 0 -111 -47h-54l14 279h308v-56h-256l-9 -170h3q41 47 117 47q71 0 120.5 -44.5t49.5 -130.5q0 -83 -52 -131.5t-138 -48.5t-130.5 44t-48.5 107h62q5 -49 37 -74t83 -25q52 0 88 31t36 95z" />
    <glyph glyph-name="four.den" 
d="M185 140h196v277h-4q-12 -26 -35 -59zM525 88h-86v-128h-60v128h-257v48l247 347h70v-342h86v-53z" />
    <glyph glyph-name="nine.den" 
d="M313 439q-47 0 -81.5 -30.5t-34.5 -89.5q0 -57 32.5 -89t83.5 -32q53 0 86.5 32t33.5 88q0 57 -34.5 89t-85.5 32zM140 77h61q7 -38 35 -57.5t69 -19.5q71 0 102.5 53.5t33.5 172.5l-3 -1q-17 -34 -52.5 -55.5t-82.5 -21.5q-70 0 -119.5 43t-49.5 125q0 76 50 125t130 49
q89 0 138.5 -60t49.5 -182q0 -159 -49.5 -229t-147.5 -70q-69 0 -113 33.5t-52 94.5z" />
    <glyph glyph-name="one.den" 
d="M495 -40h-327v51h136v330h-129v47h39q54 0 76 21q23 20 23 75h53v-473h129v-51z" />
    <glyph glyph-name="seven.den" 
d="M195 -40l239 466h-300v57h372v-40l-247 -483h-64z" />
    <glyph glyph-name="six.den" 
d="M501 367h-62q-17 73 -100 73q-137 0 -140 -221h3q19 37 56 59.5t86 22.5q71 0 119 -44t48 -127q0 -78 -50 -129.5t-134 -51.5q-190 0 -190 247q0 148 52.5 221.5t151.5 73.5q70 0 111.5 -36.5t48.5 -87.5zM327 -1q50 0 85 33.5t35 92.5t-33.5 92t-86.5 33
q-54 0 -86.5 -32.5t-32.5 -88.5q0 -61 34 -95.5t85 -34.5z" />
    <glyph glyph-name="three.den" 
d="M328 200h-53v52h50q47 0 73.5 27t26.5 68q0 42 -28.5 66.5t-75.5 24.5q-109 0 -110 -104h-64q0 66 46 111.5t130 45.5q76 0 121.5 -38t45.5 -99q0 -93 -94 -123v-2q108 -23 108 -128q0 -64 -51 -108t-134 -44q-90 0 -135 45.5t-48 112.5h63q4 -52 36.5 -79t87.5 -27
q50 0 83.5 28t33.5 73q0 48 -30.5 73t-81.5 25z" />
    <glyph glyph-name="two.den" 
d="M202 310h-61q0 84 50 132.5t128 48.5q80 0 126 -42t46 -107q0 -52 -24 -92t-85 -94l-94 -81l-71 -58v-2h283v-55h-371v47l196 173q59 51 80.5 83.5t21.5 76.5q0 45 -29.5 72t-78.5 27q-51 0 -83.5 -32t-33.5 -97z" />
    <glyph glyph-name="zero.den" 
d="M120 220q0 134 53.5 202.5t146.5 68.5q94 0 147 -68.5t53 -202.5t-52.5 -202.5t-147.5 -68.5t-147.5 68t-52.5 203zM320 -1q62 0 97.5 56t35.5 165q0 110 -35 165t-98 55t-98 -54.5t-35 -165.5t34.5 -166t98.5 -55z" />
    <glyph glyph-name="zero.num" 
d="M120 517q0 134 53.5 202.5t146.5 68.5q94 0 147 -68.5t53 -202.5t-52.5 -202.5t-147.5 -68.5t-147.5 68t-52.5 203zM320 296q62 0 97.5 56t35.5 165q0 110 -35 165t-98 55t-98 -54.5t-35 -165.5t34.5 -166t98.5 -55z" />
    <glyph glyph-name="one.num" 
d="M495 257h-327v51h136v330h-129v47h39q54 0 76 21q23 20 23 75h53v-473h129v-51z" />
    <glyph glyph-name="two.num" 
d="M202 607h-61q0 84 50 132.5t128 48.5q80 0 126 -42t46 -107q0 -52 -24 -92t-85 -94l-94 -81l-71 -58v-2h283v-55h-371v47l196 173q59 51 80.5 83.5t21.5 76.5q0 45 -29.5 72t-78.5 27q-51 0 -83.5 -32t-33.5 -97z" />
    <glyph glyph-name="three.num" 
d="M328 497h-53v52h50q47 0 73.5 27t26.5 68q0 42 -28.5 66.5t-75.5 24.5q-109 0 -110 -104h-64q0 66 46 111.5t130 45.5q76 0 121.5 -38t45.5 -99q0 -93 -94 -123v-2q108 -23 108 -128q0 -64 -51 -108t-134 -44q-90 0 -135 45.5t-48 112.5h63q4 -52 36.5 -79t87.5 -27
q50 0 83.5 28t33.5 73q0 48 -30.5 73t-81.5 25z" />
    <glyph glyph-name="four.num" 
d="M185 437h196v277h-4q-12 -26 -35 -59zM525 385h-86v-128h-60v128h-257v48l247 347h70v-342h86v-53z" />
    <glyph glyph-name="five.num" 
d="M441 424q0 60 -33 92t-86 32q-76 0 -111 -47h-54l14 279h308v-56h-256l-9 -170h3q41 47 117 47q71 0 120.5 -44.5t49.5 -130.5q0 -83 -52 -131.5t-138 -48.5t-130.5 44t-48.5 107h62q5 -49 37 -74t83 -25q52 0 88 31t36 95z" />
    <glyph glyph-name="six.num" 
d="M501 664h-62q-17 73 -100 73q-137 0 -140 -221h3q19 37 56 59.5t86 22.5q71 0 119 -44t48 -127q0 -78 -50 -129.5t-134 -51.5q-190 0 -190 247q0 148 52.5 221.5t151.5 73.5q70 0 111.5 -36.5t48.5 -87.5zM327 296q50 0 85 33.5t35 92.5t-33.5 92t-86.5 33
q-54 0 -86.5 -32.5t-32.5 -88.5q0 -61 34 -95.5t85 -34.5z" />
    <glyph glyph-name="seven.num" 
d="M195 257l239 466h-300v57h372v-40l-247 -483h-64z" />
    <glyph glyph-name="eight.num" 
d="M147 647q0 62 46 101.5t126 39.5t126 -39.5t46 -101.5q0 -48 -25.5 -78.5t-62.5 -42.5v-2q43 -10 73.5 -42t30.5 -87q0 -67 -50 -108t-138 -41t-137.5 40.5t-49.5 108.5q0 56 32 88t73 41v2q-38 12 -64 42.5t-26 78.5zM319 294q57 0 90.5 25.5t33.5 77.5q0 51 -34.5 76.5
t-89.5 25.5q-54 0 -88.5 -25.5t-34.5 -76.5q0 -52 34 -77.5t89 -25.5zM319 739q-48 0 -78 -24t-30 -72q0 -47 30.5 -71t77.5 -24t78 24t31 71q0 48 -30.5 72t-78.5 24z" />
    <glyph glyph-name="nine.num" 
d="M313 736q-47 0 -81.5 -30.5t-34.5 -89.5q0 -57 32.5 -89t83.5 -32q53 0 86.5 32t33.5 88q0 57 -34.5 89t-85.5 32zM140 374h61q7 -38 35 -57.5t69 -19.5q71 0 102.5 53.5t33.5 172.5l-3 -1q-17 -34 -52.5 -55.5t-82.5 -21.5q-70 0 -119.5 43t-49.5 125q0 76 50 125
t130 49q89 0 138.5 -60t49.5 -182q0 -159 -49.5 -229t-147.5 -70q-69 0 -113 33.5t-52 94.5z" />
    <glyph glyph-name="minus.num" 
d="M151 483v53h340v-53h-340z" />
    <glyph glyph-name="plus.num" 
d="M347 484v-138h-55v138h-143v51h143v137h55v-137h143v-51h-143z" />
    <glyph glyph-name="minus.den" 
d="M151 186v53h340v-53h-340z" />
    <glyph glyph-name="plus.den" 
d="M347 187v-138h-55v138h-143v51h143v137h55v-137h143v-51h-143z" />
    <glyph glyph-name="eight.sub" 
d="M147 310q0 62 46 101.5t126 39.5t126 -39.5t46 -101.5q0 -48 -25.5 -78.5t-62.5 -42.5v-2q43 -10 73.5 -42t30.5 -87q0 -67 -50 -108t-138 -41t-137.5 40.5t-49.5 108.5q0 56 32 88t73 41v2q-38 12 -64 42.5t-26 78.5zM319 -43q57 0 90.5 25.5t33.5 77.5q0 51 -34.5 76.5
t-89.5 25.5q-54 0 -88.5 -25.5t-34.5 -76.5q0 -52 34 -77.5t89 -25.5zM319 402q-48 0 -78 -24t-30 -72q0 -47 30.5 -71t77.5 -24t78 24t31 71q0 48 -30.5 72t-78.5 24z" />
    <glyph glyph-name="eight.sup" 
d="M147 722q0 62 46 101.5t126 39.5t126 -39.5t46 -101.5q0 -48 -25.5 -78.5t-62.5 -42.5v-2q43 -10 73.5 -42t30.5 -87q0 -67 -50 -108t-138 -41t-137.5 40.5t-49.5 108.5q0 56 32 88t73 41v2q-38 12 -64 42.5t-26 78.5zM319 369q57 0 90.5 25.5t33.5 77.5q0 51 -34.5 76.5
t-89.5 25.5q-54 0 -88.5 -25.5t-34.5 -76.5q0 -52 34 -77.5t89 -25.5zM319 814q-48 0 -78 -24t-30 -72q0 -47 30.5 -71t77.5 -24t78 24t31 71q0 48 -30.5 72t-78.5 24z" />
    <glyph glyph-name="five.sub" 
d="M441 87q0 60 -33 92t-86 32q-76 0 -111 -47h-54l14 279h308v-56h-256l-9 -170h3q41 47 117 47q71 0 120.5 -44.5t49.5 -130.5q0 -83 -52 -131.5t-138 -48.5t-130.5 44t-48.5 107h62q5 -49 37 -74t83 -25q52 0 88 31t36 95z" />
    <glyph glyph-name="five.sup" 
d="M441 499q0 60 -33 92t-86 32q-76 0 -111 -47h-54l14 279h308v-56h-256l-9 -170h3q41 47 117 47q71 0 120.5 -44.5t49.5 -130.5q0 -83 -52 -131.5t-138 -48.5t-130.5 44t-48.5 107h62q5 -49 37 -74t83 -25q52 0 88 31t36 95z" />
    <glyph glyph-name="four.sub" 
d="M185 100h196v277h-4q-12 -26 -35 -59zM525 48h-86v-128h-60v128h-257v48l247 347h70v-342h86v-53z" />
    <glyph glyph-name="four.sup" 
d="M185 512h196v277h-4q-12 -26 -35 -59zM525 460h-86v-128h-60v128h-257v48l247 347h70v-342h86v-53z" />
    <glyph glyph-name="minus.sub" 
d="M151 146v53h340v-53h-340z" />
    <glyph glyph-name="minus.sup" 
d="M151 558v53h340v-53h-340z" />
    <glyph glyph-name="nine.sub" 
d="M313 399q-47 0 -81.5 -30.5t-34.5 -89.5q0 -57 32.5 -89t83.5 -32q53 0 86.5 32t33.5 88q0 57 -34.5 89t-85.5 32zM140 37h61q7 -38 35 -57.5t69 -19.5q71 0 102.5 53.5t33.5 172.5l-3 -1q-17 -34 -52.5 -55.5t-82.5 -21.5q-70 0 -119.5 43t-49.5 125q0 76 50 125t130 49
q89 0 138.5 -60t49.5 -182q0 -159 -49.5 -229t-147.5 -70q-69 0 -113 33.5t-52 94.5z" />
    <glyph glyph-name="nine.sup" 
d="M313 811q-47 0 -81.5 -30.5t-34.5 -89.5q0 -57 32.5 -89t83.5 -32q53 0 86.5 32t33.5 88q0 57 -34.5 89t-85.5 32zM140 449h61q7 -38 35 -57.5t69 -19.5q71 0 102.5 53.5t33.5 172.5l-3 -1q-17 -34 -52.5 -55.5t-82.5 -21.5q-70 0 -119.5 43t-49.5 125q0 76 50 125
t130 49q89 0 138.5 -60t49.5 -182q0 -159 -49.5 -229t-147.5 -70q-69 0 -113 33.5t-52 94.5z" />
    <glyph glyph-name="one.sub" 
d="M495 -80h-327v51h136v330h-129v47h39q54 0 76 21q23 20 23 75h53v-473h129v-51z" />
    <glyph glyph-name="one.sup" 
d="M495 332h-327v51h136v330h-129v47h39q54 0 76 21q23 20 23 75h53v-473h129v-51z" />
    <glyph glyph-name="plus.sub" 
d="M347 147v-138h-55v138h-143v51h143v137h55v-137h143v-51h-143z" />
    <glyph glyph-name="plus.sup" 
d="M347 559v-138h-55v138h-143v51h143v137h55v-137h143v-51h-143z" />
    <glyph glyph-name="seven.sub" 
d="M195 -80l239 466h-300v57h372v-40l-247 -483h-64z" />
    <glyph glyph-name="seven.sup" 
d="M195 332l239 466h-300v57h372v-40l-247 -483h-64z" />
    <glyph glyph-name="six.sub" 
d="M501 327h-62q-17 73 -100 73q-137 0 -140 -221h3q19 37 56 59.5t86 22.5q71 0 119 -44t48 -127q0 -78 -50 -129.5t-134 -51.5q-190 0 -190 247q0 148 52.5 221.5t151.5 73.5q70 0 111.5 -36.5t48.5 -87.5zM327 -41q50 0 85 33.5t35 92.5t-33.5 92t-86.5 33
q-54 0 -86.5 -32.5t-32.5 -88.5q0 -61 34 -95.5t85 -34.5z" />
    <glyph glyph-name="six.sup" 
d="M501 739h-62q-17 73 -100 73q-137 0 -140 -221h3q19 37 56 59.5t86 22.5q71 0 119 -44t48 -127q0 -78 -50 -129.5t-134 -51.5q-190 0 -190 247q0 148 52.5 221.5t151.5 73.5q70 0 111.5 -36.5t48.5 -87.5zM327 371q50 0 85 33.5t35 92.5t-33.5 92t-86.5 33
q-54 0 -86.5 -32.5t-32.5 -88.5q0 -61 34 -95.5t85 -34.5z" />
    <glyph glyph-name="three.sub" 
d="M328 160h-53v52h50q47 0 73.5 27t26.5 68q0 42 -28.5 66.5t-75.5 24.5q-109 0 -110 -104h-64q0 66 46 111.5t130 45.5q76 0 121.5 -38t45.5 -99q0 -93 -94 -123v-2q108 -23 108 -128q0 -64 -51 -108t-134 -44q-90 0 -135 45.5t-48 112.5h63q4 -52 36.5 -79t87.5 -27
q50 0 83.5 28t33.5 73q0 48 -30.5 73t-81.5 25z" />
    <glyph glyph-name="three.sup" 
d="M328 572h-53v52h50q47 0 73.5 27t26.5 68q0 42 -28.5 66.5t-75.5 24.5q-109 0 -110 -104h-64q0 66 46 111.5t130 45.5q76 0 121.5 -38t45.5 -99q0 -93 -94 -123v-2q108 -23 108 -128q0 -64 -51 -108t-134 -44q-90 0 -135 45.5t-48 112.5h63q4 -52 36.5 -79t87.5 -27
q50 0 83.5 28t33.5 73q0 48 -30.5 73t-81.5 25z" />
    <glyph glyph-name="two.sub" 
d="M202 270h-61q0 84 50 132.5t128 48.5q80 0 126 -42t46 -107q0 -52 -24 -92t-85 -94l-94 -81l-71 -58v-2h283v-55h-371v47l196 173q59 51 80.5 83.5t21.5 76.5q0 45 -29.5 72t-78.5 27q-51 0 -83.5 -32t-33.5 -97z" />
    <glyph glyph-name="two.sup" 
d="M202 682h-61q0 84 50 132.5t128 48.5q80 0 126 -42t46 -107q0 -52 -24 -92t-85 -94l-94 -81l-71 -58v-2h283v-55h-371v47l196 173q59 51 80.5 83.5t21.5 76.5q0 45 -29.5 72t-78.5 27q-51 0 -83.5 -32t-33.5 -97z" />
    <glyph glyph-name="zero.sub" 
d="M120 180q0 134 53.5 202.5t146.5 68.5q94 0 147 -68.5t53 -202.5t-52.5 -202.5t-147.5 -68.5t-147.5 68t-52.5 203zM320 -41q62 0 97.5 56t35.5 165q0 110 -35 165t-98 55t-98 -54.5t-35 -165.5t34.5 -166t98.5 -55z" />
    <glyph glyph-name="zero.sup" 
d="M120 592q0 134 53.5 202.5t146.5 68.5q94 0 147 -68.5t53 -202.5t-52.5 -202.5t-147.5 -68.5t-147.5 68t-52.5 203zM320 371q62 0 97.5 56t35.5 165q0 110 -35 165t-98 55t-98 -54.5t-35 -165.5t34.5 -166t98.5 -55z" />
    <glyph glyph-name="Q.old" 
d="M509 -90l-68 104q-55 -30 -122 -30q-131 0 -197.5 92t-66.5 304q0 396 266 396q130 0 197 -92t67 -304q0 -235 -97 -330l69 -106zM130 380q0 -179 45 -259t145 -80q54 0 90 20l-81 123l49 35l77 -119q55 78 55 280q0 184 -44.5 261.5t-145.5 77.5q-97 0 -143.5 -80
t-46.5 -259z" />
    <glyph glyph-name="Q.scold" 
d="M487 -83l-63 94q-46 -24 -105 -24q-117 0 -176 77.5t-59 255.5q0 333 238 333q116 0 175.5 -77.5t59.5 -255.5q0 -197 -87 -277l62 -95zM154 320q0 -147 39.5 -212.5t125.5 -65.5q45 0 75 15l-71 104l46 33l68 -102q49 63 49 228q0 151 -39.5 214.5t-127.5 63.5
q-84 0 -124.5 -65.5t-40.5 -212.5z" />
    <glyph glyph-name="dieresis.uc" 
d="M365 834v113h108v-113h-108zM164 834v113h109v-113h-109z" />
    <glyph glyph-name="space_uni0326" 
d="M242 -202l36 149h107l-84 -149h-59z" />
    <glyph glyph-name="commaaccent.alt" 
d="M392 782l-41 -162h-106l88 162h59z" />
    <glyph glyph-name="Aringacute.sc" 
d="M198 803q0 54 34.5 89.5t89.5 35.5q56 0 90.5 -35t34.5 -90q0 -54 -35 -88.5t-90 -34.5t-89.5 34.5t-34.5 88.5zM322 725q33 0 53 22t20 56q0 35 -19.5 57.5t-53.5 22.5q-33 0 -52.5 -22.5t-19.5 -57.5q0 -34 19.5 -56t52.5 -22zM312 578q-6 -29 -24 -92l-71 -229h200
l-71 230l-24 91h-10zM498 0l-64 202h-234l-64 -202h-67l205 644h90l206 -644h-72zM295 957l57 133h102l-98 -133h-61z" />
    <glyph glyph-name="CR" horiz-adv-x="500" 
 />
    <glyph glyph-name="DC1" horiz-adv-x="500" 
 />
    <glyph glyph-name="DC2" horiz-adv-x="500" 
 />
    <glyph glyph-name="DC3" horiz-adv-x="500" 
 />
    <glyph glyph-name="DC4" horiz-adv-x="500" 
 />
    <glyph glyph-name="DEL" horiz-adv-x="500" 
 />
    <glyph glyph-name="DLE" horiz-adv-x="500" 
 />
    <glyph glyph-name="HT" horiz-adv-x="500" 
 />
    <glyph glyph-name="IJ.alt01" horiz-adv-x="1280" 
d="M355 707v-649h179v-58h-428v58h179v649h-179v58h428v-58h-179zM1052 764h72v-554q0 -104 -62 -161t-162 -57q-81 0 -153 19v63q78 -20 151 -20q154 0 154 167v543z" />
    <glyph glyph-name="J.alt01" 
d="M412 765h72v-554q0 -104 -62 -161t-162 -57q-81 0 -153 19v63q78 -20 151 -20q154 0 154 167v543z" />
    <glyph glyph-name="IJ.scalt01" horiz-adv-x="1280" 
d="M354 590v-536h153v-54h-374v54h153v536h-153v54h374v-54h-153zM1033 644h68v-463q0 -93 -56.5 -140.5t-151.5 -47.5q-65 0 -129 15v61q62 -16 129 -16q140 0 140 133v458z" />
    <glyph glyph-name="J.scalt01" 
d="M393 644h68v-463q0 -93 -56.5 -140.5t-151.5 -47.5q-65 0 -129 15v61q62 -16 129 -16q140 0 140 133v458z" />
    <glyph glyph-name="Jcircumflex.alt01" 
d="M483 960l107 -133h-69l-80 76h-2l-78 -76h-65l104 133h83zM412 765h72v-554q0 -104 -62 -161t-162 -57q-81 0 -153 19v63q78 -20 151 -20q154 0 154 167v543z" />
    <glyph glyph-name="Jcircumflex.scalt01" 
d="M468 903l107 -179h-66l-84 122h-4l-83 -122h-59l104 179h85zM393 644h68v-463q0 -93 -56.5 -140.5t-151.5 -47.5q-65 0 -129 15v61q62 -16 129 -16q140 0 140 133v458z" />
    <glyph glyph-name="LF" horiz-adv-x="500" 
 />
    <glyph glyph-name="RS" horiz-adv-x="500" 
 />
    <glyph glyph-name="US" horiz-adv-x="500" 
 />
    <glyph glyph-name="apple" 
d="M606 500q0 -117 -84 -200.5t-202 -83.5t-201.5 83.5t-83.5 200.5q0 118 83 201t202 83t202.5 -83t83.5 -201zM553 371q30 57 33 120h-118q-1 -63 -20 -120h105zM468 509h118q-3 63 -33 120h-105q18 -52 20 -120zM88 371h104q-19 57 -20 120h-117q3 -66 33 -120zM55 509
h117q1 63 20 120h-104q-30 -54 -33 -120zM427 371q19 57 21 120h-118v-120h97zM330 509h118q-2 65 -21 120h-97v-120zM310 491h-118q2 -63 21 -120h97v120zM310 629h-97q-19 -57 -21 -120h118v120zM290 234q-62 48 -91 119h-100q32 -49 82 -80.5t109 -38.5zM350 234
q56 6 108 38.5t84 80.5h-101q-31 -74 -91 -119zM542 647q-32 49 -82.5 80.5t-107.5 38.5q58 -43 90 -119h100zM198 647q33 78 90 119q-121 -16 -189 -119h99zM421 647q-32 75 -91 116v-116h91zM310 647v116q-59 -40 -91 -116h91zM330 238q58 40 90 115h-90v-115zM310 353
h-90q32 -74 90 -115v115z" />
    <glyph glyph-name="dagger.alt01" 
d="M351 563v-293h-61v293h-139v53h139v149h61v-149h138v-53h-138z" />
    <glyph glyph-name="daggerdbl.alt01" 
d="M351 398v-128h-61v128h-139v53h139v132h-139v53h139v129h61v-129h138v-53h-138v-132h138v-53h-138z" />
    <glyph glyph-name="dotlessj.alt01" 
d="M209 -191v58q27 -6 60 -6q80 0 80 90v516h-200v57h269v-583q0 -66 -40 -102.5t-106 -36.5q-31 0 -63 7z" />
    <glyph glyph-name="f.alt01" 
d="M346 467v-467h-69v467h-193v57h193v124q0 66 39.5 102t106.5 36q33 0 62 -7v-57q-27 6 -59 6q-80 0 -80 -91v-113h214v-57h-214z" />
    <glyph glyph-name="f_i" horiz-adv-x="1280" 
d="M908 634v114h111v-114h-111zM1204 0h-464v57h196v411h-168v56h236v-467h200v-57zM343 467v-467h-69v467h-195v57h195v109q0 77 46 115.5t124 38.5q58 0 111 -16v-59q-53 16 -110 16q-53 0 -77.5 -22.5t-24.5 -77.5v-104h212v-57h-212z" />
    <glyph glyph-name="f_i.alt01" horiz-adv-x="1280" 
d="M908 634v114h111v-114h-111zM1204 0h-464v57h196v411h-168v56h236v-467h200v-57zM346 467v-467h-69v467h-193v57h193v124q0 66 39.5 102t106.5 36q33 0 62 -7v-57q-27 6 -59 6q-80 0 -80 -91v-113h214v-57h-214z" />
    <glyph glyph-name="f_l" horiz-adv-x="1280" 
d="M1198 0h-466v57h197v674h-168v57h237v-731h200v-57zM343 467v-467h-69v467h-195v57h195v109q0 77 46 115.5t124 38.5q58 0 111 -16v-59q-53 16 -110 16q-53 0 -77.5 -22.5t-24.5 -77.5v-104h212v-57h-212z" />
    <glyph glyph-name="f_l.alt01" horiz-adv-x="1280" 
d="M346 467v-467h-69v467h-193v57h193v124q0 66 39.5 102t106.5 36q33 0 62 -7v-57q-27 6 -59 6q-80 0 -80 -91v-113h214v-57h-214zM1198 0h-466v57h197v674h-168v57h237v-731h200v-57z" />
    <glyph glyph-name="ij.alt01" horiz-adv-x="1280" 
d="M267 634v114h111v-114h-111zM563 0h-464v57h196v411h-168v56h236v-467h200v-57zM1073 634h-111v114h111v-114zM912 -198q-31 0 -63 7v58q27 -6 60 -6q80 0 80 90v516h-200v57h269v-583q0 -66 -40 -102.5t-106 -36.5z" />
    <glyph glyph-name="j.alt01" 
d="M433 634h-111v114h111v-114zM272 -198q-31 0 -63 7v58q27 -6 60 -6q80 0 80 90v516h-200v57h269v-583q0 -66 -40 -102.5t-106 -36.5z" />
    <glyph glyph-name="jcircumflex.alt01" 
d="M431 788l107 -179h-66l-84 122h-4l-83 -122h-59l104 179h85zM209 -191v58q27 -6 60 -6q80 0 80 90v516h-200v57h269v-583q0 -66 -40 -102.5t-106 -36.5q-31 0 -63 7z" />
    <glyph glyph-name="t.alt01" 
d="M411 -10q-146 0 -146 148v329h-193v57h136q36 0 48 12.5t12 50.5v98h66v-161h218v-57h-218v-329q0 -47 22 -68t66 -21q33 0 69 9v-56q-36 -12 -80 -12z" />
    <glyph glyph-name="tbar.alt01" 
d="M491 2q-36 -12 -80 -12q-146 0 -146 148v122h-193v56h193v151h-193v57h136q36 0 48 12.5t12 50.5v98h66v-161h218v-57h-218v-151h218v-56h-218v-122q0 -47 22 -68t66 -21q33 0 69 9v-56z" />
    <glyph glyph-name="tcaron.alt01" 
d="M411 -10q-146 0 -146 148v329h-193v57h136q36 0 48 12.5t12 50.5v98h66v-161h218v-57h-218v-329q0 -47 22 -68t66 -21q33 0 69 9v-56q-36 -12 -80 -12zM414 587l26 201h91l-68 -201h-49z" />
    <glyph glyph-name="tcommaaccent.alt01" 
d="M292 -202l36 149h107l-84 -149h-59zM411 -10q-146 0 -146 148v329h-193v57h136q36 0 48 12.5t12 50.5v98h66v-161h218v-57h-218v-329q0 -47 22 -68t66 -21q33 0 69 9v-56q-36 -12 -80 -12z" />
    <glyph glyph-name="y.alt01" 
d="M293 -1l-207 525h73l140 -364l29 -81h3l30 82l136 363h69l-221 -566q-35 -89 -74.5 -123t-107.5 -34q-28 0 -56 5v59q22 -5 54 -5q46 0 69 20.5t45 74.5z" />
    <glyph glyph-name="yacute.alt01" 
d="M293 -1l-207 525h73l140 -364l29 -81h3l30 82l136 363h69l-221 -566q-35 -89 -74.5 -123t-107.5 -34q-28 0 -56 5v59q22 -5 54 -5q46 0 69 20.5t45 74.5zM301 609l66 179h103l-110 -179h-59z" />
    <glyph glyph-name="ycircumflex.alt01" 
d="M293 -1l-207 525h73l140 -364l29 -81h3l30 82l136 363h69l-221 -566q-35 -89 -74.5 -123t-107.5 -34q-28 0 -56 5v59q22 -5 54 -5q46 0 69 20.5t45 74.5zM376 788l107 -179h-66l-84 122h-4l-83 -122h-59l104 179h85z" />
    <glyph glyph-name="ydieresis.alt01" 
d="M293 -1l-207 525h73l140 -364l29 -81h3l30 82l136 363h69l-221 -566q-35 -89 -74.5 -123t-107.5 -34q-28 0 -56 5v59q22 -5 54 -5q46 0 69 20.5t45 74.5zM177 633v112h109v-112h-109zM486 633h-108v112h108v-112z" />
    <glyph glyph-name="ygrave.alt01" 
d="M293 -1l-207 525h73l140 -364l29 -81h3l30 82l136 363h69l-221 -566q-35 -89 -74.5 -123t-107.5 -34q-28 0 -56 5v59q22 -5 54 -5q46 0 69 20.5t45 74.5zM357 609h-58l-111 179h104z" />
    <glyph glyph-name="zero.slash" 
d="M66 368q0 192 67 288t187 96t187 -96t67 -288t-67 -288t-187 -96t-187 96t-67 288zM320 694q-183 0 -183 -327q0 -42 3 -78l351 220q-34 185 -171 185zM320 42q182 0 182 325q0 42 -3 78l-351 -221q35 -182 172 -182z" />
  </font>
</defs>
</svg>
